<svg width="414" height="36" viewBox="0 0 414 36" fill="none" xmlns="http://www.w3.org/2000/svg">
<mask id="path-1-outside-1_1_139" maskUnits="userSpaceOnUse" x="1.5" y="4.5" width="15" height="22" fill="black">
<rect fill="white" x="1.5" y="4.5" width="15" height="22"/>
<path d="M2.74 25.5V21.86H7.024V9.82H3.44V7.636L5.316 6.18H11.056V21.86H14.892V25.5H2.74Z"/>
</mask>
<path d="M2.74 25.5H1.74V26.5H2.74V25.5ZM2.74 21.86V20.86H1.74V21.86H2.74ZM7.024 21.86V22.86H8.024V21.86H7.024ZM7.024 9.82H8.024V8.82H7.024V9.82ZM3.44 9.82H2.44V10.82H3.44V9.82ZM3.44 7.636L2.82688 6.84601L2.44 7.14628V7.636H3.44ZM5.316 6.18V5.18H4.97347L4.70288 5.39001L5.316 6.18ZM11.056 6.18H12.056V5.18H11.056V6.18ZM11.056 21.86H10.056V22.86H11.056V21.86ZM14.892 21.86H15.892V20.86H14.892V21.86ZM14.892 25.5V26.5H15.892V25.5H14.892ZM3.74 25.5V21.86H1.74V25.5H3.74ZM2.74 22.86H7.024V20.86H2.74V22.86ZM8.024 21.86V9.82H6.024V21.86H8.024ZM7.024 8.82H3.44V10.82H7.024V8.82ZM4.44 9.82V7.636H2.44V9.82H4.44ZM4.05312 8.42599L5.92912 6.96999L4.70288 5.39001L2.82688 6.84601L4.05312 8.42599ZM5.316 7.18H11.056V5.18H5.316V7.18ZM10.056 6.18V21.86H12.056V6.18H10.056ZM11.056 22.86H14.892V20.86H11.056V22.86ZM13.892 21.86V25.5H15.892V21.86H13.892ZM14.892 24.5H2.74V26.5H14.892V24.5Z" fill="white" mask="url(#path-1-outside-1_1_139)"/>
<rect x="17.5" y="17.395" width="396" height="1" fill="white"/>
</svg>
