<svg width="414" height="36" viewBox="0 0 414 36" fill="none" xmlns="http://www.w3.org/2000/svg">
<mask id="path-1-outside-1_1_166" maskUnits="userSpaceOnUse" x="0.5" y="4.5" width="16" height="22" fill="black">
<rect fill="white" x="0.5" y="4.5" width="16" height="22"/>
<path d="M1.956 25.5V19.2C1.956 16.6427 3.076 15.14 5.316 14.692L10.496 13.656C10.9627 13.5627 11.196 13.2547 11.196 12.732V10.66C11.196 10.1 10.916 9.82 10.356 9.82H2.516V7.636L4.392 6.18H10.524C13.66 6.18 15.228 7.748 15.228 10.884V12.704C15.228 15.2613 14.108 16.764 11.868 17.212L6.688 18.248C6.22133 18.3413 5.988 18.6493 5.988 19.172V21.86H15.228V25.5H1.956Z"/>
</mask>
<path d="M1.956 25.5H0.956V26.5H1.956V25.5ZM5.316 14.692L5.51212 15.6726L5.316 14.692ZM10.496 13.656L10.6921 14.6366H10.6921L10.496 13.656ZM2.516 9.82H1.516V10.82H2.516V9.82ZM2.516 7.636L1.90288 6.84601L1.516 7.14628V7.636H2.516ZM4.392 6.18V5.18H4.04947L3.77888 5.39001L4.392 6.18ZM11.868 17.212L12.0641 18.1926L11.868 17.212ZM6.688 18.248L6.88412 19.2286H6.88412L6.688 18.248ZM5.988 21.86H4.988V22.86H5.988V21.86ZM15.228 21.86H16.228V20.86H15.228V21.86ZM15.228 25.5V26.5H16.228V25.5H15.228ZM2.956 25.5V19.2H0.956V25.5H2.956ZM2.956 19.2C2.956 18.0594 3.20605 17.2782 3.59779 16.7526C3.97944 16.2406 4.57879 15.8592 5.51212 15.6726L5.11988 13.7114C3.81321 13.9728 2.73256 14.5668 1.99421 15.5574C1.26595 16.5345 0.956 17.7832 0.956 19.2H2.956ZM5.51212 15.6726L10.6921 14.6366L10.2999 12.6754L5.11988 13.7114L5.51212 15.6726ZM10.6921 14.6366C11.1072 14.5536 11.5217 14.35 11.8181 13.9589C12.1059 13.5789 12.196 13.1353 12.196 12.732H10.196C10.196 12.7898 10.1894 12.8138 10.1895 12.8133C10.1903 12.8106 10.1983 12.7849 10.2239 12.7511C10.2503 12.7163 10.281 12.6919 10.3049 12.6782C10.3261 12.666 10.3292 12.6696 10.2999 12.6754L10.6921 14.6366ZM12.196 12.732V10.66H10.196V12.732H12.196ZM12.196 10.66C12.196 10.2259 12.0868 9.71657 11.6931 9.32289C11.2994 8.92921 10.7901 8.82 10.356 8.82V10.82C10.4157 10.82 10.4271 10.8278 10.4073 10.8212C10.3826 10.8129 10.3311 10.7893 10.2789 10.7371C10.2267 10.6849 10.2031 10.6334 10.1948 10.6087C10.1882 10.5889 10.196 10.6003 10.196 10.66H12.196ZM10.356 8.82H2.516V10.82H10.356V8.82ZM3.516 9.82V7.636H1.516V9.82H3.516ZM3.12912 8.42599L5.00512 6.96999L3.77888 5.39001L1.90288 6.84601L3.12912 8.42599ZM4.392 7.18H10.524V5.18H4.392V7.18ZM10.524 7.18C11.9379 7.18 12.8146 7.53278 13.3449 8.06311C13.8752 8.59343 14.228 9.47014 14.228 10.884H16.228C16.228 9.16185 15.7968 7.68657 14.7591 6.64889C13.7214 5.61121 12.2461 5.18 10.524 5.18V7.18ZM14.228 10.884V12.704H16.228V10.884H14.228ZM14.228 12.704C14.228 13.8446 13.978 14.6258 13.5862 15.1514C13.2046 15.6634 12.6052 16.0448 11.6719 16.2314L12.0641 18.1926C13.3708 17.9312 14.4514 17.3372 15.1898 16.3466C15.9181 15.3695 16.228 14.1208 16.228 12.704H14.228ZM11.6719 16.2314L6.49188 17.2674L6.88412 19.2286L12.0641 18.1926L11.6719 16.2314ZM6.49188 17.2674C6.07679 17.3504 5.66226 17.554 5.36591 17.9451C5.07806 18.3251 4.988 18.7687 4.988 19.172H6.988C6.988 19.1142 6.99461 19.0902 6.99449 19.0907C6.99373 19.0934 6.98567 19.1191 6.96009 19.1529C6.93369 19.1877 6.903 19.2121 6.87913 19.2258C6.85788 19.238 6.85479 19.2344 6.88412 19.2286L6.49188 17.2674ZM4.988 19.172V21.86H6.988V19.172H4.988ZM5.988 22.86H15.228V20.86H5.988V22.86ZM14.228 21.86V25.5H16.228V21.86H14.228ZM15.228 24.5H1.956V26.5H15.228V24.5Z" fill="white" mask="url(#path-1-outside-1_1_166)"/>
<rect x="17.5" y="17.395" width="396" height="1" fill="white"/>
</svg>
