<svg width="414" height="36" viewBox="0 0 414 36" fill="none" xmlns="http://www.w3.org/2000/svg">
<mask id="path-1-outside-1_1_188" maskUnits="userSpaceOnUse" x="0.5" y="4.5" width="16" height="22" fill="black">
<rect fill="white" x="0.5" y="4.5" width="16" height="22"/>
<path d="M2.236 24.044V21.86H10.356C10.916 21.86 11.196 21.58 11.196 21.02V18.22C11.196 17.66 10.916 17.38 10.356 17.38H4.308V13.74H10.356C10.916 13.74 11.196 13.46 11.196 12.9V10.66C11.196 10.1 10.916 9.82 10.356 9.82H2.516V7.636L4.392 6.18H10.524C13.66 6.18 15.228 7.748 15.228 10.884V12.676C15.228 13.4227 14.9947 14.0293 14.528 14.496L13.548 15.476L14.528 16.456C14.9947 16.9227 15.228 17.5293 15.228 18.276V20.796C15.228 23.932 13.66 25.5 10.524 25.5H4.112L2.236 24.044Z"/>
</mask>
<path d="M2.236 24.044H1.236V24.5337L1.62288 24.834L2.236 24.044ZM2.236 21.86V20.86H1.236V21.86H2.236ZM4.308 17.38H3.308V18.38H4.308V17.38ZM4.308 13.74V12.74H3.308V13.74H4.308ZM2.516 9.82H1.516V10.82H2.516V9.82ZM2.516 7.636L1.90288 6.84601L1.516 7.14628V7.636H2.516ZM4.392 6.18V5.18H4.04947L3.77888 5.39001L4.392 6.18ZM14.528 14.496L15.2351 15.2031L15.2351 15.2031L14.528 14.496ZM13.548 15.476L12.8409 14.7689L12.1338 15.476L12.8409 16.1831L13.548 15.476ZM14.528 16.456L15.2351 15.7489H15.2351L14.528 16.456ZM4.112 25.5L3.49888 26.29L3.76947 26.5H4.112V25.5ZM3.236 24.044V21.86H1.236V24.044H3.236ZM2.236 22.86H10.356V20.86H2.236V22.86ZM10.356 22.86C10.7901 22.86 11.2994 22.7508 11.6931 22.3571C12.0868 21.9634 12.196 21.4541 12.196 21.02H10.196C10.196 21.0797 10.1882 21.0911 10.1948 21.0713C10.2031 21.0466 10.2267 20.9951 10.2789 20.9429C10.3311 20.8907 10.3826 20.8671 10.4073 20.8588C10.4271 20.8522 10.4157 20.86 10.356 20.86V22.86ZM12.196 21.02V18.22H10.196V21.02H12.196ZM12.196 18.22C12.196 17.7859 12.0868 17.2766 11.6931 16.8829C11.2994 16.4892 10.7901 16.38 10.356 16.38V18.38C10.4157 18.38 10.4271 18.3878 10.4073 18.3812C10.3826 18.3729 10.3311 18.3493 10.2789 18.2971C10.2267 18.2449 10.2031 18.1934 10.1948 18.1687C10.1882 18.1489 10.196 18.1603 10.196 18.22H12.196ZM10.356 16.38H4.308V18.38H10.356V16.38ZM5.308 17.38V13.74H3.308V17.38H5.308ZM4.308 14.74H10.356V12.74H4.308V14.74ZM10.356 14.74C10.7901 14.74 11.2994 14.6308 11.6931 14.2371C12.0868 13.8434 12.196 13.3341 12.196 12.9H10.196C10.196 12.9597 10.1882 12.9711 10.1948 12.9513C10.2031 12.9266 10.2267 12.8751 10.2789 12.8229C10.3311 12.7707 10.3826 12.7471 10.4073 12.7388C10.4271 12.7322 10.4157 12.74 10.356 12.74V14.74ZM12.196 12.9V10.66H10.196V12.9H12.196ZM12.196 10.66C12.196 10.2259 12.0868 9.71657 11.6931 9.32289C11.2994 8.92921 10.7901 8.82 10.356 8.82V10.82C10.4157 10.82 10.4271 10.8278 10.4073 10.8212C10.3826 10.8129 10.3311 10.7893 10.2789 10.7371C10.2267 10.6849 10.2031 10.6334 10.1948 10.6087C10.1882 10.5889 10.196 10.6003 10.196 10.66H12.196ZM10.356 8.82H2.516V10.82H10.356V8.82ZM3.516 9.82V7.636H1.516V9.82H3.516ZM3.12912 8.42599L5.00512 6.96999L3.77888 5.39001L1.90288 6.84601L3.12912 8.42599ZM4.392 7.18H10.524V5.18H4.392V7.18ZM10.524 7.18C11.9379 7.18 12.8146 7.53278 13.3449 8.06311C13.8752 8.59343 14.228 9.47014 14.228 10.884H16.228C16.228 9.16185 15.7968 7.68657 14.7591 6.64889C13.7214 5.61121 12.2461 5.18 10.524 5.18V7.18ZM14.228 10.884V12.676H16.228V10.884H14.228ZM14.228 12.676C14.228 13.1954 14.0748 13.535 13.8209 13.7889L15.2351 15.2031C15.9146 14.5237 16.228 13.6499 16.228 12.676H14.228ZM13.8209 13.7889L12.8409 14.7689L14.2551 16.1831L15.2351 15.2031L13.8209 13.7889ZM12.8409 16.1831L13.8209 17.1631L15.2351 15.7489L14.2551 14.7689L12.8409 16.1831ZM13.8209 17.1631C14.0748 17.417 14.228 17.7566 14.228 18.276H16.228C16.228 17.3021 15.9146 16.4283 15.2351 15.7489L13.8209 17.1631ZM14.228 18.276V20.796H16.228V18.276H14.228ZM14.228 20.796C14.228 22.2099 13.8752 23.0866 13.3449 23.6169C12.8146 24.1472 11.9379 24.5 10.524 24.5V26.5C12.2461 26.5 13.7214 26.0688 14.7591 25.0311C15.7968 23.9934 16.228 22.5181 16.228 20.796H14.228ZM10.524 24.5H4.112V26.5H10.524V24.5ZM4.72512 24.71L2.84912 23.254L1.62288 24.834L3.49888 26.29L4.72512 24.71Z" fill="white" mask="url(#path-1-outside-1_1_188)"/>
<rect x="17.5" y="17.395" width="396" height="1" fill="white"/>
</svg>
