<svg width="50" height="51" viewBox="0 0 50 51" fill="none" xmlns="http://www.w3.org/2000/svg">
<rect y="0.290039" width="50" height="50" rx="25" fill="#FF3D24" fill-opacity="0.7"/>
<rect y="0.300049" width="50" height="50" rx="25" fill="#FF3D24" fill-opacity="0.7"/>
<rect y="0.300049" width="50" height="50" rx="25" fill="#FF3D24" fill-opacity="0.7"/>
<g clip-path="url(#clip0_1_172)">
<g clip-path="url(#clip1_1_172)">
<path d="M23.1944 26.2361H26.2061V23.8287H19.9095L20.8219 21.786C20.9176 21.5645 21.1349 21.4213 21.3756 21.4213H25.089C24.9729 20.8128 24.9711 20.2368 25.0915 19.6157H21.3756C20.4115 19.6157 19.543 20.1887 19.1632 21.0746L17.8584 24.12C17.0983 24.525 16.5741 25.3165 16.5741 26.2361V27.4398C16.5741 28.3269 17.0616 29.0949 17.7778 29.5126V31.6528C17.7778 32.3166 18.3176 32.8565 18.9815 32.8565H20.787C21.4509 32.8565 21.9907 32.3166 21.9907 31.6528V29.8472H26.2061V27.4398H23.1944C22.8622 27.4398 22.5926 27.1702 22.5926 26.838C22.5926 26.5057 22.8622 26.2361 23.1944 26.2361ZM19.8843 28.3426C19.0531 28.3426 18.3796 27.6691 18.3796 26.838C18.3796 26.0068 19.0531 25.3333 19.8843 25.3333C20.7154 25.3333 21.3889 26.0068 21.3889 26.838C21.3889 27.6691 20.7154 28.3426 19.8843 28.3426Z" fill="white"/>
<path d="M33.379 19.9028C33.1304 18.4782 31.9351 17.4593 31.2502 17.2516C31.1347 17.2167 31.021 17.3082 31.021 17.4286V20.4481C31.021 20.6762 30.8921 20.8844 30.6881 20.9861L30.0862 21.2871C29.9165 21.3719 29.7173 21.3719 29.5482 21.2871L28.9464 20.9861C28.7423 20.8844 28.6135 20.6756 28.6135 20.4481V17.4286C28.6135 17.3076 28.4992 17.2161 28.383 17.2516C27.6975 17.4641 26.5028 18.4987 26.2561 19.9112C26.0442 21.1246 26.4992 22.3144 27.2173 23.033C27.3352 23.151 27.4092 23.3032 27.4092 23.47V31.6534C27.4092 32.9823 28.4865 34.0595 29.8154 34.0595C31.1443 34.0595 32.2216 32.9823 32.2216 31.6534L32.2234 23.473C32.2234 23.3045 32.2999 23.1492 32.419 23.0294C33.1419 22.3072 33.5902 21.1119 33.379 19.9028ZM29.8202 32.5555C29.3219 32.5555 28.9175 32.1511 28.9175 31.6528C28.9175 31.1544 29.3219 30.75 29.8202 30.75C30.3186 30.75 30.723 31.1544 30.723 31.6528C30.723 32.1511 30.3186 32.5555 29.8202 32.5555Z" fill="white"/>
</g>
</g>
<defs>
<clipPath id="clip0_1_172">
<rect width="20" height="20" fill="white" transform="translate(15 15.3)"/>
</clipPath>
<clipPath id="clip1_1_172">
<rect width="20" height="20" fill="white" transform="translate(15 15.3)"/>
</clipPath>
</defs>
</svg>
