<svg width="50" height="51" viewBox="0 0 50 51" fill="none" xmlns="http://www.w3.org/2000/svg">
<rect y="0.290039" width="50" height="50" rx="25" fill="#FF3D24" fill-opacity="0.7"/>
<rect y="0.300049" width="50" height="50" rx="25" fill="#FF3D24" fill-opacity="0.7"/>
<rect y="0.300049" width="50" height="50" rx="25" fill="#FF3D24" fill-opacity="0.7"/>
<g clip-path="url(#clip0_1_147)">
<g clip-path="url(#clip1_1_147)">
<g clip-path="url(#clip2_1_147)">
<path d="M25 16.0046C19.7108 16.0046 15.3704 20.3451 15.3704 25.6343C15.3704 30.9234 19.7108 35.2639 25 35.2639C30.2892 35.2639 34.6296 30.9234 34.6296 25.6343C34.6296 20.3451 30.2892 16.0046 25 16.0046ZM26.6171 30.9784C26.5264 31.1456 25.8837 32.0911 25.4695 32.7181C25.2993 32.9736 24.9509 33.0495 24.687 32.8745C24.4275 32.7015 24.3575 32.3516 24.5305 32.0921L25.0741 31.2767H23.8715C23.8712 31.2767 23.8702 31.2763 23.8699 31.2763C23.4395 31.2749 23.1568 30.7673 23.4021 30.3994L24.5306 28.7067C24.7024 28.4467 25.053 28.3772 25.313 28.5502C25.5725 28.7233 25.6425 29.0731 25.4695 29.3327L24.9258 30.1481H26.1284C26.5392 30.1481 26.8228 30.6018 26.6171 30.9784ZM29.3789 30.0391C29.094 30.1587 28.7612 30.027 28.6394 29.7393C28.0195 28.2736 26.5907 27.327 25 27.327C23.4093 27.327 21.9805 28.2736 21.3606 29.7393C21.239 30.0273 20.907 30.16 20.6211 30.0391C20.334 29.9178 20.2001 29.5867 20.3213 29.2996C21.0762 27.5147 22.7674 26.3418 24.6824 26.2221L26.7875 23.0644C26.9599 22.8043 27.3087 22.7349 27.5699 22.9078C27.8294 23.0809 27.8994 23.4308 27.7264 23.6903L25.9828 26.3057C27.6164 26.6272 29.0126 27.7249 29.6787 29.2996C29.7998 29.5867 29.666 29.9178 29.3789 30.0391ZM31.7576 28.4879C31.6361 28.7733 31.307 28.9087 31.0175 28.7872C30.731 28.6654 30.5971 28.3342 30.7184 28.0471C30.9683 27.458 31.0928 26.8344 31.1505 26.1984H30.6424C30.3305 26.1984 30.0781 25.9461 30.0781 25.6342C30.0781 25.3224 30.3305 25.07 30.6424 25.07H31.178C31.1127 24.3488 30.9207 23.6653 30.629 23.036L30.1685 23.3018C29.9015 23.456 29.5553 23.3674 29.3976 23.0952C29.2417 22.8252 29.3343 22.4802 29.6043 22.3243L30.0645 22.0587C29.6559 21.4818 29.1525 20.9783 28.5756 20.5698L28.3099 21.03C28.1525 21.3018 27.8064 21.3911 27.5391 21.2366C27.2691 21.0807 27.1765 20.7358 27.3324 20.4658L27.5983 20.0053C26.969 19.7135 26.2855 19.5216 25.5643 19.4563V19.9919C25.5643 20.3038 25.3119 20.5561 25.0001 20.5561C24.6881 20.5561 24.4358 20.3038 24.4358 19.9919V19.4563C23.7146 19.5216 23.0311 19.7136 22.4018 20.0053L22.6676 20.4658C22.8235 20.7358 22.731 21.0807 22.461 21.2366C22.194 21.3908 21.8478 21.3022 21.6901 21.03L21.4245 20.5698C20.8476 20.9783 20.3441 21.4818 19.9356 22.0587L20.3958 22.3243C20.6658 22.4803 20.7584 22.8252 20.6024 23.0952C20.445 23.367 20.0989 23.4562 19.8316 23.3018L19.3711 23.036C19.0793 23.6653 18.8874 24.3488 18.8221 25.07H19.3576C19.6695 25.07 19.9219 25.3224 19.9219 25.6342C19.9219 25.9461 19.6695 26.1984 19.3576 26.1984H18.8494C18.9071 26.8343 19.0317 27.458 19.2816 28.0471C19.4028 28.3342 19.2689 28.6654 18.9824 28.7872C18.6964 28.9073 18.3647 28.7755 18.2424 28.4879C17.8594 27.5833 17.6649 26.6233 17.6649 25.6343C17.6649 21.6055 20.9648 18.2992 25 18.2992C28.9951 18.2992 32.335 21.5635 32.335 25.6343C32.335 26.6233 32.1406 27.5833 31.7576 28.4879Z" fill="white"/>
</g>
</g>
</g>
<defs>
<clipPath id="clip0_1_147">
<rect width="20" height="20" fill="white" transform="translate(15 15.3)"/>
</clipPath>
<clipPath id="clip1_1_147">
<rect width="20" height="20" fill="white" transform="translate(15 15.3)"/>
</clipPath>
<clipPath id="clip2_1_147">
<rect width="19.2593" height="20" fill="white" transform="translate(15.3704 15.3)"/>
</clipPath>
</defs>
</svg>
