<svg width="50" height="51" viewBox="0 0 50 51" fill="none" xmlns="http://www.w3.org/2000/svg">
<rect y="0.290039" width="50" height="50" rx="25" fill="#FF3D24" fill-opacity="0.7"/>
<rect y="0.300049" width="50" height="50" rx="25" fill="#FF3D24" fill-opacity="0.7"/>
<rect y="0.300049" width="50" height="50" rx="25" fill="#FF3D24" fill-opacity="0.7"/>
<g clip-path="url(#clip0_1_194)">
<g clip-path="url(#clip1_1_194)">
<g clip-path="url(#clip2_1_194)">
<path fill-rule="evenodd" clip-rule="evenodd" d="M16.4421 27.84C16.318 27.84 16.2164 27.7384 16.2164 27.6143C16.2164 27.4 16.2164 27.1291 16.2052 26.8584C16.1713 25.7076 16.1149 24.1957 16.5549 23.2818C18.3601 23.7331 20.6392 23.8121 22.2864 23.8347H22.6136L22.1398 24.8388C22.0044 25.008 21.8803 25.2224 21.79 25.4481L21.8013 25.4255H20.831C20.5489 25.4255 20.312 25.6511 20.312 25.9332V26.4071C20.312 26.6891 20.5489 26.9148 20.831 26.9148H21.4854C21.4628 27.2194 21.4515 27.5354 21.4402 27.84H16.4421ZM21.6546 25.8655C21.6095 26.0573 21.5644 26.2604 21.5305 26.4635H20.831C20.7859 26.4635 20.7633 26.4409 20.7633 26.4071V25.9332C20.7633 25.8994 20.7859 25.8768 20.831 25.8768H21.6546V25.8655ZM18.5745 26.802C17.9314 26.802 17.4237 26.283 17.4237 25.6511C17.4237 25.0194 17.9314 24.5003 18.5745 24.5003C19.2063 24.5003 19.714 25.0194 19.714 25.6511C19.714 26.283 19.2063 26.802 18.5745 26.802ZM18.5745 24.9517C18.1796 24.9517 17.8637 25.2562 17.8637 25.6511C17.8637 26.0348 18.1796 26.3507 18.5745 26.3507C18.9581 26.3507 19.274 26.0348 19.274 25.6511C19.274 25.2562 18.9581 24.9517 18.5745 24.9517ZM16.8144 22.8869L17.9427 20.5176V20.5063C18.5745 19.4232 19.7027 19.5135 19.872 19.536H24.4865C24.6445 19.5135 25.7841 19.4232 26.4046 20.5063C26.4158 20.5063 26.4158 20.5176 26.4158 20.5176L26.7656 21.2622H25.5922C25.5245 21.2622 25.4568 21.251 25.3892 21.251C24.5091 21.251 23.7193 21.6797 23.268 22.4582C23.2567 22.4808 23.2567 22.4808 23.2455 22.5033L22.828 23.3834C22.6249 23.3834 22.388 23.3834 22.2864 23.3834C20.7182 23.3721 18.5406 23.2931 16.8144 22.8869Z" fill="white"/>
<path fill-rule="evenodd" clip-rule="evenodd" d="M18.5181 29.5663H17.0852C16.6113 29.5663 16.2164 29.1714 16.2164 28.6975V28.2462C16.2841 28.2688 16.3631 28.2913 16.4421 28.2913L16.4534 28.2801H19.3755V28.6975C19.3755 29.1714 18.9919 29.5663 18.5181 29.5663Z" fill="white"/>
<path fill-rule="evenodd" clip-rule="evenodd" d="M16.3744 22.7741L15.8216 22.6162C15.4944 22.5259 15.3026 22.1084 15.3928 21.691C15.4718 21.3412 15.7313 21.093 16.036 21.093C16.0811 21.093 16.1375 21.093 16.1939 21.1156L16.9047 21.3412C16.9498 21.3525 16.9837 21.3864 17.0175 21.4202L16.3744 22.7741Z" fill="white"/>
<path fill-rule="evenodd" clip-rule="evenodd" d="M33.6254 30.0174H22.1511C22.027 30.0174 21.9367 29.916 21.9367 29.7918C21.9367 29.5774 21.9254 29.3067 21.9141 29.0359C21.8803 27.7949 21.8239 26.1363 22.388 25.2563C24.1932 25.7301 26.3256 25.9896 27.9954 26.0122H28.0067C29.6314 25.9896 31.6961 25.6173 33.3546 25.1998C33.9526 26.046 33.9075 27.761 33.8623 29.0359C33.851 29.3067 33.851 29.5774 33.851 29.7918C33.851 29.916 33.7495 30.0174 33.6254 30.0174ZM24.2835 28.9795C23.6516 28.9795 23.1327 28.4605 23.1327 27.8287C23.1327 27.1969 23.6516 26.6779 24.2835 26.6779C24.9153 26.6779 25.4343 27.1969 25.4343 27.8287C25.4343 28.4605 24.9153 28.9795 24.2835 28.9795ZM29.259 29.0923H26.54C26.2579 29.0923 26.0322 28.8666 26.0322 28.5846V28.1107C26.0322 27.8287 26.2579 27.603 26.54 27.603H29.259C29.5299 27.603 29.7667 27.8287 29.7667 28.1107V28.5846C29.7667 28.8666 29.5299 29.0923 29.259 29.0923ZM26.54 28.0543C26.5061 28.0543 26.4723 28.0769 26.4723 28.1107V28.5846C26.4723 28.6185 26.5061 28.6523 26.54 28.6523H29.259C29.2929 28.6523 29.3155 28.6185 29.3155 28.5846V28.1107C29.3155 28.0769 29.2929 28.0543 29.259 28.0543H26.54ZM31.5043 28.9795C30.8724 28.9795 30.3647 28.4605 30.3647 27.8287C30.3647 27.1969 30.8724 26.6779 31.5043 26.6779C32.1474 26.6779 32.6551 27.1969 32.6551 27.8287C32.6551 28.4605 32.1474 28.9795 31.5043 28.9795ZM31.5043 27.1292C31.1207 27.1292 30.8047 27.4451 30.8047 27.8287C30.8047 28.2123 31.1207 28.5282 31.5043 28.5282C31.8992 28.5282 32.2151 28.2123 32.2151 27.8287C32.2151 27.4451 31.8992 27.1292 31.5043 27.1292ZM24.2835 27.1292C23.8999 27.1292 23.5839 27.4451 23.5839 27.8287C23.5839 28.2123 23.8999 28.5282 24.2835 28.5282C24.667 28.5282 24.983 28.2123 24.983 27.8287C24.983 27.4451 24.667 27.1292 24.2835 27.1292ZM22.6249 24.8614L23.6516 22.6951C23.6516 22.6951 23.6516 22.6838 23.663 22.6838C24.1707 21.7925 25.0394 21.7023 25.3892 21.7023C25.4794 21.7023 25.5471 21.7136 25.581 21.7136H30.1955C30.2293 21.7136 30.297 21.7023 30.3873 21.7023C30.737 21.7023 31.6059 21.7925 32.1248 22.6838V22.6951L33.1177 24.7937C31.5268 25.1998 29.5524 25.5496 27.9954 25.5609C26.4046 25.5496 24.3512 25.3014 22.6249 24.8614Z" fill="white"/>
<path fill-rule="evenodd" clip-rule="evenodd" d="M32.9824 31.7437H31.5495C31.0756 31.7437 30.6807 31.3488 30.6807 30.875V30.4688H33.6254C33.7044 30.4688 33.7721 30.4462 33.8511 30.4237V30.875C33.8511 31.3488 33.4562 31.7437 32.9824 31.7437Z" fill="white"/>
<path fill-rule="evenodd" clip-rule="evenodd" d="M24.2271 31.7437H22.7942C22.3203 31.7437 21.9367 31.3488 21.9367 30.875V30.4237C22.0044 30.4462 22.0721 30.4688 22.1511 30.4688H25.0958V30.875C25.0958 31.3488 24.7009 31.7437 24.2271 31.7437Z" fill="white"/>
<path fill-rule="evenodd" clip-rule="evenodd" d="M32.9485 23.3834C32.971 23.3157 33.0275 23.2593 33.0952 23.2367L33.806 23.0111C33.8624 22.9998 33.9075 22.9885 33.9639 22.9885C34.2573 22.9885 34.5167 23.2367 34.607 23.5865C34.6973 24.0039 34.5055 24.4214 34.1783 24.5116L33.5578 24.6809L32.9485 23.3834Z" fill="white"/>
</g>
</g>
</g>
<defs>
<clipPath id="clip0_1_194">
<rect width="20" height="20" fill="white" transform="translate(15 15.3)"/>
</clipPath>
<clipPath id="clip1_1_194">
<rect width="20" height="20" fill="white" transform="translate(15 15.3)"/>
</clipPath>
<clipPath id="clip2_1_194">
<rect width="19.2593" height="20" fill="white" transform="translate(15.3704 15.3)"/>
</clipPath>
</defs>
</svg>
