<svg width="51" height="51" viewBox="0 0 51 51" fill="none" xmlns="http://www.w3.org/2000/svg">
<rect x="0.5" y="0.5" width="50" height="50" rx="25" fill="#FF3D24" fill-opacity="0.7"/>
<rect x="0.5" y="0.5" width="50" height="50" rx="25" fill="#FF3D24" fill-opacity="0.7"/>
<rect x="0.5" y="0.5" width="50" height="50" rx="25" fill="#FF3D24" fill-opacity="0.7"/>
<g clip-path="url(#clip0_1_793)">
<g clip-path="url(#clip1_1_793)">
<g clip-path="url(#clip2_1_793)">
<path d="M33.3679 28.4786C32.2017 28.4786 31.0566 28.2963 29.9716 27.9377C29.4399 27.7564 28.7863 27.9227 28.4618 28.256L26.3201 29.8727C23.8363 28.5469 22.3063 27.0174 20.9986 24.5523L22.5678 22.4664C22.9755 22.0593 23.1217 21.4645 22.9465 20.9065C22.5864 19.8157 22.4034 18.6712 22.4034 17.5046C22.4035 16.6617 21.7178 15.9761 20.8751 15.9761H17.3771C16.5343 15.9761 15.8486 16.6617 15.8486 17.5045C15.8486 27.1647 23.7077 35.0237 33.3679 35.0237C34.2106 35.0237 34.8963 34.3381 34.8963 33.4953V30.007C34.8963 29.1644 34.2105 28.4786 33.3679 28.4786Z" fill="white"/>
</g>
</g>
</g>
<defs>
<clipPath id="clip0_1_793">
<rect width="20" height="20" fill="white" transform="translate(15.5 15.5)"/>
</clipPath>
<clipPath id="clip1_1_793">
<rect width="20" height="20" fill="white" transform="translate(15.5 15.5)"/>
</clipPath>
<clipPath id="clip2_1_793">
<rect width="20" height="20" fill="white" transform="translate(15.5 15.5)"/>
</clipPath>
</defs>
</svg>
