<svg width="755" height="167" viewBox="0 0 755 167" fill="none" xmlns="http://www.w3.org/2000/svg">
<g opacity="0.3">
<path d="M38.8297 97.02V58.08C38.8297 45.76 44.9897 39.6 57.3097 39.6H82.3897C94.7097 39.6 100.87 45.76 100.87 58.08V97.02C100.87 109.34 94.7097 115.5 82.3897 115.5H57.3097C44.9897 115.5 38.8297 109.34 38.8297 97.02ZM54.6697 97.9C54.6697 100.1 55.7697 101.2 57.9697 101.2H81.7297C83.9297 101.2 85.0297 100.1 85.0297 97.9V57.2C85.0297 55 83.9297 53.9 81.7297 53.9H57.9697C55.7697 53.9 54.6697 55 54.6697 57.2V97.9ZM143.136 97.02V58.08C143.136 45.76 149.296 39.6 161.616 39.6H186.696C199.016 39.6 205.176 45.76 205.176 58.08V97.02C205.176 107.067 201.033 112.933 192.746 114.62L199.896 128.7L198.026 132H184.386L176.026 115.5H161.616C149.296 115.5 143.136 109.34 143.136 97.02ZM158.976 97.9C158.976 100.1 160.076 101.2 162.276 101.2H186.036C188.236 101.2 189.336 100.1 189.336 97.9V57.2C189.336 55 188.236 53.9 186.036 53.9H162.276C160.076 53.9 158.976 55 158.976 57.2V97.9ZM221.457 97.02V39.6H237.297V97.9C237.297 100.1 238.397 101.2 240.597 101.2H262.157C264.357 101.2 265.457 100.1 265.457 97.9V39.6H281.297V97.02C281.297 109.34 275.137 115.5 262.817 115.5H239.937C227.617 115.5 221.457 109.34 221.457 97.02ZM298.709 115.5V39.6H350.629V53.9H314.549V69.3H347.329V83.6H314.549V101.2H350.629V115.5H298.709ZM391.521 115.5V39.6H420.341C441.021 39.6 451.361 49.94 451.361 70.62V84.48C451.361 105.16 441.021 115.5 420.341 115.5H391.521ZM407.361 101.2H421.221C430.755 101.2 435.521 96.4333 435.521 86.9V68.2C435.521 58.6667 430.755 53.9 421.221 53.9H407.361V101.2ZM467.254 115.5V39.6H483.094V115.5H467.254ZM496.692 115.5V103.18L533.212 53.9H497.792V39.6H553.232V51.92L516.712 101.2H554.332V115.5H496.692ZM568.016 115.5V39.6H619.936V53.9H583.856V69.3H616.636V83.6H583.856V101.2H619.936V115.5H568.016ZM634.402 115.5V39.6H653.322L674.662 85.14L696.002 39.6H714.922V115.5H699.082V67.54L681.262 105.6H668.062L650.242 67.54V115.5H634.402Z" fill="url(#paint0_linear_1_382)"/>
</g>
<path d="M1.364 18.676L2.228 17.38H8.324L15.86 44.26H16.628L24.212 17.38H30.26L31.124 18.676L21.716 50.5H10.772L1.364 18.676ZM35.936 50.5V17.38H58.592V23.62H42.848V30.34H57.152V36.58H42.848V44.26H58.592V50.5H35.936ZM63.4648 42.436V36.1H70.3768V42.82C70.3768 43.78 70.8568 44.26 71.8168 44.26H78.3448C79.3048 44.26 79.7848 43.78 79.7848 42.82V23.62H70.7608V17.38H86.6968V42.436C86.6968 47.812 84.0088 50.5 78.6328 50.5H71.5288C66.1528 50.5 63.4648 47.812 63.4648 42.436ZM91.2234 49.204L101.063 17.38H111.623L121.463 49.204L120.599 50.5H114.839L112.823 43.78H99.8634L97.8474 50.5H92.0874L91.2234 49.204ZM101.735 37.54H110.951L106.727 23.62H105.959L101.735 37.54ZM137.315 42.436V25.444C137.315 20.068 140.003 17.38 145.379 17.38H156.323C161.699 17.38 164.387 20.068 164.387 25.444V42.436C164.387 47.812 161.699 50.5 156.323 50.5H145.379C140.003 50.5 137.315 47.812 137.315 42.436ZM144.227 42.82C144.227 43.78 144.707 44.26 145.667 44.26H156.035C156.995 44.26 157.475 43.78 157.475 42.82V25.06C157.475 24.1 156.995 23.62 156.035 23.62H145.667C144.707 23.62 144.227 24.1 144.227 25.06V42.82ZM182.831 42.436V25.444C182.831 20.068 185.519 17.38 190.895 17.38H201.839C207.215 17.38 209.903 20.068 209.903 25.444V42.436C209.903 46.82 208.095 49.38 204.479 50.116L207.599 56.26L206.783 57.7H200.831L197.183 50.5H190.895C185.519 50.5 182.831 47.812 182.831 42.436ZM189.743 42.82C189.743 43.78 190.223 44.26 191.183 44.26H201.551C202.511 44.26 202.991 43.78 202.991 42.82V25.06C202.991 24.1 202.511 23.62 201.551 23.62H191.183C190.223 23.62 189.743 24.1 189.743 25.06V42.82ZM217.007 42.436V17.38H223.919V42.82C223.919 43.78 224.399 44.26 225.359 44.26H234.767C235.727 44.26 236.207 43.78 236.207 42.82V17.38H243.119V42.436C243.119 47.812 240.431 50.5 235.055 50.5H225.071C219.695 50.5 217.007 47.812 217.007 42.436ZM250.717 50.5V17.38H273.373V23.62H257.629V30.34H271.933V36.58H257.629V44.26H273.373V50.5H250.717ZM237.967 110.5V77.38H260.623V83.62H244.879V90.34H259.183V96.58H244.879V104.26H260.623V110.5H237.967ZM265.496 108.004V104.26H280.376C281.336 104.26 281.816 103.78 281.816 102.82V99.364C281.816 98.436 281.416 97.908 280.616 97.78L271.256 95.86C267.416 95.092 265.496 92.516 265.496 88.132V85.444C265.496 80.068 268.184 77.38 273.56 77.38H284.552L287.768 79.876V83.62H273.848C272.888 83.62 272.408 84.1 272.408 85.06V88.18C272.408 89.076 272.808 89.604 273.608 89.764L282.968 91.636C286.808 92.404 288.728 94.98 288.728 99.364V102.436C288.728 107.812 286.04 110.5 280.664 110.5H268.712L265.496 108.004ZM292.371 83.62V77.38H319.443V83.62H309.363V110.5H302.451V83.62H292.371ZM319.083 109.204L328.923 77.38H339.483L349.323 109.204L348.459 110.5H342.699L340.683 103.78H327.723L325.707 110.5H319.947L319.083 109.204ZM329.595 97.54H338.811L334.587 83.62H333.819L329.595 97.54ZM325.707 71.908L328.875 68.74C329.579 68.036 330.491 67.684 331.611 67.684C332.731 67.684 333.643 68.036 334.347 68.74L336.363 70.756C336.523 70.916 336.667 70.996 336.795 70.996C336.923 70.996 337.067 70.916 337.227 70.756L339.867 68.116L342.699 70.948L339.531 74.068C338.827 74.804 337.915 75.172 336.795 75.172C335.675 75.172 334.747 74.804 334.011 74.068L332.043 72.1C331.883 71.94 331.739 71.86 331.611 71.86C331.483 71.86 331.339 71.94 331.179 72.1L328.539 74.74L325.707 71.908ZM353.644 102.436V85.444C353.644 80.068 356.332 77.38 361.708 77.38H372.652C378.028 77.38 380.716 80.068 380.716 85.444V102.436C380.716 107.812 378.028 110.5 372.652 110.5H361.708C356.332 110.5 353.644 107.812 353.644 102.436ZM360.556 102.82C360.556 103.78 361.036 104.26 361.996 104.26H372.364C373.324 104.26 373.804 103.78 373.804 102.82V85.06C373.804 84.1 373.324 83.62 372.364 83.62H361.996C361.036 83.62 360.556 84.1 360.556 85.06V102.82ZM399.639 110.5V77.38H412.215C421.239 77.38 425.751 81.892 425.751 90.916V96.964C425.751 105.988 421.239 110.5 412.215 110.5H399.639ZM406.551 104.26H412.599C416.759 104.26 418.839 102.18 418.839 98.02V89.86C418.839 85.7 416.759 83.62 412.599 83.62H406.551V104.26ZM432.686 110.5V77.38H439.598V110.5H432.686ZM445.532 110.5V105.124L461.468 83.62H446.012V77.38H470.204V82.756L454.268 104.26H470.684V110.5H445.532ZM476.655 110.5V77.38H499.311V83.62H483.567V90.34H497.871V96.58H483.567V104.26H499.311V110.5H476.655ZM505.624 110.5V77.38H513.112L526.264 99.124V77.38H533.176V110.5H525.688L512.536 88.756V110.5H505.624ZM541.061 110.5V77.38H553.637C562.661 77.38 567.173 81.892 567.173 90.916V96.964C567.173 105.988 562.661 110.5 553.637 110.5H541.061ZM547.973 104.26H554.021C558.181 104.26 560.261 102.18 560.261 98.02V89.86C560.261 85.7 558.181 83.62 554.021 83.62H547.973V104.26ZM573.628 102.436V85.444C573.628 80.068 576.316 77.38 581.692 77.38H592.636C598.012 77.38 600.7 80.068 600.7 85.444V102.436C600.7 107.812 598.012 110.5 592.636 110.5H581.692C576.316 110.5 573.628 107.812 573.628 102.436ZM580.54 102.82C580.54 103.78 581.02 104.26 581.98 104.26H592.348C593.308 104.26 593.788 103.78 593.788 102.82V85.06C593.788 84.1 593.308 83.62 592.348 83.62H581.98C581.02 83.62 580.54 84.1 580.54 85.06V102.82Z" fill="white"/>
<path d="M291.217 50.5V17.38H298.705L311.857 39.124V17.38H318.769V50.5H311.281L298.129 28.756V50.5H291.217ZM326.175 42.436V25.444C326.175 20.068 328.863 17.38 334.239 17.38H345.183C350.559 17.38 353.247 20.068 353.247 25.444V42.436C353.247 47.812 350.559 50.5 345.183 50.5H334.239C328.863 50.5 326.175 47.812 326.175 42.436ZM333.087 42.82C333.087 43.78 333.567 44.26 334.527 44.26H344.895C345.855 44.26 346.335 43.78 346.335 42.82V25.06C346.335 24.1 345.855 23.62 344.895 23.62H334.527C333.567 23.62 333.087 24.1 333.087 25.06V42.82ZM359.199 48.004V44.26H374.079C375.039 44.26 375.519 43.78 375.519 42.82V39.364C375.519 38.436 375.119 37.908 374.319 37.78L364.959 35.86C361.119 35.092 359.199 32.516 359.199 28.132V25.444C359.199 20.068 361.887 17.38 367.263 17.38H378.255L381.471 19.876V23.62H367.551C366.591 23.62 366.111 24.1 366.111 25.06V28.18C366.111 29.076 366.511 29.604 367.311 29.764L376.671 31.636C380.511 32.404 382.431 34.98 382.431 39.364V42.436C382.431 47.812 379.743 50.5 374.367 50.5H362.415L359.199 48.004ZM387.418 48.004V44.26H402.298C403.258 44.26 403.738 43.78 403.738 42.82V39.364C403.738 38.436 403.338 37.908 402.538 37.78L393.178 35.86C389.338 35.092 387.418 32.516 387.418 28.132V25.444C387.418 20.068 390.106 17.38 395.482 17.38H406.474L409.69 19.876V23.62H395.77C394.81 23.62 394.33 24.1 394.33 25.06V28.18C394.33 29.076 394.73 29.604 395.53 29.764L404.89 31.636C408.73 32.404 410.65 34.98 410.65 39.364V42.436C410.65 47.812 407.962 50.5 402.586 50.5H390.634L387.418 48.004ZM416.597 42.436V25.444C416.597 20.068 419.285 17.38 424.661 17.38H435.605C440.981 17.38 443.669 20.068 443.669 25.444V42.436C443.669 47.812 440.981 50.5 435.605 50.5H424.661C419.285 50.5 416.597 47.812 416.597 42.436ZM423.509 42.82C423.509 43.78 423.989 44.26 424.949 44.26H435.317C436.277 44.26 436.757 43.78 436.757 42.82V25.06C436.757 24.1 436.277 23.62 435.317 23.62H424.949C423.989 23.62 423.509 24.1 423.509 25.06V42.82ZM449.621 48.004V44.26H464.501C465.461 44.26 465.941 43.78 465.941 42.82V39.364C465.941 38.436 465.541 37.908 464.741 37.78L455.381 35.86C451.541 35.092 449.621 32.516 449.621 28.132V25.444C449.621 20.068 452.309 17.38 457.685 17.38H468.677L471.893 19.876V23.62H457.973C457.013 23.62 456.533 24.1 456.533 25.06V28.18C456.533 29.076 456.933 29.604 457.733 29.764L467.093 31.636C470.933 32.404 472.853 34.98 472.853 39.364V42.436C472.853 47.812 470.165 50.5 464.789 50.5H452.837L449.621 48.004ZM3.956 102.436V85.444C3.956 80.068 6.644 77.38 12.02 77.38H24.836L28.052 79.876V83.62H12.308C11.348 83.62 10.868 84.1 10.868 85.06V102.82C10.868 103.78 11.348 104.26 12.308 104.26H28.052V108.004L24.836 110.5H12.02C6.644 110.5 3.956 107.812 3.956 102.436ZM34.3891 110.5V77.38H41.3011V104.26H55.6051V110.5H34.3891ZM60.686 110.5V77.38H67.598V110.5H60.686ZM75.4516 110.5V77.38H98.1076V83.62H82.3636V90.34H96.6676V96.58H82.3636V104.26H98.1076V110.5H75.4516ZM104.42 110.5V77.38H111.908L125.06 99.124V77.38H131.972V110.5H124.484L111.332 88.756V110.5H104.42ZM137.074 83.62V77.38H164.146V83.62H154.066V110.5H147.154V83.62H137.074ZM169.249 110.5V77.38H191.905V83.62H176.161V90.34H190.465V96.58H176.161V104.26H191.905V110.5H169.249ZM196.777 108.004V104.26H211.657C212.617 104.26 213.097 103.78 213.097 102.82V99.364C213.097 98.436 212.697 97.908 211.897 97.78L202.537 95.86C198.697 95.092 196.777 92.516 196.777 88.132V85.444C196.777 80.068 199.465 77.38 204.841 77.38H215.833L219.049 79.876V83.62H205.129C204.169 83.62 203.689 84.1 203.689 85.06V88.18C203.689 89.076 204.089 89.604 204.889 89.764L214.249 91.636C218.089 92.404 220.009 94.98 220.009 99.364V102.436C220.009 107.812 217.321 110.5 211.945 110.5H199.993L196.777 108.004Z" fill="#B22B19"/>
<defs>
<linearGradient id="paint0_linear_1_382" x1="30.4526" y1="83.5" x2="724.453" y2="83.5" gradientUnits="userSpaceOnUse">
<stop stop-color="#222222"/>
<stop offset="0.5" stop-color="white"/>
<stop offset="1" stop-color="#222222"/>
</linearGradient>
</defs>
</svg>
