<svg width="440" height="368" viewBox="0 0 440 368" fill="none" xmlns="http://www.w3.org/2000/svg">
<g opacity="0.999989">
<mask id="path-1-outside-1_1_136" maskUnits="userSpaceOnUse" x="14.5" y="31.5" width="15" height="22" fill="black">
<rect fill="white" x="14.5" y="31.5" width="15" height="22"/>
<path d="M15.74 52.5V48.86H20.024V36.82H16.44V34.636L18.316 33.18H24.056V48.86H27.892V52.5H15.74Z"/>
</mask>
<path d="M15.74 52.5H14.74V53.5H15.74V52.5ZM15.74 48.86V47.86H14.74V48.86H15.74ZM20.024 48.86V49.86H21.024V48.86H20.024ZM20.024 36.82H21.024V35.82H20.024V36.82ZM16.44 36.82H15.44V37.82H16.44V36.82ZM16.44 34.636L15.8269 33.846L15.44 34.1463V34.636H16.44ZM18.316 33.18V32.18H17.9735L17.7029 32.39L18.316 33.18ZM24.056 33.18H25.056V32.18H24.056V33.18ZM24.056 48.86H23.056V49.86H24.056V48.86ZM27.892 48.86H28.892V47.86H27.892V48.86ZM27.892 52.5V53.5H28.892V52.5H27.892ZM16.74 52.5V48.86H14.74V52.5H16.74ZM15.74 49.86H20.024V47.86H15.74V49.86ZM21.024 48.86V36.82H19.024V48.86H21.024ZM20.024 35.82H16.44V37.82H20.024V35.82ZM17.44 36.82V34.636H15.44V36.82H17.44ZM17.0531 35.426L18.9291 33.97L17.7029 32.39L15.8269 33.846L17.0531 35.426ZM18.316 34.18H24.056V32.18H18.316V34.18ZM23.056 33.18V48.86H25.056V33.18H23.056ZM24.056 49.86H27.892V47.86H24.056V49.86ZM26.892 48.86V52.5H28.892V48.86H26.892ZM27.892 51.5H15.74V53.5H27.892V51.5Z" fill="white" mask="url(#path-1-outside-1_1_136)"/>
<rect x="30.5" y="44.395" width="396" height="1" fill="white"/>
<rect width="413" height="280.6" transform="translate(13.5 87.29)" fill="black"/>
<path d="M85.8174 228.134L91.5574 209.57H97.7174L103.457 228.134L102.953 228.89H99.5934L98.4174 224.97H90.8574L89.6814 228.89H86.3214L85.8174 228.134ZM91.9494 221.33H97.3254L94.8614 213.21H94.4134L91.9494 221.33ZM103.919 214.694L104.311 214.106H107.643L111.059 225.53H111.339L114.755 214.106H118.087L118.479 214.694L114.027 228.89H108.371L103.919 214.694ZM124.468 228.89C121.444 228.89 119.932 227.406 119.932 224.438C119.932 221.47 121.444 219.986 124.468 219.986H128.332V218.362C128.332 217.765 128.033 217.466 127.436 217.466H121.5V215.366L123.18 214.106H127.66C130.684 214.106 132.196 215.618 132.196 218.642V228.89H124.468ZM123.796 224.634C123.796 225.231 124.095 225.53 124.692 225.53H128.332V222.954H124.692C124.095 222.954 123.796 223.253 123.796 223.85V224.634ZM135.999 223.514V208.17H139.863V223.906C139.863 225.063 140.46 225.707 141.655 225.838V229.17C137.884 229.17 135.999 227.285 135.999 223.514ZM144.695 211.67V207.89H148.727V211.67H144.695ZM144.779 228.89V214.106H148.643V228.89H144.779ZM156.433 228.89C153.409 228.89 151.897 227.406 151.897 224.438C151.897 221.47 153.409 219.986 156.433 219.986H160.297V218.362C160.297 217.765 159.998 217.466 159.401 217.466H153.465V215.366L155.145 214.106H159.625C162.649 214.106 164.161 215.618 164.161 218.642V228.89H156.433ZM155.761 224.634C155.761 225.231 156.06 225.53 156.657 225.53H160.297V222.954H156.657C156.06 222.954 155.761 223.253 155.761 223.85V224.634ZM167.851 224.354V218.642C167.851 215.618 169.363 214.106 172.387 214.106H177.595L179.275 215.366V217.466H172.611C172.014 217.466 171.715 217.765 171.715 218.362V224.634C171.715 225.231 172.014 225.53 172.611 225.53H179.275V227.63L177.595 228.89H172.387C169.363 228.89 167.851 227.378 167.851 224.354ZM170.987 231.41H173.787C174.049 231.41 174.179 231.279 174.179 231.018V227.21H177.147V230.682C177.147 232.959 176.009 234.098 173.731 234.098H172.303L170.987 233.062V231.41ZM186.32 228.89C183.296 228.89 181.784 227.406 181.784 224.438C181.784 221.47 183.296 219.986 186.32 219.986H190.184V218.362C190.184 217.765 189.885 217.466 189.288 217.466H183.352V215.366L185.032 214.106H189.512C192.536 214.106 194.048 215.618 194.048 218.642V228.89H186.32ZM185.648 224.634C185.648 225.231 185.946 225.53 186.544 225.53H190.184V222.954H186.544C185.946 222.954 185.648 223.253 185.648 223.85V224.634ZM183.324 210.634L185.172 208.786C185.582 208.375 186.114 208.17 186.768 208.17C187.421 208.17 187.953 208.375 188.364 208.786L189.54 209.962C189.633 210.055 189.717 210.102 189.792 210.102C189.866 210.102 189.95 210.055 190.044 209.962L191.584 208.422L193.236 210.074L191.388 211.922C190.977 212.333 190.445 212.538 189.792 212.538C189.138 212.538 188.606 212.333 188.196 211.922L187.02 210.746C186.926 210.653 186.842 210.606 186.768 210.606C186.693 210.606 186.609 210.653 186.516 210.746L184.976 212.286L183.324 210.634ZM197.738 224.354V218.642C197.738 215.618 199.25 214.106 202.274 214.106H206.194C209.218 214.106 210.73 215.618 210.73 218.642V224.354C210.73 227.378 209.218 228.89 206.194 228.89H202.274C199.25 228.89 197.738 227.378 197.738 224.354ZM201.602 224.634C201.602 225.231 201.901 225.53 202.498 225.53H205.97C206.568 225.53 206.866 225.231 206.866 224.634V218.362C206.866 217.765 206.568 217.466 205.97 217.466H202.498C201.901 217.466 201.602 217.765 201.602 218.362V224.634ZM221.539 228.89V209.57H228.875C234.139 209.57 236.771 212.202 236.771 217.466V220.994C236.771 226.258 234.139 228.89 228.875 228.89H221.539ZM225.571 225.25H229.099C231.526 225.25 232.739 224.037 232.739 221.61V216.85C232.739 214.423 231.526 213.21 229.099 213.21H225.571V225.25ZM240.312 224.354V218.642C240.312 215.618 241.824 214.106 244.848 214.106H248.488C251.512 214.106 253.024 215.618 253.024 218.642V222.926H244.176V224.634C244.176 225.231 244.475 225.53 245.072 225.53H252.464V227.63L250.784 228.89H244.848C241.824 228.89 240.312 227.378 240.312 224.354ZM244.176 219.958H249.16V218.362C249.16 217.765 248.862 217.466 248.264 217.466H245.072C244.475 217.466 244.176 217.765 244.176 218.362V219.958ZM256.721 224.354V209.57H260.585V214.106H265.401V217.466H260.585V224.634C260.585 225.231 260.884 225.53 261.481 225.53H265.681V227.63L264.001 228.89H261.257C258.233 228.89 256.721 227.378 256.721 224.354ZM272.452 228.89C269.428 228.89 267.916 227.406 267.916 224.438C267.916 221.47 269.428 219.986 272.452 219.986H276.316V218.362C276.316 217.765 276.018 217.466 275.42 217.466H269.484V215.366L271.164 214.106H275.644C278.668 214.106 280.18 215.618 280.18 218.642V228.89H272.452ZM271.78 224.634C271.78 225.231 272.079 225.53 272.676 225.53H276.316V222.954H272.676C272.079 222.954 271.78 223.253 271.78 223.85V224.634ZM283.983 223.514V208.17H287.847V223.906C287.847 225.063 288.444 225.707 289.639 225.838V229.17C285.868 229.17 283.983 227.285 283.983 223.514ZM292.763 228.89V208.17H296.627V214.106H300.939C303.963 214.106 305.475 215.618 305.475 218.642V228.89H301.611V218.362C301.611 217.765 301.312 217.466 300.715 217.466H296.627V228.89H292.763ZM313.14 228.89C310.116 228.89 308.604 227.406 308.604 224.438C308.604 221.47 310.116 219.986 313.14 219.986H317.004V218.362C317.004 217.765 316.705 217.466 316.108 217.466H310.172V215.366L311.852 214.106H316.332C319.356 214.106 320.868 215.618 320.868 218.642V228.89H313.14ZM312.468 224.634C312.468 225.231 312.767 225.53 313.364 225.53H317.004V222.954H313.364C312.767 222.954 312.468 223.253 312.468 223.85V224.634ZM324.558 224.354V218.642C324.558 215.618 326.07 214.106 329.094 214.106H333.406V208.17H337.27V228.89H329.094C326.07 228.89 324.558 227.378 324.558 224.354ZM328.422 224.634C328.422 225.231 328.721 225.53 329.318 225.53H333.406V217.466H329.318C328.721 217.466 328.422 217.765 328.422 218.362V224.634ZM345.05 228.89C342.026 228.89 340.514 227.406 340.514 224.438C340.514 221.47 342.026 219.986 345.05 219.986H348.914V218.362C348.914 217.765 348.615 217.466 348.018 217.466H342.082V215.366L343.762 214.106H348.242C351.266 214.106 352.778 215.618 352.778 218.642V228.89H345.05ZM344.378 224.634C344.378 225.231 344.677 225.53 345.274 225.53H348.914V222.954H345.274C344.677 222.954 344.378 223.253 344.378 223.85V224.634Z" fill="white"/>
<path d="M65.4785 258.69H68.9185C70.1345 258.69 71.0412 258.941 71.6385 259.442C72.2358 259.933 72.5345 260.679 72.5345 261.682C72.5345 262.429 72.3478 263.063 71.9745 263.586C71.6012 264.098 71.0838 264.445 70.4225 264.626V264.658C70.6465 264.807 70.8278 264.967 70.9665 265.138C71.1052 265.298 71.2225 265.495 71.3185 265.73L72.9985 269.89H71.4145L70.0065 266.274C69.8252 265.805 69.6065 265.49 69.3505 265.33C69.0945 265.17 68.6945 265.09 68.1505 265.09H66.9505V269.89H65.4785V258.69ZM68.8385 263.89C70.3638 263.89 71.1265 263.186 71.1265 261.778C71.1265 261.149 70.9345 260.679 70.5505 260.37C70.1665 260.061 69.5798 259.906 68.7905 259.906H66.9505V263.89H68.8385ZM81.1914 266.418H75.4314C75.506 267.229 75.746 267.847 76.1514 268.274C76.5567 268.69 77.1167 268.898 77.8314 268.898C78.7914 268.898 79.554 268.519 80.1194 267.762L80.8874 268.498C80.578 268.989 80.146 269.373 79.5914 269.65C79.0474 269.917 78.4447 270.05 77.7834 270.05C76.5994 270.05 75.682 269.687 75.0314 268.962C74.3807 268.237 74.0554 267.218 74.0554 265.906C74.0554 264.605 74.3807 263.586 75.0314 262.85C75.6927 262.103 76.5994 261.73 77.7514 261.73C78.8287 261.73 79.6714 262.098 80.2794 262.834C80.8874 263.559 81.1914 264.578 81.1914 265.89V266.418ZM79.9434 265.298C79.9434 264.53 79.7407 263.927 79.3354 263.49C78.9407 263.053 78.3914 262.834 77.6874 262.834C77.026 262.834 76.498 263.058 76.1034 263.506C75.7194 263.954 75.4954 264.589 75.4314 265.41H79.9434V265.298ZM85.0886 270.05C84.2993 270.05 83.654 269.821 83.1526 269.362C82.6513 268.903 82.4006 268.311 82.4006 267.586C82.4006 266.786 82.6993 266.167 83.2966 265.73C83.9046 265.293 84.7633 265.074 85.8726 265.074H87.5206V264.658C87.5206 264.061 87.3606 263.607 87.0406 263.298C86.7313 262.978 86.278 262.818 85.6806 262.818C85.2006 262.818 84.758 262.919 84.3526 263.122C83.958 263.314 83.6273 263.597 83.3606 263.97L82.6726 263.138C83.0353 262.679 83.478 262.333 84.0006 262.098C84.5233 261.853 85.1046 261.73 85.7446 261.73C86.7473 261.73 87.5206 261.975 88.0646 262.466C88.6086 262.957 88.8806 263.661 88.8806 264.578V268.338C88.8806 268.754 88.9446 269.271 89.0726 269.89H87.8886C87.7926 269.645 87.7233 269.271 87.6806 268.77H87.6486C87.35 269.186 86.982 269.506 86.5446 269.73C86.1073 269.943 85.622 270.05 85.0886 270.05ZM85.2966 268.978C85.702 268.978 86.0753 268.903 86.4166 268.754C86.758 268.594 87.0246 268.381 87.2166 268.114C87.4193 267.847 87.5206 267.554 87.5206 267.234V266.05H85.8246C85.1526 266.05 84.6353 266.183 84.2726 266.45C83.91 266.717 83.7286 267.095 83.7286 267.586C83.7286 268.013 83.8673 268.354 84.1446 268.61C84.4326 268.855 84.8166 268.978 85.2966 268.978ZM92.8274 270.05C91.6754 270.05 91.0994 269.373 91.0994 268.018V258.018H92.4594V268.002C92.4594 268.375 92.518 268.642 92.6354 268.802C92.7634 268.951 92.9767 269.026 93.2754 269.026C93.51 269.026 93.7767 268.962 94.0754 268.834L94.2834 269.65C93.878 269.917 93.3927 270.05 92.8274 270.05ZM96.5876 260.498C96.289 260.498 96.0543 260.418 95.8836 260.258C95.713 260.098 95.6276 259.879 95.6276 259.602C95.6276 259.325 95.713 259.106 95.8836 258.946C96.0543 258.775 96.289 258.69 96.5876 258.69C96.8863 258.69 97.121 258.775 97.2916 258.946C97.473 259.106 97.5636 259.325 97.5636 259.602C97.5636 259.879 97.473 260.098 97.2916 260.258C97.121 260.418 96.8863 260.498 96.5876 260.498ZM95.9156 261.89H97.2756V269.89H95.9156V261.89ZM98.9735 269.122L103.597 262.946H99.1975V261.89H105.197V262.674L100.637 268.834H105.357V269.89H98.9735V269.122ZM109.104 270.05C108.315 270.05 107.67 269.821 107.168 269.362C106.667 268.903 106.416 268.311 106.416 267.586C106.416 266.786 106.715 266.167 107.312 265.73C107.92 265.293 108.779 265.074 109.888 265.074H111.536V264.658C111.536 264.061 111.376 263.607 111.056 263.298C110.747 262.978 110.294 262.818 109.696 262.818C109.216 262.818 108.774 262.919 108.368 263.122C107.974 263.314 107.643 263.597 107.376 263.97L106.688 263.138C107.051 262.679 107.494 262.333 108.016 262.098C108.539 261.853 109.12 261.73 109.76 261.73C110.763 261.73 111.536 261.975 112.08 262.466C112.624 262.957 112.896 263.661 112.896 264.578V268.338C112.896 268.754 112.96 269.271 113.088 269.89H111.904C111.808 269.645 111.739 269.271 111.696 268.77H111.664C111.366 269.186 110.998 269.506 110.56 269.73C110.123 269.943 109.638 270.05 109.104 270.05ZM109.312 268.978C109.718 268.978 110.091 268.903 110.432 268.754C110.774 268.594 111.04 268.381 111.232 268.114C111.435 267.847 111.536 267.554 111.536 267.234V266.05H109.84C109.168 266.05 108.651 266.183 108.288 266.45C107.926 266.717 107.744 267.095 107.744 267.586C107.744 268.013 107.883 268.354 108.16 268.61C108.448 268.855 108.832 268.978 109.312 268.978ZM114.971 263.906C114.971 263.095 114.944 262.423 114.891 261.89H116.107C116.15 262.317 116.171 262.791 116.171 263.314H116.219C116.432 262.823 116.768 262.439 117.227 262.162C117.686 261.874 118.198 261.73 118.763 261.73C119.328 261.73 119.814 261.874 120.219 262.162C120.624 262.45 120.896 262.85 121.035 263.362C121.259 262.861 121.6 262.466 122.059 262.178C122.518 261.879 123.035 261.73 123.611 261.73C124.486 261.73 125.168 262.013 125.659 262.578C126.16 263.143 126.411 263.933 126.411 264.946V269.89H125.067V265.058C125.067 264.333 124.912 263.778 124.603 263.394C124.304 263.01 123.867 262.818 123.291 262.818C122.726 262.818 122.262 263.031 121.899 263.458C121.536 263.874 121.355 264.413 121.355 265.074V269.89H120.011V265.122C120.011 264.343 119.872 263.767 119.595 263.394C119.318 263.01 118.896 262.818 118.331 262.818C117.979 262.818 117.648 262.925 117.339 263.138C117.03 263.351 116.779 263.634 116.587 263.986C116.406 264.338 116.315 264.717 116.315 265.122V269.89H114.971V263.906ZM131.865 270.05C131.076 270.05 130.388 269.885 129.801 269.554C129.225 269.213 128.777 268.727 128.457 268.098C128.148 267.469 127.993 266.733 127.993 265.89C127.993 265.047 128.148 264.311 128.457 263.682C128.777 263.053 129.225 262.573 129.801 262.242C130.388 261.901 131.076 261.73 131.865 261.73C133.06 261.73 134.004 262.103 134.697 262.85C135.401 263.597 135.753 264.61 135.753 265.89C135.753 267.17 135.401 268.183 134.697 268.93C134.004 269.677 133.06 270.05 131.865 270.05ZM131.865 269.01C132.654 269.01 133.273 268.733 133.721 268.178C134.169 267.623 134.393 266.861 134.393 265.89C134.393 264.919 134.169 264.157 133.721 263.602C133.273 263.047 132.654 262.77 131.865 262.77C131.086 262.77 130.473 263.047 130.025 263.602C129.577 264.157 129.353 264.919 129.353 265.89C129.353 266.861 129.577 267.623 130.025 268.178C130.473 268.733 131.086 269.01 131.865 269.01ZM139.523 270.05C138.926 270.05 138.382 269.927 137.891 269.682C137.411 269.437 137.07 269.111 136.867 268.706L137.747 268.098C137.928 268.386 138.179 268.61 138.499 268.77C138.819 268.93 139.166 269.01 139.539 269.01C139.987 269.01 140.355 268.882 140.643 268.626C140.942 268.359 141.091 268.029 141.091 267.634C141.091 267.314 140.974 267.047 140.739 266.834C140.504 266.621 140.088 266.402 139.491 266.178C138.584 265.847 137.944 265.501 137.571 265.138C137.208 264.775 137.027 264.327 137.027 263.794C137.027 263.175 137.272 262.679 137.763 262.306C138.254 261.922 138.904 261.73 139.715 261.73C140.238 261.73 140.712 261.842 141.139 262.066C141.576 262.29 141.912 262.599 142.147 262.994L141.315 263.602C140.942 263.047 140.408 262.77 139.715 262.77C139.32 262.77 138.995 262.861 138.739 263.042C138.494 263.223 138.371 263.458 138.371 263.746C138.371 264.034 138.499 264.279 138.755 264.482C139.011 264.674 139.486 264.903 140.179 265.17C141 265.479 141.582 265.821 141.923 266.194C142.264 266.557 142.435 267.021 142.435 267.586C142.435 268.333 142.168 268.93 141.635 269.378C141.102 269.826 140.398 270.05 139.523 270.05ZM150.646 270.05C149.729 270.05 149.03 269.751 148.55 269.154C148.081 268.557 147.846 267.677 147.846 266.514V261.89H149.206V266.53C149.206 268.151 149.782 268.962 150.934 268.962C151.382 268.962 151.787 268.85 152.15 268.626C152.513 268.391 152.795 268.071 152.998 267.666C153.201 267.25 153.302 266.786 153.302 266.274V261.89H154.662V268.194C154.662 268.727 154.71 269.293 154.806 269.89H153.558C153.462 269.421 153.409 268.946 153.398 268.466H153.35C153.115 268.957 152.753 269.346 152.262 269.634C151.782 269.911 151.243 270.05 150.646 270.05ZM156.674 263.906C156.674 263.095 156.647 262.423 156.594 261.89H157.81C157.853 262.317 157.874 262.791 157.874 263.314H157.922C158.135 262.823 158.471 262.439 158.93 262.162C159.389 261.874 159.901 261.73 160.466 261.73C161.031 261.73 161.517 261.874 161.922 262.162C162.327 262.45 162.599 262.85 162.738 263.362C162.962 262.861 163.303 262.466 163.762 262.178C164.221 261.879 164.738 261.73 165.314 261.73C166.189 261.73 166.871 262.013 167.362 262.578C167.863 263.143 168.114 263.933 168.114 264.946V269.89H166.77V265.058C166.77 264.333 166.615 263.778 166.306 263.394C166.007 263.01 165.57 262.818 164.994 262.818C164.429 262.818 163.965 263.031 163.602 263.458C163.239 263.874 163.058 264.413 163.058 265.074V269.89H161.714V265.122C161.714 264.343 161.575 263.767 161.298 263.394C161.021 263.01 160.599 262.818 160.034 262.818C159.682 262.818 159.351 262.925 159.042 263.138C158.733 263.351 158.482 263.634 158.29 263.986C158.109 264.338 158.018 264.717 158.018 265.122V269.89H156.674V263.906ZM172.448 270.05C171.659 270.05 171.013 269.821 170.512 269.362C170.011 268.903 169.76 268.311 169.76 267.586C169.76 266.786 170.059 266.167 170.656 265.73C171.264 265.293 172.123 265.074 173.232 265.074H174.88V264.658C174.88 264.061 174.72 263.607 174.4 263.298C174.091 262.978 173.637 262.818 173.04 262.818C172.56 262.818 172.117 262.919 171.712 263.122C171.317 263.314 170.987 263.597 170.72 263.97L170.032 263.138C170.395 262.679 170.837 262.333 171.36 262.098C171.883 261.853 172.464 261.73 173.104 261.73C174.107 261.73 174.88 261.975 175.424 262.466C175.968 262.957 176.24 263.661 176.24 264.578V268.338C176.24 268.754 176.304 269.271 176.432 269.89H175.248C175.152 269.645 175.083 269.271 175.04 268.77H175.008C174.709 269.186 174.341 269.506 173.904 269.73C173.467 269.943 172.981 270.05 172.448 270.05ZM172.656 268.978C173.061 268.978 173.435 268.903 173.776 268.754C174.117 268.594 174.384 268.381 174.576 268.114C174.779 267.847 174.88 267.554 174.88 267.234V266.05H173.184C172.512 266.05 171.995 266.183 171.632 266.45C171.269 266.717 171.088 267.095 171.088 267.586C171.088 268.013 171.227 268.354 171.504 268.61C171.792 268.855 172.176 268.978 172.656 268.978ZM184.557 270.05C183.768 270.05 183.123 269.821 182.621 269.362C182.12 268.903 181.869 268.311 181.869 267.586C181.869 266.786 182.168 266.167 182.765 265.73C183.373 265.293 184.232 265.074 185.341 265.074H186.989V264.658C186.989 264.061 186.829 263.607 186.509 263.298C186.2 262.978 185.747 262.818 185.149 262.818C184.669 262.818 184.227 262.919 183.821 263.122C183.427 263.314 183.096 263.597 182.829 263.97L182.141 263.138C182.504 262.679 182.947 262.333 183.469 262.098C183.992 261.853 184.573 261.73 185.213 261.73C186.216 261.73 186.989 261.975 187.533 262.466C188.077 262.957 188.349 263.661 188.349 264.578V268.338C188.349 268.754 188.413 269.271 188.541 269.89H187.357C187.261 269.645 187.192 269.271 187.149 268.77H187.117C186.819 269.186 186.451 269.506 186.013 269.73C185.576 269.943 185.091 270.05 184.557 270.05ZM184.765 268.978C185.171 268.978 185.544 268.903 185.885 268.754C186.227 268.594 186.493 268.381 186.685 268.114C186.888 267.847 186.989 267.554 186.989 267.234V266.05H185.293C184.621 266.05 184.104 266.183 183.741 266.45C183.379 266.717 183.197 267.095 183.197 267.586C183.197 268.013 183.336 268.354 183.613 268.61C183.901 268.855 184.285 268.978 184.765 268.978ZM190.408 263.906C190.408 262.893 190.387 262.221 190.344 261.89H191.608C191.651 262.242 191.672 262.717 191.672 263.314H191.72C191.955 262.823 192.312 262.439 192.792 262.162C193.283 261.874 193.827 261.73 194.424 261.73C195.363 261.73 196.067 262.034 196.536 262.642C197.005 263.25 197.24 264.157 197.24 265.362V269.89H195.88V265.346C195.88 264.493 195.736 263.858 195.448 263.442C195.16 263.026 194.723 262.818 194.136 262.818C193.688 262.818 193.283 262.935 192.92 263.17C192.557 263.394 192.275 263.714 192.072 264.13C191.869 264.535 191.768 264.994 191.768 265.506V269.89H190.408V263.906ZM201.557 270.05C200.768 270.05 200.123 269.821 199.621 269.362C199.12 268.903 198.869 268.311 198.869 267.586C198.869 266.786 199.168 266.167 199.765 265.73C200.373 265.293 201.232 265.074 202.341 265.074H203.989V264.658C203.989 264.061 203.829 263.607 203.509 263.298C203.2 262.978 202.747 262.818 202.149 262.818C201.669 262.818 201.227 262.919 200.821 263.122C200.427 263.314 200.096 263.597 199.829 263.97L199.141 263.138C199.504 262.679 199.947 262.333 200.469 262.098C200.992 261.853 201.573 261.73 202.213 261.73C203.216 261.73 203.989 261.975 204.533 262.466C205.077 262.957 205.349 263.661 205.349 264.578V268.338C205.349 268.754 205.413 269.271 205.541 269.89H204.357C204.261 269.645 204.192 269.271 204.149 268.77H204.117C203.819 269.186 203.451 269.506 203.013 269.73C202.576 269.943 202.091 270.05 201.557 270.05ZM201.765 268.978C202.171 268.978 202.544 268.903 202.885 268.754C203.227 268.594 203.493 268.381 203.685 268.114C203.888 267.847 203.989 267.554 203.989 267.234V266.05H202.293C201.621 266.05 201.104 266.183 200.741 266.45C200.379 266.717 200.197 267.095 200.197 267.586C200.197 268.013 200.336 268.354 200.613 268.61C200.901 268.855 201.285 268.978 201.765 268.978ZM203.061 258.69H204.453L202.901 261.026H201.813L203.061 258.69ZM209.296 270.05C208.144 270.05 207.568 269.373 207.568 268.018V258.018H208.928V268.002C208.928 268.375 208.987 268.642 209.104 268.802C209.232 268.951 209.445 269.026 209.744 269.026C209.979 269.026 210.245 268.962 210.544 268.834L210.752 269.65C210.347 269.917 209.861 270.05 209.296 270.05ZM213.056 260.498C212.758 260.498 212.523 260.418 212.352 260.258C212.182 260.098 212.096 259.879 212.096 259.602C212.096 259.325 212.182 259.106 212.352 258.946C212.523 258.775 212.758 258.69 213.056 258.69C213.355 258.69 213.59 258.775 213.76 258.946C213.942 259.106 214.032 259.325 214.032 259.602C214.032 259.879 213.942 260.098 213.76 260.258C213.59 260.418 213.355 260.498 213.056 260.498ZM212.384 261.89H213.744V269.89H212.384V261.89ZM218.226 270.05C217.629 270.05 217.085 269.927 216.594 269.682C216.114 269.437 215.773 269.111 215.57 268.706L216.45 268.098C216.632 268.386 216.882 268.61 217.202 268.77C217.522 268.93 217.869 269.01 218.242 269.01C218.69 269.01 219.058 268.882 219.346 268.626C219.645 268.359 219.794 268.029 219.794 267.634C219.794 267.314 219.677 267.047 219.442 266.834C219.208 266.621 218.792 266.402 218.194 266.178C217.288 265.847 216.648 265.501 216.274 265.138C215.912 264.775 215.73 264.327 215.73 263.794C215.73 263.175 215.976 262.679 216.466 262.306C216.957 261.922 217.608 261.73 218.418 261.73C218.941 261.73 219.416 261.842 219.842 262.066C220.28 262.29 220.616 262.599 220.85 262.994L220.018 263.602C219.645 263.047 219.112 262.77 218.418 262.77C218.024 262.77 217.698 262.861 217.442 263.042C217.197 263.223 217.074 263.458 217.074 263.746C217.074 264.034 217.202 264.279 217.458 264.482C217.714 264.674 218.189 264.903 218.882 265.17C219.704 265.479 220.285 265.821 220.626 266.194C220.968 266.557 221.138 267.021 221.138 267.586C221.138 268.333 220.872 268.93 220.338 269.378C219.805 269.826 219.101 270.05 218.226 270.05ZM229.707 266.418H223.947C224.022 267.229 224.262 267.847 224.667 268.274C225.072 268.69 225.632 268.898 226.347 268.898C227.307 268.898 228.07 268.519 228.635 267.762L229.403 268.498C229.094 268.989 228.662 269.373 228.107 269.65C227.563 269.917 226.96 270.05 226.299 270.05C225.115 270.05 224.198 269.687 223.547 268.962C222.896 268.237 222.571 267.218 222.571 265.906C222.571 264.605 222.896 263.586 223.547 262.85C224.208 262.103 225.115 261.73 226.267 261.73C227.344 261.73 228.187 262.098 228.795 262.834C229.403 263.559 229.707 264.578 229.707 265.89V266.418ZM228.459 265.298C228.459 264.53 228.256 263.927 227.851 263.49C227.456 263.053 226.907 262.834 226.203 262.834C225.542 262.834 225.014 263.058 224.619 263.506C224.235 263.954 224.011 264.589 223.947 265.41H228.459V265.298ZM238.455 270.05C237.271 270.05 236.348 269.687 235.687 268.962C235.036 268.226 234.711 267.202 234.711 265.89C234.711 264.578 235.036 263.559 235.687 262.834C236.348 262.098 237.271 261.73 238.455 261.73C239.127 261.73 239.719 261.863 240.231 262.13C240.754 262.386 241.164 262.759 241.463 263.25L240.647 263.986C240.412 263.623 240.103 263.341 239.719 263.138C239.346 262.925 238.94 262.818 238.503 262.818C237.746 262.818 237.148 263.09 236.711 263.634C236.284 264.167 236.071 264.919 236.071 265.89C236.071 266.85 236.284 267.602 236.711 268.146C237.148 268.69 237.746 268.962 238.503 268.962C238.94 268.962 239.346 268.861 239.719 268.658C240.103 268.445 240.412 268.157 240.647 267.794L241.463 268.53C241.164 269.021 240.754 269.399 240.231 269.666C239.719 269.922 239.127 270.05 238.455 270.05ZM246.177 270.05C245.388 270.05 244.7 269.885 244.113 269.554C243.537 269.213 243.089 268.727 242.769 268.098C242.46 267.469 242.305 266.733 242.305 265.89C242.305 265.047 242.46 264.311 242.769 263.682C243.089 263.053 243.537 262.573 244.113 262.242C244.7 261.901 245.388 261.73 246.177 261.73C247.372 261.73 248.316 262.103 249.009 262.85C249.713 263.597 250.065 264.61 250.065 265.89C250.065 267.17 249.713 268.183 249.009 268.93C248.316 269.677 247.372 270.05 246.177 270.05ZM246.177 269.01C246.967 269.01 247.585 268.733 248.033 268.178C248.481 267.623 248.705 266.861 248.705 265.89C248.705 264.919 248.481 264.157 248.033 263.602C247.585 263.047 246.967 262.77 246.177 262.77C245.399 262.77 244.785 263.047 244.337 263.602C243.889 264.157 243.665 264.919 243.665 265.89C243.665 266.861 243.889 267.623 244.337 268.178C244.785 268.733 245.399 269.01 246.177 269.01ZM251.612 263.906C251.612 263.095 251.585 262.423 251.532 261.89H252.748C252.79 262.317 252.812 262.791 252.812 263.314H252.86C253.073 262.823 253.409 262.439 253.868 262.162C254.326 261.874 254.838 261.73 255.404 261.73C255.969 261.73 256.454 261.874 256.86 262.162C257.265 262.45 257.537 262.85 257.676 263.362C257.9 262.861 258.241 262.466 258.7 262.178C259.158 261.879 259.676 261.73 260.252 261.73C261.126 261.73 261.809 262.013 262.3 262.578C262.801 263.143 263.052 263.933 263.052 264.946V269.89H261.708V265.058C261.708 264.333 261.553 263.778 261.244 263.394C260.945 263.01 260.508 262.818 259.932 262.818C259.366 262.818 258.902 263.031 258.54 263.458C258.177 263.874 257.996 264.413 257.996 265.074V269.89H256.652V265.122C256.652 264.343 256.513 263.767 256.236 263.394C255.958 263.01 255.537 262.818 254.972 262.818C254.62 262.818 254.289 262.925 253.98 263.138C253.67 263.351 253.42 263.634 253.228 263.986C253.046 264.338 252.956 264.717 252.956 265.122V269.89H251.612V263.906ZM265.065 263.906C265.065 263.223 265.044 262.551 265.001 261.89H266.249C266.281 262.285 266.297 262.706 266.297 263.154H266.329C266.553 262.727 266.9 262.386 267.369 262.13C267.839 261.863 268.345 261.73 268.889 261.73C269.924 261.73 270.735 262.098 271.321 262.834C271.908 263.57 272.201 264.589 272.201 265.89C272.201 266.733 272.063 267.469 271.785 268.098C271.508 268.717 271.113 269.197 270.601 269.538C270.1 269.879 269.513 270.05 268.841 270.05C268.287 270.05 267.801 269.943 267.385 269.73C266.969 269.517 266.665 269.218 266.473 268.834H266.425V273.762H265.065V263.906ZM268.633 269.01C269.316 269.01 269.855 268.727 270.249 268.162C270.644 267.586 270.841 266.813 270.841 265.842C270.841 264.871 270.649 264.125 270.265 263.602C269.881 263.079 269.343 262.818 268.649 262.818C267.999 262.818 267.465 263.031 267.049 263.458C266.633 263.885 266.425 264.429 266.425 265.09V266.546C266.425 267.282 266.628 267.879 267.033 268.338C267.439 268.786 267.972 269.01 268.633 269.01ZM275.624 270.05C274.472 270.05 273.896 269.373 273.896 268.018V258.018H275.256V268.002C275.256 268.375 275.315 268.642 275.432 268.802C275.56 268.951 275.774 269.026 276.072 269.026C276.307 269.026 276.574 268.962 276.872 268.834L277.08 269.65C276.675 269.917 276.19 270.05 275.624 270.05ZM284.66 266.418H278.9C278.975 267.229 279.215 267.847 279.62 268.274C280.025 268.69 280.585 268.898 281.3 268.898C282.26 268.898 283.023 268.519 283.588 267.762L284.356 268.498C284.047 268.989 283.615 269.373 283.06 269.65C282.516 269.917 281.913 270.05 281.252 270.05C280.068 270.05 279.151 269.687 278.5 268.962C277.849 268.237 277.524 267.218 277.524 265.906C277.524 264.605 277.849 263.586 278.5 262.85C279.161 262.103 280.068 261.73 281.22 261.73C282.297 261.73 283.14 262.098 283.748 262.834C284.356 263.559 284.66 264.578 284.66 265.89V266.418ZM283.412 265.298C283.412 264.53 283.209 263.927 282.804 263.49C282.409 263.053 281.86 262.834 281.156 262.834C280.495 262.834 279.967 263.058 279.572 263.506C279.188 263.954 278.964 264.589 278.9 265.41H283.412V265.298ZM289.101 270.05C288.397 270.05 287.843 269.826 287.437 269.378C287.032 268.919 286.829 268.29 286.829 267.49V262.946H285.389V261.89H286.829V259.762L288.125 259.362H288.189V261.89H290.461V262.946H288.189V267.362C288.189 267.906 288.291 268.311 288.493 268.578C288.696 268.834 289.011 268.962 289.437 268.962C289.896 268.962 290.269 268.903 290.557 268.786L290.653 269.794C290.301 269.965 289.784 270.05 289.101 270.05ZM294.589 270.05C293.799 270.05 293.154 269.821 292.653 269.362C292.151 268.903 291.901 268.311 291.901 267.586C291.901 266.786 292.199 266.167 292.797 265.73C293.405 265.293 294.263 265.074 295.373 265.074H297.021V264.658C297.021 264.061 296.861 263.607 296.541 263.298C296.231 262.978 295.778 262.818 295.181 262.818C294.701 262.818 294.258 262.919 293.853 263.122C293.458 263.314 293.127 263.597 292.861 263.97L292.173 263.138C292.535 262.679 292.978 262.333 293.501 262.098C294.023 261.853 294.605 261.73 295.245 261.73C296.247 261.73 297.021 261.975 297.565 262.466C298.109 262.957 298.381 263.661 298.381 264.578V268.338C298.381 268.754 298.445 269.271 298.573 269.89H297.389C297.293 269.645 297.223 269.271 297.181 268.77H297.149C296.85 269.186 296.482 269.506 296.045 269.73C295.607 269.943 295.122 270.05 294.589 270.05ZM294.797 268.978C295.202 268.978 295.575 268.903 295.917 268.754C296.258 268.594 296.525 268.381 296.717 268.114C296.919 267.847 297.021 267.554 297.021 267.234V266.05H295.325C294.653 266.05 294.135 266.183 293.773 266.45C293.41 266.717 293.229 267.095 293.229 267.586C293.229 268.013 293.367 268.354 293.645 268.61C293.933 268.855 294.317 268.978 294.797 268.978ZM307.274 270.05C306.239 270.05 305.418 269.666 304.81 268.898C304.213 268.13 303.914 267.079 303.914 265.746C303.914 264.935 304.053 264.231 304.33 263.634C304.607 263.026 305.002 262.557 305.514 262.226C306.026 261.895 306.623 261.73 307.306 261.73C308.287 261.73 309.077 262.141 309.674 262.962H309.706V258.018H311.05V267.874C311.05 268.866 311.066 269.538 311.098 269.89H309.85C309.829 269.634 309.818 269.213 309.818 268.626H309.786C309.541 269.053 309.189 269.399 308.73 269.666C308.271 269.922 307.786 270.05 307.274 270.05ZM307.466 268.962C308.149 268.962 308.687 268.759 309.082 268.354C309.487 267.938 309.69 267.383 309.69 266.69V265.234C309.69 264.487 309.487 263.89 309.082 263.442C308.677 262.994 308.138 262.77 307.466 262.77C306.783 262.77 306.245 263.037 305.85 263.57C305.466 264.093 305.274 264.829 305.274 265.778C305.274 266.77 305.466 267.549 305.85 268.114C306.245 268.679 306.783 268.962 307.466 268.962ZM316.49 270.05C315.701 270.05 315.013 269.885 314.426 269.554C313.85 269.213 313.402 268.727 313.082 268.098C312.773 267.469 312.618 266.733 312.618 265.89C312.618 265.047 312.773 264.311 313.082 263.682C313.402 263.053 313.85 262.573 314.426 262.242C315.013 261.901 315.701 261.73 316.49 261.73C317.685 261.73 318.629 262.103 319.322 262.85C320.026 263.597 320.378 264.61 320.378 265.89C320.378 267.17 320.026 268.183 319.322 268.93C318.629 269.677 317.685 270.05 316.49 270.05ZM316.49 269.01C317.279 269.01 317.898 268.733 318.346 268.178C318.794 267.623 319.018 266.861 319.018 265.89C319.018 264.919 318.794 264.157 318.346 263.602C317.898 263.047 317.279 262.77 316.49 262.77C315.711 262.77 315.098 263.047 314.65 263.602C314.202 264.157 313.978 264.919 313.978 265.89C313.978 266.861 314.202 267.623 314.65 268.178C315.098 268.733 315.711 269.01 316.49 269.01ZM332.551 266.418H326.791C326.865 267.229 327.105 267.847 327.511 268.274C327.916 268.69 328.476 268.898 329.191 268.898C330.151 268.898 330.913 268.519 331.479 267.762L332.247 268.498C331.937 268.989 331.505 269.373 330.951 269.65C330.407 269.917 329.804 270.05 329.143 270.05C327.959 270.05 327.041 269.687 326.391 268.962C325.74 268.237 325.415 267.218 325.415 265.906C325.415 264.605 325.74 263.586 326.391 262.85C327.052 262.103 327.959 261.73 329.111 261.73C330.188 261.73 331.031 262.098 331.639 262.834C332.247 263.559 332.551 264.578 332.551 265.89V266.418ZM331.303 265.298C331.303 264.53 331.1 263.927 330.695 263.49C330.3 263.053 329.751 262.834 329.047 262.834C328.385 262.834 327.857 263.058 327.463 263.506C327.079 263.954 326.855 264.589 326.791 265.41H331.303V265.298ZM336.632 270.05C336.035 270.05 335.491 269.927 335 269.682C334.52 269.437 334.179 269.111 333.976 268.706L334.856 268.098C335.038 268.386 335.288 268.61 335.608 268.77C335.928 268.93 336.275 269.01 336.648 269.01C337.096 269.01 337.464 268.882 337.752 268.626C338.051 268.359 338.2 268.029 338.2 267.634C338.2 267.314 338.083 267.047 337.848 266.834C337.614 266.621 337.198 266.402 336.6 266.178C335.694 265.847 335.054 265.501 334.68 265.138C334.318 264.775 334.136 264.327 334.136 263.794C334.136 263.175 334.382 262.679 334.872 262.306C335.363 261.922 336.014 261.73 336.824 261.73C337.347 261.73 337.822 261.842 338.248 262.066C338.686 262.29 339.022 262.599 339.256 262.994L338.424 263.602C338.051 263.047 337.518 262.77 336.824 262.77C336.43 262.77 336.104 262.861 335.848 263.042C335.603 263.223 335.48 263.458 335.48 263.746C335.48 264.034 335.608 264.279 335.864 264.482C336.12 264.674 336.595 264.903 337.288 265.17C338.11 265.479 338.691 265.821 339.032 266.194C339.374 266.557 339.544 267.021 339.544 267.586C339.544 268.333 339.278 268.93 338.744 269.378C338.211 269.826 337.507 270.05 336.632 270.05ZM343.961 270.05C343.257 270.05 342.702 269.826 342.297 269.378C341.891 268.919 341.689 268.29 341.689 267.49V262.946H340.249V261.89H341.689V259.762L342.985 259.362H343.049V261.89H345.321V262.946H343.049V267.362C343.049 267.906 343.15 268.311 343.353 268.578C343.555 268.834 343.87 268.962 344.297 268.962C344.755 268.962 345.129 268.903 345.417 268.786L345.513 269.794C345.161 269.965 344.643 270.05 343.961 270.05ZM349.448 270.05C348.659 270.05 348.013 269.821 347.512 269.362C347.011 268.903 346.76 268.311 346.76 267.586C346.76 266.786 347.059 266.167 347.656 265.73C348.264 265.293 349.123 265.074 350.232 265.074H351.88V264.658C351.88 264.061 351.72 263.607 351.4 263.298C351.091 262.978 350.637 262.818 350.04 262.818C349.56 262.818 349.117 262.919 348.712 263.122C348.317 263.314 347.987 263.597 347.72 263.97L347.032 263.138C347.395 262.679 347.837 262.333 348.36 262.098C348.883 261.853 349.464 261.73 350.104 261.73C351.107 261.73 351.88 261.975 352.424 262.466C352.968 262.957 353.24 263.661 353.24 264.578V268.338C353.24 268.754 353.304 269.271 353.432 269.89H352.248C352.152 269.645 352.083 269.271 352.04 268.77H352.008C351.709 269.186 351.341 269.506 350.904 269.73C350.467 269.943 349.981 270.05 349.448 270.05ZM349.656 268.978C350.061 268.978 350.435 268.903 350.776 268.754C351.117 268.594 351.384 268.381 351.576 268.114C351.779 267.847 351.88 267.554 351.88 267.234V266.05H350.184C349.512 266.05 348.995 266.183 348.632 266.45C348.269 266.717 348.088 267.095 348.088 267.586C348.088 268.013 348.227 268.354 348.504 268.61C348.792 268.855 349.176 268.978 349.656 268.978ZM358.243 270.05C357.208 270.05 356.387 269.666 355.779 268.898C355.181 268.13 354.883 267.079 354.883 265.746C354.883 264.935 355.021 264.231 355.299 263.634C355.576 263.026 355.971 262.557 356.483 262.226C356.995 261.895 357.592 261.73 358.275 261.73C359.256 261.73 360.045 262.141 360.643 262.962H360.675V258.018H362.019V267.874C362.019 268.866 362.035 269.538 362.067 269.89H360.819C360.797 269.634 360.787 269.213 360.787 268.626H360.755C360.509 269.053 360.157 269.399 359.699 269.666C359.24 269.922 358.755 270.05 358.243 270.05ZM358.435 268.962C359.117 268.962 359.656 268.759 360.051 268.354C360.456 267.938 360.659 267.383 360.659 266.69V265.234C360.659 264.487 360.456 263.89 360.051 263.442C359.645 262.994 359.107 262.77 358.435 262.77C357.752 262.77 357.213 263.037 356.819 263.57C356.435 264.093 356.243 264.829 356.243 265.778C356.243 266.77 356.435 267.549 356.819 268.114C357.213 268.679 357.752 268.962 358.435 268.962ZM367.459 270.05C366.669 270.05 365.981 269.885 365.395 269.554C364.819 269.213 364.371 268.727 364.051 268.098C363.741 267.469 363.587 266.733 363.587 265.89C363.587 265.047 363.741 264.311 364.051 263.682C364.371 263.053 364.819 262.573 365.395 262.242C365.981 261.901 366.669 261.73 367.459 261.73C368.653 261.73 369.597 262.103 370.291 262.85C370.995 263.597 371.347 264.61 371.347 265.89C371.347 267.17 370.995 268.183 370.291 268.93C369.597 269.677 368.653 270.05 367.459 270.05ZM367.459 269.01C368.248 269.01 368.867 268.733 369.315 268.178C369.763 267.623 369.987 266.861 369.987 265.89C369.987 264.919 369.763 264.157 369.315 263.602C368.867 263.047 368.248 262.77 367.459 262.77C366.68 262.77 366.067 263.047 365.619 263.602C365.171 264.157 364.947 264.919 364.947 265.89C364.947 266.861 365.171 267.623 365.619 268.178C366.067 268.733 366.68 269.01 367.459 269.01ZM81.6646 294.05C80.63 294.05 79.8086 293.666 79.2006 292.898C78.6033 292.13 78.3046 291.079 78.3046 289.746C78.3046 288.935 78.4433 288.231 78.7206 287.634C78.998 287.026 79.3926 286.557 79.9046 286.226C80.4166 285.895 81.014 285.73 81.6966 285.73C82.678 285.73 83.4673 286.141 84.0646 286.962H84.0966V282.018H85.4406V291.874C85.4406 292.866 85.4566 293.538 85.4886 293.89H84.2406C84.2193 293.634 84.2086 293.213 84.2086 292.626H84.1766C83.9313 293.053 83.5793 293.399 83.1206 293.666C82.662 293.922 82.1766 294.05 81.6646 294.05ZM81.8566 292.962C82.5393 292.962 83.078 292.759 83.4726 292.354C83.878 291.938 84.0806 291.383 84.0806 290.69V289.234C84.0806 288.487 83.878 287.89 83.4726 287.442C83.0673 286.994 82.5286 286.77 81.8566 286.77C81.174 286.77 80.6353 287.037 80.2406 287.57C79.8566 288.093 79.6646 288.829 79.6646 289.778C79.6646 290.77 79.8566 291.549 80.2406 292.114C80.6353 292.679 81.174 292.962 81.8566 292.962ZM90.8805 294.05C90.0912 294.05 89.4032 293.885 88.8165 293.554C88.2405 293.213 87.7925 292.727 87.4725 292.098C87.1632 291.469 87.0085 290.733 87.0085 289.89C87.0085 289.047 87.1632 288.311 87.4725 287.682C87.7925 287.053 88.2405 286.573 88.8165 286.242C89.4032 285.901 90.0912 285.73 90.8805 285.73C92.0752 285.73 93.0192 286.103 93.7125 286.85C94.4165 287.597 94.7685 288.61 94.7685 289.89C94.7685 291.17 94.4165 292.183 93.7125 292.93C93.0192 293.677 92.0752 294.05 90.8805 294.05ZM90.8805 293.01C91.6698 293.01 92.2885 292.733 92.7365 292.178C93.1845 291.623 93.4085 290.861 93.4085 289.89C93.4085 288.919 93.1845 288.157 92.7365 287.602C92.2885 287.047 91.6698 286.77 90.8805 286.77C90.1018 286.77 89.4885 287.047 89.0405 287.602C88.5925 288.157 88.3685 288.919 88.3685 289.89C88.3685 290.861 88.5925 291.623 89.0405 292.178C89.4885 292.733 90.1018 293.01 90.8805 293.01ZM102.429 294.05C101.832 294.05 101.288 293.927 100.797 293.682C100.317 293.437 99.976 293.111 99.7734 292.706L100.653 292.098C100.835 292.386 101.085 292.61 101.405 292.77C101.725 292.93 102.072 293.01 102.445 293.01C102.893 293.01 103.261 292.882 103.549 292.626C103.848 292.359 103.997 292.029 103.997 291.634C103.997 291.314 103.88 291.047 103.645 290.834C103.411 290.621 102.995 290.402 102.397 290.178C101.491 289.847 100.851 289.501 100.477 289.138C100.115 288.775 99.9334 288.327 99.9334 287.794C99.9334 287.175 100.179 286.679 100.669 286.306C101.16 285.922 101.811 285.73 102.621 285.73C103.144 285.73 103.619 285.842 104.045 286.066C104.483 286.29 104.819 286.599 105.053 286.994L104.221 287.602C103.848 287.047 103.315 286.77 102.621 286.77C102.227 286.77 101.901 286.861 101.645 287.042C101.4 287.223 101.277 287.458 101.277 287.746C101.277 288.034 101.405 288.279 101.661 288.482C101.917 288.674 102.392 288.903 103.085 289.17C103.907 289.479 104.488 289.821 104.829 290.194C105.171 290.557 105.341 291.021 105.341 291.586C105.341 292.333 105.075 292.93 104.541 293.378C104.008 293.826 103.304 294.05 102.429 294.05ZM113.91 290.418H108.15C108.225 291.229 108.465 291.847 108.87 292.274C109.275 292.69 109.835 292.898 110.55 292.898C111.51 292.898 112.273 292.519 112.838 291.762L113.606 292.498C113.297 292.989 112.865 293.373 112.31 293.65C111.766 293.917 111.163 294.05 110.502 294.05C109.318 294.05 108.401 293.687 107.75 292.962C107.099 292.237 106.774 291.218 106.774 289.906C106.774 288.605 107.099 287.586 107.75 286.85C108.411 286.103 109.318 285.73 110.47 285.73C111.547 285.73 112.39 286.098 112.998 286.834C113.606 287.559 113.91 288.578 113.91 289.89V290.418ZM112.662 289.298C112.662 288.53 112.459 287.927 112.054 287.49C111.659 287.053 111.11 286.834 110.406 286.834C109.745 286.834 109.217 287.058 108.822 287.506C108.438 287.954 108.214 288.589 108.15 289.41H112.662V289.298ZM118.255 294.05C117.338 294.05 116.639 293.751 116.159 293.154C115.69 292.557 115.455 291.677 115.455 290.514V285.89H116.815V290.53C116.815 292.151 117.391 292.962 118.543 292.962C118.991 292.962 119.397 292.85 119.759 292.626C120.122 292.391 120.405 292.071 120.607 291.666C120.81 291.25 120.911 290.786 120.911 290.274V285.89H122.271V292.194C122.271 292.727 122.319 293.293 122.415 293.89H121.167C121.071 293.421 121.018 292.946 121.007 292.466H120.959C120.725 292.957 120.362 293.346 119.871 293.634C119.391 293.911 118.853 294.05 118.255 294.05ZM131.486 294.05C130.302 294.05 129.379 293.687 128.718 292.962C128.067 292.226 127.742 291.202 127.742 289.89C127.742 288.578 128.067 287.559 128.718 286.834C129.379 286.098 130.302 285.73 131.486 285.73C132.158 285.73 132.75 285.863 133.262 286.13C133.785 286.386 134.195 286.759 134.494 287.25L133.678 287.986C133.443 287.623 133.134 287.341 132.75 287.138C132.377 286.925 131.971 286.818 131.534 286.818C130.777 286.818 130.179 287.09 129.742 287.634C129.315 288.167 129.102 288.919 129.102 289.89C129.102 290.85 129.315 291.602 129.742 292.146C130.179 292.69 130.777 292.962 131.534 292.962C131.971 292.962 132.377 292.861 132.75 292.658C133.134 292.445 133.443 292.157 133.678 291.794L134.494 292.53C134.195 293.021 133.785 293.399 133.262 293.666C132.75 293.922 132.158 294.05 131.486 294.05ZM138.089 294.05C137.299 294.05 136.654 293.821 136.153 293.362C135.651 292.903 135.401 292.311 135.401 291.586C135.401 290.786 135.699 290.167 136.297 289.73C136.905 289.293 137.763 289.074 138.873 289.074H140.521V288.658C140.521 288.061 140.361 287.607 140.041 287.298C139.731 286.978 139.278 286.818 138.681 286.818C138.201 286.818 137.758 286.919 137.353 287.122C136.958 287.314 136.627 287.597 136.361 287.97L135.673 287.138C136.035 286.679 136.478 286.333 137.001 286.098C137.523 285.853 138.105 285.73 138.745 285.73C139.747 285.73 140.521 285.975 141.065 286.466C141.609 286.957 141.881 287.661 141.881 288.578V292.338C141.881 292.754 141.945 293.271 142.073 293.89H140.889C140.793 293.645 140.723 293.271 140.681 292.77H140.649C140.35 293.186 139.982 293.506 139.545 293.73C139.107 293.943 138.622 294.05 138.089 294.05ZM138.297 292.978C138.702 292.978 139.075 292.903 139.417 292.754C139.758 292.594 140.025 292.381 140.217 292.114C140.419 291.847 140.521 291.554 140.521 291.234V290.05H138.825C138.153 290.05 137.635 290.183 137.273 290.45C136.91 290.717 136.729 291.095 136.729 291.586C136.729 292.013 136.867 292.354 137.145 292.61C137.433 292.855 137.817 292.978 138.297 292.978ZM144.051 287.842C144.051 286.935 144.035 286.285 144.003 285.89H145.267C145.31 286.317 145.331 286.786 145.331 287.298V287.458H145.379C145.582 286.903 145.907 286.477 146.355 286.178C146.803 285.879 147.331 285.73 147.939 285.73C148.11 285.73 148.265 285.746 148.403 285.778V286.898C148.265 286.866 148.078 286.85 147.843 286.85C147.395 286.85 146.985 286.989 146.611 287.266C146.238 287.533 145.945 287.901 145.731 288.37C145.518 288.839 145.411 289.351 145.411 289.906V293.89H144.051V287.842ZM149.645 287.842C149.645 286.935 149.629 286.285 149.597 285.89H150.861C150.904 286.317 150.925 286.786 150.925 287.298V287.458H150.973C151.176 286.903 151.501 286.477 151.949 286.178C152.397 285.879 152.925 285.73 153.533 285.73C153.704 285.73 153.858 285.746 153.997 285.778V286.898C153.858 286.866 153.672 286.85 153.437 286.85C152.989 286.85 152.578 286.989 152.205 287.266C151.832 287.533 151.538 287.901 151.325 288.37C151.112 288.839 151.005 289.351 151.005 289.906V293.89H149.645V287.842ZM158.459 294.05C157.669 294.05 156.981 293.885 156.395 293.554C155.819 293.213 155.371 292.727 155.051 292.098C154.741 291.469 154.587 290.733 154.587 289.89C154.587 289.047 154.741 288.311 155.051 287.682C155.371 287.053 155.819 286.573 156.395 286.242C156.981 285.901 157.669 285.73 158.459 285.73C159.653 285.73 160.597 286.103 161.291 286.85C161.995 287.597 162.347 288.61 162.347 289.89C162.347 291.17 161.995 292.183 161.291 292.93C160.597 293.677 159.653 294.05 158.459 294.05ZM158.459 293.01C159.248 293.01 159.867 292.733 160.315 292.178C160.763 291.623 160.987 290.861 160.987 289.89C160.987 288.919 160.763 288.157 160.315 287.602C159.867 287.047 159.248 286.77 158.459 286.77C157.68 286.77 157.067 287.047 156.619 287.602C156.171 288.157 155.947 288.919 155.947 289.89C155.947 290.861 156.171 291.623 156.619 292.178C157.067 292.733 157.68 293.01 158.459 293.01ZM164.48 291.906C164.822 291.906 165.094 292.029 165.296 292.274C165.499 292.519 165.6 292.866 165.6 293.314C165.6 293.879 165.446 294.477 165.136 295.106C164.838 295.735 164.438 296.258 163.936 296.674L163.36 296.018C163.616 295.762 163.84 295.453 164.032 295.09C164.235 294.738 164.374 294.375 164.448 294.002C164.406 294.013 164.336 294.018 164.24 294.018C163.995 294.018 163.787 293.927 163.616 293.746C163.456 293.554 163.376 293.314 163.376 293.026C163.376 292.695 163.478 292.429 163.68 292.226C163.883 292.013 164.15 291.906 164.48 291.906ZM173.682 294.05C172.893 294.05 172.248 293.821 171.746 293.362C171.245 292.903 170.994 292.311 170.994 291.586C170.994 290.786 171.293 290.167 171.89 289.73C172.498 289.293 173.357 289.074 174.466 289.074H176.114V288.658C176.114 288.061 175.954 287.607 175.634 287.298C175.325 286.978 174.872 286.818 174.274 286.818C173.794 286.818 173.352 286.919 172.946 287.122C172.552 287.314 172.221 287.597 171.954 287.97L171.266 287.138C171.629 286.679 172.072 286.333 172.594 286.098C173.117 285.853 173.698 285.73 174.338 285.73C175.341 285.73 176.114 285.975 176.658 286.466C177.202 286.957 177.474 287.661 177.474 288.578V292.338C177.474 292.754 177.538 293.271 177.666 293.89H176.482C176.386 293.645 176.317 293.271 176.274 292.77H176.242C175.944 293.186 175.576 293.506 175.138 293.73C174.701 293.943 174.216 294.05 173.682 294.05ZM173.89 292.978C174.296 292.978 174.669 292.903 175.01 292.754C175.352 292.594 175.618 292.381 175.81 292.114C176.013 291.847 176.114 291.554 176.114 291.234V290.05H174.418C173.746 290.05 173.229 290.183 172.866 290.45C172.504 290.717 172.322 291.095 172.322 291.586C172.322 292.013 172.461 292.354 172.738 292.61C173.026 292.855 173.41 292.978 173.89 292.978ZM186.061 285.89L183.021 293.89H181.789L178.749 285.89H180.157L182.413 292.29L184.653 285.89H186.061ZM189.073 294.05C188.284 294.05 187.638 293.821 187.137 293.362C186.636 292.903 186.385 292.311 186.385 291.586C186.385 290.786 186.684 290.167 187.281 289.73C187.889 289.293 188.748 289.074 189.857 289.074H191.505V288.658C191.505 288.061 191.345 287.607 191.025 287.298C190.716 286.978 190.262 286.818 189.665 286.818C189.185 286.818 188.742 286.919 188.337 287.122C187.942 287.314 187.612 287.597 187.345 287.97L186.657 287.138C187.02 286.679 187.462 286.333 187.985 286.098C188.508 285.853 189.089 285.73 189.729 285.73C190.732 285.73 191.505 285.975 192.049 286.466C192.593 286.957 192.865 287.661 192.865 288.578V292.338C192.865 292.754 192.929 293.271 193.057 293.89H191.873C191.777 293.645 191.708 293.271 191.665 292.77H191.633C191.334 293.186 190.966 293.506 190.529 293.73C190.092 293.943 189.606 294.05 189.073 294.05ZM189.281 292.978C189.686 292.978 190.06 292.903 190.401 292.754C190.742 292.594 191.009 292.381 191.201 292.114C191.404 291.847 191.505 291.554 191.505 291.234V290.05H189.809C189.137 290.05 188.62 290.183 188.257 290.45C187.894 290.717 187.713 291.095 187.713 291.586C187.713 292.013 187.852 292.354 188.129 292.61C188.417 292.855 188.801 292.978 189.281 292.978ZM196.812 294.05C195.66 294.05 195.084 293.373 195.084 292.018V282.018H196.444V292.002C196.444 292.375 196.502 292.642 196.62 292.802C196.748 292.951 196.961 293.026 197.26 293.026C197.494 293.026 197.761 292.962 198.06 292.834L198.268 293.65C197.862 293.917 197.377 294.05 196.812 294.05ZM200.572 284.498C200.273 284.498 200.039 284.418 199.868 284.258C199.697 284.098 199.612 283.879 199.612 283.602C199.612 283.325 199.697 283.106 199.868 282.946C200.039 282.775 200.273 282.69 200.572 282.69C200.871 282.69 201.105 282.775 201.276 282.946C201.457 283.106 201.548 283.325 201.548 283.602C201.548 283.879 201.457 284.098 201.276 284.258C201.105 284.418 200.871 284.498 200.572 284.498ZM199.9 285.89H201.26V293.89H199.9V285.89ZM205.87 294.05C205.081 294.05 204.435 293.821 203.934 293.362C203.433 292.903 203.182 292.311 203.182 291.586C203.182 290.786 203.481 290.167 204.078 289.73C204.686 289.293 205.545 289.074 206.654 289.074H208.302V288.658C208.302 288.061 208.142 287.607 207.822 287.298C207.513 286.978 207.059 286.818 206.462 286.818C205.982 286.818 205.539 286.919 205.134 287.122C204.739 287.314 204.409 287.597 204.142 287.97L203.454 287.138C203.817 286.679 204.259 286.333 204.782 286.098C205.305 285.853 205.886 285.73 206.526 285.73C207.529 285.73 208.302 285.975 208.846 286.466C209.39 286.957 209.662 287.661 209.662 288.578V292.338C209.662 292.754 209.726 293.271 209.854 293.89H208.67C208.574 293.645 208.505 293.271 208.462 292.77H208.43C208.131 293.186 207.763 293.506 207.326 293.73C206.889 293.943 206.403 294.05 205.87 294.05ZM206.078 292.978C206.483 292.978 206.857 292.903 207.198 292.754C207.539 292.594 207.806 292.381 207.998 292.114C208.201 291.847 208.302 291.554 208.302 291.234V290.05H206.606C205.934 290.05 205.417 290.183 205.054 290.45C204.691 290.717 204.51 291.095 204.51 291.586C204.51 292.013 204.649 292.354 204.926 292.61C205.214 292.855 205.598 292.978 206.078 292.978ZM211.721 287.906C211.721 286.893 211.699 286.221 211.657 285.89H212.921C212.963 286.242 212.985 286.717 212.985 287.314H213.033C213.267 286.823 213.625 286.439 214.105 286.162C214.595 285.874 215.139 285.73 215.737 285.73C216.675 285.73 217.379 286.034 217.849 286.642C218.318 287.25 218.553 288.157 218.553 289.362V293.89H217.193V289.346C217.193 288.493 217.049 287.858 216.761 287.442C216.473 287.026 216.035 286.818 215.449 286.818C215.001 286.818 214.595 286.935 214.233 287.17C213.87 287.394 213.587 287.714 213.385 288.13C213.182 288.535 213.081 288.994 213.081 289.506V293.89H211.721V287.906ZM223.446 294.05C222.411 294.05 221.59 293.666 220.982 292.898C220.385 292.13 220.086 291.079 220.086 289.746C220.086 288.935 220.225 288.231 220.502 287.634C220.779 287.026 221.174 286.557 221.686 286.226C222.198 285.895 222.795 285.73 223.478 285.73C224.459 285.73 225.249 286.141 225.846 286.962H225.878V282.018H227.222V291.874C227.222 292.866 227.238 293.538 227.27 293.89H226.022C226.001 293.634 225.99 293.213 225.99 292.626H225.958C225.713 293.053 225.361 293.399 224.902 293.666C224.443 293.922 223.958 294.05 223.446 294.05ZM223.638 292.962C224.321 292.962 224.859 292.759 225.254 292.354C225.659 291.938 225.862 291.383 225.862 290.69V289.234C225.862 288.487 225.659 287.89 225.254 287.442C224.849 286.994 224.31 286.77 223.638 286.77C222.955 286.77 222.417 287.037 222.022 287.57C221.638 288.093 221.446 288.829 221.446 289.778C221.446 290.77 221.638 291.549 222.022 292.114C222.417 292.679 222.955 292.962 223.638 292.962ZM232.662 294.05C231.872 294.05 231.184 293.885 230.598 293.554C230.022 293.213 229.574 292.727 229.254 292.098C228.944 291.469 228.79 290.733 228.79 289.89C228.79 289.047 228.944 288.311 229.254 287.682C229.574 287.053 230.022 286.573 230.598 286.242C231.184 285.901 231.872 285.73 232.662 285.73C233.856 285.73 234.8 286.103 235.494 286.85C236.198 287.597 236.55 288.61 236.55 289.89C236.55 291.17 236.198 292.183 235.494 292.93C234.8 293.677 233.856 294.05 232.662 294.05ZM232.662 293.01C233.451 293.01 234.07 292.733 234.518 292.178C234.966 291.623 235.19 290.861 235.19 289.89C235.19 288.919 234.966 288.157 234.518 287.602C234.07 287.047 233.451 286.77 232.662 286.77C231.883 286.77 231.27 287.047 230.822 287.602C230.374 288.157 230.15 288.919 230.15 289.89C230.15 290.861 230.374 291.623 230.822 292.178C231.27 292.733 231.883 293.01 232.662 293.01ZM242.019 287.906C242.019 287.223 241.997 286.551 241.955 285.89H243.203C243.235 286.285 243.251 286.706 243.251 287.154H243.283C243.507 286.727 243.853 286.386 244.323 286.13C244.792 285.863 245.299 285.73 245.843 285.73C246.877 285.73 247.688 286.098 248.275 286.834C248.861 287.57 249.155 288.589 249.155 289.89C249.155 290.733 249.016 291.469 248.739 292.098C248.461 292.717 248.067 293.197 247.555 293.538C247.053 293.879 246.467 294.05 245.795 294.05C245.24 294.05 244.755 293.943 244.339 293.73C243.923 293.517 243.619 293.218 243.427 292.834H243.379V297.762H242.019V287.906ZM245.587 293.01C246.269 293.01 246.808 292.727 247.203 292.162C247.597 291.586 247.795 290.813 247.795 289.842C247.795 288.871 247.603 288.125 247.219 287.602C246.835 287.079 246.296 286.818 245.603 286.818C244.952 286.818 244.419 287.031 244.003 287.458C243.587 287.885 243.379 288.429 243.379 289.09V290.546C243.379 291.282 243.581 291.879 243.987 292.338C244.392 292.786 244.925 293.01 245.587 293.01ZM251.681 284.498C251.383 284.498 251.148 284.418 250.977 284.258C250.807 284.098 250.721 283.879 250.721 283.602C250.721 283.325 250.807 283.106 250.977 282.946C251.148 282.775 251.383 282.69 251.681 282.69C251.98 282.69 252.215 282.775 252.385 282.946C252.567 283.106 252.657 283.325 252.657 283.602C252.657 283.879 252.567 284.098 252.385 284.258C252.215 284.418 251.98 284.498 251.681 284.498ZM251.009 285.89H252.369V293.89H251.009V285.89ZM254.611 287.906C254.611 286.893 254.59 286.221 254.547 285.89H255.811C255.854 286.242 255.875 286.717 255.875 287.314H255.923C256.158 286.823 256.515 286.439 256.995 286.162C257.486 285.874 258.03 285.73 258.627 285.73C259.566 285.73 260.27 286.034 260.739 286.642C261.209 287.25 261.443 288.157 261.443 289.362V293.89H260.083V289.346C260.083 288.493 259.939 287.858 259.651 287.442C259.363 287.026 258.926 286.818 258.339 286.818C257.891 286.818 257.486 286.935 257.123 287.17C256.761 287.394 256.478 287.714 256.275 288.13C256.073 288.535 255.971 288.994 255.971 289.506V293.89H254.611V287.906ZM266.304 294.05C265.6 294.05 265.046 293.826 264.64 293.378C264.235 292.919 264.032 292.29 264.032 291.49V286.946H262.592V285.89H264.032V283.762L265.328 283.362H265.392V285.89H267.664V286.946H265.392V291.362C265.392 291.906 265.494 292.311 265.696 292.578C265.899 292.834 266.214 292.962 266.64 292.962C267.099 292.962 267.472 292.903 267.76 292.786L267.856 293.794C267.504 293.965 266.987 294.05 266.304 294.05ZM272.24 294.05C271.322 294.05 270.624 293.751 270.144 293.154C269.674 292.557 269.44 291.677 269.44 290.514V285.89H270.8V290.53C270.8 292.151 271.376 292.962 272.528 292.962C272.976 292.962 273.381 292.85 273.744 292.626C274.106 292.391 274.389 292.071 274.592 291.666C274.794 291.25 274.896 290.786 274.896 290.274V285.89H276.256V292.194C276.256 292.727 276.304 293.293 276.4 293.89H275.152C275.056 293.421 275.002 292.946 274.992 292.466H274.944C274.709 292.957 274.346 293.346 273.856 293.634C273.376 293.911 272.837 294.05 272.24 294.05ZM278.364 287.842C278.364 286.935 278.348 286.285 278.316 285.89H279.58C279.623 286.317 279.644 286.786 279.644 287.298V287.458H279.692C279.895 286.903 280.22 286.477 280.668 286.178C281.116 285.879 281.644 285.73 282.252 285.73C282.423 285.73 282.577 285.746 282.716 285.778V286.898C282.577 286.866 282.391 286.85 282.156 286.85C281.708 286.85 281.297 286.989 280.924 287.266C280.551 287.533 280.257 287.901 280.044 288.37C279.831 288.839 279.724 289.351 279.724 289.906V293.89H278.364V287.842ZM286.214 294.05C285.424 294.05 284.779 293.821 284.278 293.362C283.776 292.903 283.526 292.311 283.526 291.586C283.526 290.786 283.824 290.167 284.422 289.73C285.03 289.293 285.888 289.074 286.998 289.074H288.646V288.658C288.646 288.061 288.486 287.607 288.166 287.298C287.856 286.978 287.403 286.818 286.806 286.818C286.326 286.818 285.883 286.919 285.478 287.122C285.083 287.314 284.752 287.597 284.486 287.97L283.798 287.138C284.16 286.679 284.603 286.333 285.126 286.098C285.648 285.853 286.23 285.73 286.87 285.73C287.872 285.73 288.646 285.975 289.19 286.466C289.734 286.957 290.006 287.661 290.006 288.578V292.338C290.006 292.754 290.07 293.271 290.198 293.89H289.014C288.918 293.645 288.848 293.271 288.806 292.77H288.774C288.475 293.186 288.107 293.506 287.67 293.73C287.232 293.943 286.747 294.05 286.214 294.05ZM286.422 292.978C286.827 292.978 287.2 292.903 287.542 292.754C287.883 292.594 288.15 292.381 288.342 292.114C288.544 291.847 288.646 291.554 288.646 291.234V290.05H286.95C286.278 290.05 285.76 290.183 285.398 290.45C285.035 290.717 284.854 291.095 284.854 291.586C284.854 292.013 284.992 292.354 285.27 292.61C285.558 292.855 285.942 292.978 286.422 292.978ZM293.152 291.906C293.494 291.906 293.766 292.029 293.968 292.274C294.171 292.519 294.272 292.866 294.272 293.314C294.272 293.879 294.118 294.477 293.808 295.106C293.51 295.735 293.11 296.258 292.608 296.674L292.032 296.018C292.288 295.762 292.512 295.453 292.704 295.09C292.907 294.738 293.046 294.375 293.12 294.002C293.078 294.013 293.008 294.018 292.912 294.018C292.667 294.018 292.459 293.927 292.288 293.746C292.128 293.554 292.048 293.314 292.048 293.026C292.048 292.695 292.15 292.429 292.352 292.226C292.555 292.013 292.822 291.906 293.152 291.906ZM300.978 284.498C300.68 284.498 300.445 284.418 300.274 284.258C300.104 284.098 300.018 283.879 300.018 283.602C300.018 283.325 300.104 283.106 300.274 282.946C300.445 282.775 300.68 282.69 300.978 282.69C301.277 282.69 301.512 282.775 301.682 282.946C301.864 283.106 301.954 283.325 301.954 283.602C301.954 283.879 301.864 284.098 301.682 284.258C301.512 284.418 301.277 284.498 300.978 284.498ZM300.306 285.89H301.666V293.89H300.306V285.89ZM303.908 287.906C303.908 286.893 303.887 286.221 303.844 285.89H305.108C305.151 286.242 305.172 286.717 305.172 287.314H305.22C305.455 286.823 305.812 286.439 306.292 286.162C306.783 285.874 307.327 285.73 307.924 285.73C308.863 285.73 309.567 286.034 310.036 286.642C310.505 287.25 310.74 288.157 310.74 289.362V293.89H309.38V289.346C309.38 288.493 309.236 287.858 308.948 287.442C308.66 287.026 308.223 286.818 307.636 286.818C307.188 286.818 306.783 286.935 306.42 287.17C306.057 287.394 305.775 287.714 305.572 288.13C305.369 288.535 305.268 288.994 305.268 289.506V293.89H303.908V287.906ZM315.601 294.05C314.897 294.05 314.343 293.826 313.937 293.378C313.532 292.919 313.329 292.29 313.329 291.49V286.946H311.889V285.89H313.329V283.762L314.625 283.362H314.689V285.89H316.961V286.946H314.689V291.362C314.689 291.906 314.791 292.311 314.993 292.578C315.196 292.834 315.511 292.962 315.937 292.962C316.396 292.962 316.769 292.903 317.057 292.786L317.153 293.794C316.801 293.965 316.284 294.05 315.601 294.05ZM325.473 290.418H319.713C319.787 291.229 320.027 291.847 320.433 292.274C320.838 292.69 321.398 292.898 322.113 292.898C323.073 292.898 323.835 292.519 324.401 291.762L325.169 292.498C324.859 292.989 324.427 293.373 323.873 293.65C323.329 293.917 322.726 294.05 322.065 294.05C320.881 294.05 319.963 293.687 319.313 292.962C318.662 292.237 318.337 291.218 318.337 289.906C318.337 288.605 318.662 287.586 319.313 286.85C319.974 286.103 320.881 285.73 322.033 285.73C323.11 285.73 323.953 286.098 324.561 286.834C325.169 287.559 325.473 288.578 325.473 289.89V290.418ZM324.225 289.298C324.225 288.53 324.022 287.927 323.617 287.49C323.222 287.053 322.673 286.834 321.969 286.834C321.307 286.834 320.779 287.058 320.385 287.506C320.001 287.954 319.777 288.589 319.713 289.41H324.225V289.298ZM327.114 287.842C327.114 286.935 327.098 286.285 327.066 285.89H328.33C328.373 286.317 328.394 286.786 328.394 287.298V287.458H328.442C328.645 286.903 328.97 286.477 329.418 286.178C329.866 285.879 330.394 285.73 331.002 285.73C331.173 285.73 331.327 285.746 331.466 285.778V286.898C331.327 286.866 331.141 286.85 330.906 286.85C330.458 286.85 330.047 286.989 329.674 287.266C329.301 287.533 329.007 287.901 328.794 288.37C328.581 288.839 328.474 289.351 328.474 289.906V293.89H327.114V287.842ZM333.588 284.498C333.289 284.498 333.054 284.418 332.884 284.258C332.713 284.098 332.628 283.879 332.628 283.602C332.628 283.325 332.713 283.106 332.884 282.946C333.054 282.775 333.289 282.69 333.588 282.69C333.886 282.69 334.121 282.775 334.292 282.946C334.473 283.106 334.564 283.325 334.564 283.602C334.564 283.879 334.473 284.098 334.292 284.258C334.121 284.418 333.886 284.498 333.588 284.498ZM332.916 285.89H334.276V293.89H332.916V285.89ZM340.005 294.05C339.216 294.05 338.528 293.885 337.941 293.554C337.365 293.213 336.917 292.727 336.597 292.098C336.288 291.469 336.133 290.733 336.133 289.89C336.133 289.047 336.288 288.311 336.597 287.682C336.917 287.053 337.365 286.573 337.941 286.242C338.528 285.901 339.216 285.73 340.005 285.73C341.2 285.73 342.144 286.103 342.837 286.85C343.541 287.597 343.893 288.61 343.893 289.89C343.893 291.17 343.541 292.183 342.837 292.93C342.144 293.677 341.2 294.05 340.005 294.05ZM340.005 293.01C340.795 293.01 341.413 292.733 341.861 292.178C342.309 291.623 342.533 290.861 342.533 289.89C342.533 288.919 342.309 288.157 341.861 287.602C341.413 287.047 340.795 286.77 340.005 286.77C339.227 286.77 338.613 287.047 338.165 287.602C337.717 288.157 337.493 288.919 337.493 289.89C337.493 290.861 337.717 291.623 338.165 292.178C338.613 292.733 339.227 293.01 340.005 293.01ZM345.536 287.842C345.536 286.935 345.52 286.285 345.488 285.89H346.752C346.794 286.317 346.816 286.786 346.816 287.298V287.458H346.864C347.066 286.903 347.392 286.477 347.84 286.178C348.288 285.879 348.816 285.73 349.424 285.73C349.594 285.73 349.749 285.746 349.888 285.778V286.898C349.749 286.866 349.562 286.85 349.328 286.85C348.88 286.85 348.469 286.989 348.096 287.266C347.722 287.533 347.429 287.901 347.216 288.37C347.002 288.839 346.896 289.351 346.896 289.906V293.89H345.536V287.842ZM361.66 290.418H355.9C355.975 291.229 356.215 291.847 356.62 292.274C357.025 292.69 357.585 292.898 358.3 292.898C359.26 292.898 360.023 292.519 360.588 291.762L361.356 292.498C361.047 292.989 360.615 293.373 360.06 293.65C359.516 293.917 358.913 294.05 358.252 294.05C357.068 294.05 356.151 293.687 355.5 292.962C354.849 292.237 354.524 291.218 354.524 289.906C354.524 288.605 354.849 287.586 355.5 286.85C356.161 286.103 357.068 285.73 358.22 285.73C359.297 285.73 360.14 286.098 360.748 286.834C361.356 287.559 361.66 288.578 361.66 289.89V290.418ZM360.412 289.298C360.412 288.53 360.209 287.927 359.804 287.49C359.409 287.053 358.86 286.834 358.156 286.834C357.495 286.834 356.967 287.058 356.572 287.506C356.188 287.954 355.964 288.589 355.9 289.41H360.412V289.298ZM87.9636 318.05C87.1743 318.05 86.529 317.821 86.0276 317.362C85.5263 316.903 85.2756 316.311 85.2756 315.586C85.2756 314.786 85.5743 314.167 86.1716 313.73C86.7796 313.293 87.6383 313.074 88.7476 313.074H90.3956V312.658C90.3956 312.061 90.2356 311.607 89.9156 311.298C89.6063 310.978 89.153 310.818 88.5556 310.818C88.0756 310.818 87.633 310.919 87.2276 311.122C86.833 311.314 86.5023 311.597 86.2356 311.97L85.5476 311.138C85.9103 310.679 86.353 310.333 86.8756 310.098C87.3983 309.853 87.9796 309.73 88.6196 309.73C89.6223 309.73 90.3956 309.975 90.9396 310.466C91.4836 310.957 91.7556 311.661 91.7556 312.578V316.338C91.7556 316.754 91.8196 317.271 91.9476 317.89H90.7636C90.6676 317.645 90.5983 317.271 90.5556 316.77H90.5236C90.225 317.186 89.857 317.506 89.4196 317.73C88.9823 317.943 88.497 318.05 87.9636 318.05ZM88.1716 316.978C88.577 316.978 88.9503 316.903 89.2916 316.754C89.633 316.594 89.8996 316.381 90.0916 316.114C90.2943 315.847 90.3956 315.554 90.3956 315.234V314.05H88.6996C88.0276 314.05 87.5103 314.183 87.1476 314.45C86.785 314.717 86.6036 315.095 86.6036 315.586C86.6036 316.013 86.7423 316.354 87.0196 316.61C87.3076 316.855 87.6916 316.978 88.1716 316.978ZM89.4676 306.69H90.8596L89.3076 309.026H88.2196L89.4676 306.69ZM93.9264 311.842C93.9264 310.935 93.9104 310.285 93.8784 309.89H95.1424C95.185 310.317 95.2064 310.786 95.2064 311.298V311.458H95.2544C95.457 310.903 95.7824 310.477 96.2304 310.178C96.6784 309.879 97.2064 309.73 97.8144 309.73C97.985 309.73 98.1397 309.746 98.2784 309.778V310.898C98.1397 310.866 97.953 310.85 97.7184 310.85C97.2704 310.85 96.8597 310.989 96.4864 311.266C96.113 311.533 95.8197 311.901 95.6064 312.37C95.393 312.839 95.2864 313.351 95.2864 313.906V317.89H93.9264V311.842ZM106.16 314.418H100.4C100.475 315.229 100.715 315.847 101.12 316.274C101.525 316.69 102.085 316.898 102.8 316.898C103.76 316.898 104.523 316.519 105.088 315.762L105.856 316.498C105.547 316.989 105.115 317.373 104.56 317.65C104.016 317.917 103.413 318.05 102.752 318.05C101.568 318.05 100.651 317.687 100 316.962C99.3495 316.237 99.0241 315.218 99.0241 313.906C99.0241 312.605 99.3495 311.586 100 310.85C100.661 310.103 101.568 309.73 102.72 309.73C103.797 309.73 104.64 310.098 105.248 310.834C105.856 311.559 106.16 312.578 106.16 313.89V314.418ZM104.912 313.298C104.912 312.53 104.709 311.927 104.304 311.49C103.909 311.053 103.36 310.834 102.656 310.834C101.995 310.834 101.467 311.058 101.072 311.506C100.688 311.954 100.464 312.589 100.4 313.41H104.912V313.298ZM110.057 318.05C109.268 318.05 108.623 317.821 108.121 317.362C107.62 316.903 107.369 316.311 107.369 315.586C107.369 314.786 107.668 314.167 108.265 313.73C108.873 313.293 109.732 313.074 110.841 313.074H112.489V312.658C112.489 312.061 112.329 311.607 112.009 311.298C111.7 310.978 111.247 310.818 110.649 310.818C110.169 310.818 109.727 310.919 109.321 311.122C108.927 311.314 108.596 311.597 108.329 311.97L107.641 311.138C108.004 310.679 108.447 310.333 108.969 310.098C109.492 309.853 110.073 309.73 110.713 309.73C111.716 309.73 112.489 309.975 113.033 310.466C113.577 310.957 113.849 311.661 113.849 312.578V316.338C113.849 316.754 113.913 317.271 114.041 317.89H112.857C112.761 317.645 112.692 317.271 112.649 316.77H112.617C112.319 317.186 111.951 317.506 111.513 317.73C111.076 317.943 110.591 318.05 110.057 318.05ZM110.265 316.978C110.671 316.978 111.044 316.903 111.385 316.754C111.727 316.594 111.993 316.381 112.185 316.114C112.388 315.847 112.489 315.554 112.489 315.234V314.05H110.793C110.121 314.05 109.604 314.183 109.241 314.45C108.879 314.717 108.697 315.095 108.697 315.586C108.697 316.013 108.836 316.354 109.113 316.61C109.401 316.855 109.785 316.978 110.265 316.978ZM118.148 318.05C117.551 318.05 117.007 317.927 116.516 317.682C116.036 317.437 115.695 317.111 115.492 316.706L116.372 316.098C116.553 316.386 116.804 316.61 117.124 316.77C117.444 316.93 117.791 317.01 118.164 317.01C118.612 317.01 118.98 316.882 119.268 316.626C119.567 316.359 119.716 316.029 119.716 315.634C119.716 315.314 119.599 315.047 119.364 314.834C119.129 314.621 118.713 314.402 118.116 314.178C117.209 313.847 116.569 313.501 116.196 313.138C115.833 312.775 115.652 312.327 115.652 311.794C115.652 311.175 115.897 310.679 116.388 310.306C116.879 309.922 117.529 309.73 118.34 309.73C118.863 309.73 119.337 309.842 119.764 310.066C120.201 310.29 120.537 310.599 120.772 310.994L119.94 311.602C119.567 311.047 119.033 310.77 118.34 310.77C117.945 310.77 117.62 310.861 117.364 311.042C117.119 311.223 116.996 311.458 116.996 311.746C116.996 312.034 117.124 312.279 117.38 312.482C117.636 312.674 118.111 312.903 118.804 313.17C119.625 313.479 120.207 313.821 120.548 314.194C120.889 314.557 121.06 315.021 121.06 315.586C121.06 316.333 120.793 316.93 120.26 317.378C119.727 317.826 119.023 318.05 118.148 318.05ZM129.783 318.05C128.599 318.05 127.676 317.687 127.015 316.962C126.364 316.226 126.039 315.202 126.039 313.89C126.039 312.578 126.364 311.559 127.015 310.834C127.676 310.098 128.599 309.73 129.783 309.73C130.455 309.73 131.047 309.863 131.559 310.13C132.082 310.386 132.492 310.759 132.791 311.25L131.975 311.986C131.74 311.623 131.431 311.341 131.047 311.138C130.674 310.925 130.268 310.818 129.831 310.818C129.074 310.818 128.476 311.09 128.039 311.634C127.612 312.167 127.399 312.919 127.399 313.89C127.399 314.85 127.612 315.602 128.039 316.146C128.476 316.69 129.074 316.962 129.831 316.962C130.268 316.962 130.674 316.861 131.047 316.658C131.431 316.445 131.74 316.157 131.975 315.794L132.791 316.53C132.492 317.021 132.082 317.399 131.559 317.666C131.047 317.922 130.455 318.05 129.783 318.05ZM134.129 311.842C134.129 310.935 134.113 310.285 134.081 309.89H135.345C135.388 310.317 135.409 310.786 135.409 311.298V311.458H135.457C135.66 310.903 135.985 310.477 136.433 310.178C136.881 309.879 137.409 309.73 138.017 309.73C138.188 309.73 138.343 309.746 138.481 309.778V310.898C138.343 310.866 138.156 310.85 137.921 310.85C137.473 310.85 137.063 310.989 136.689 311.266C136.316 311.533 136.023 311.901 135.809 312.37C135.596 312.839 135.489 313.351 135.489 313.906V317.89H134.129V311.842ZM139.995 309.89H141.355V317.89H139.995V309.89ZM141.435 306.69H142.827L141.275 309.026H140.187L141.435 306.69ZM146.57 318.05C145.866 318.05 145.311 317.826 144.906 317.378C144.501 316.919 144.298 316.29 144.298 315.49V310.946H142.858V309.89H144.298V307.762L145.594 307.362H145.658V309.89H147.93V310.946H145.658V315.362C145.658 315.906 145.759 316.311 145.962 316.578C146.165 316.834 146.479 316.962 146.906 316.962C147.365 316.962 147.738 316.903 148.026 316.786L148.122 317.794C147.77 317.965 147.253 318.05 146.57 318.05ZM150.681 308.498C150.383 308.498 150.148 308.418 149.977 308.258C149.807 308.098 149.721 307.879 149.721 307.602C149.721 307.325 149.807 307.106 149.977 306.946C150.148 306.775 150.383 306.69 150.681 306.69C150.98 306.69 151.215 306.775 151.385 306.946C151.567 307.106 151.657 307.325 151.657 307.602C151.657 307.879 151.567 308.098 151.385 308.258C151.215 308.418 150.98 308.498 150.681 308.498ZM150.009 309.89H151.369V317.89H150.009V309.89ZM156.939 318.05C155.755 318.05 154.833 317.687 154.171 316.962C153.521 316.226 153.195 315.202 153.195 313.89C153.195 312.578 153.521 311.559 154.171 310.834C154.833 310.098 155.755 309.73 156.939 309.73C157.611 309.73 158.203 309.863 158.715 310.13C159.238 310.386 159.649 310.759 159.947 311.25L159.131 311.986C158.897 311.623 158.587 311.341 158.203 311.138C157.83 310.925 157.425 310.818 156.987 310.818C156.23 310.818 155.633 311.09 155.195 311.634C154.769 312.167 154.555 312.919 154.555 313.89C154.555 314.85 154.769 315.602 155.195 316.146C155.633 316.69 156.23 316.962 156.987 316.962C157.425 316.962 157.83 316.861 158.203 316.658C158.587 316.445 158.897 316.157 159.131 315.794L159.947 316.53C159.649 317.021 159.238 317.399 158.715 317.666C158.203 317.922 157.611 318.05 156.939 318.05ZM163.542 318.05C162.752 318.05 162.107 317.821 161.606 317.362C161.104 316.903 160.854 316.311 160.854 315.586C160.854 314.786 161.152 314.167 161.75 313.73C162.358 313.293 163.216 313.074 164.326 313.074H165.974V312.658C165.974 312.061 165.814 311.607 165.494 311.298C165.184 310.978 164.731 310.818 164.134 310.818C163.654 310.818 163.211 310.919 162.806 311.122C162.411 311.314 162.08 311.597 161.814 311.97L161.126 311.138C161.488 310.679 161.931 310.333 162.454 310.098C162.976 309.853 163.558 309.73 164.198 309.73C165.2 309.73 165.974 309.975 166.518 310.466C167.062 310.957 167.334 311.661 167.334 312.578V316.338C167.334 316.754 167.398 317.271 167.526 317.89H166.342C166.246 317.645 166.176 317.271 166.134 316.77H166.102C165.803 317.186 165.435 317.506 164.998 317.73C164.56 317.943 164.075 318.05 163.542 318.05ZM163.75 316.978C164.155 316.978 164.528 316.903 164.87 316.754C165.211 316.594 165.478 316.381 165.67 316.114C165.872 315.847 165.974 315.554 165.974 315.234V314.05H164.278C163.606 314.05 163.088 314.183 162.726 314.45C162.363 314.717 162.182 315.095 162.182 315.586C162.182 316.013 162.32 316.354 162.598 316.61C162.886 316.855 163.27 316.978 163.75 316.978ZM171.632 318.05C171.035 318.05 170.491 317.927 170 317.682C169.52 317.437 169.179 317.111 168.976 316.706L169.856 316.098C170.038 316.386 170.288 316.61 170.608 316.77C170.928 316.93 171.275 317.01 171.648 317.01C172.096 317.01 172.464 316.882 172.752 316.626C173.051 316.359 173.2 316.029 173.2 315.634C173.2 315.314 173.083 315.047 172.848 314.834C172.614 314.621 172.198 314.402 171.6 314.178C170.694 313.847 170.054 313.501 169.68 313.138C169.318 312.775 169.136 312.327 169.136 311.794C169.136 311.175 169.382 310.679 169.872 310.306C170.363 309.922 171.014 309.73 171.824 309.73C172.347 309.73 172.822 309.842 173.248 310.066C173.686 310.29 174.022 310.599 174.256 310.994L173.424 311.602C173.051 311.047 172.518 310.77 171.824 310.77C171.43 310.77 171.104 310.861 170.848 311.042C170.603 311.223 170.48 311.458 170.48 311.746C170.48 312.034 170.608 312.279 170.864 312.482C171.12 312.674 171.595 312.903 172.288 313.17C173.11 313.479 173.691 313.821 174.032 314.194C174.374 314.557 174.544 315.021 174.544 315.586C174.544 316.333 174.278 316.93 173.744 317.378C173.211 317.826 172.507 318.05 171.632 318.05ZM185.331 316.786H185.283C185.059 317.181 184.734 317.49 184.307 317.714C183.891 317.938 183.422 318.05 182.899 318.05C182.227 318.05 181.635 317.879 181.123 317.538C180.622 317.197 180.233 316.711 179.955 316.082C179.689 315.453 179.555 314.717 179.555 313.874C179.555 312.583 179.849 311.57 180.435 310.834C181.033 310.098 181.849 309.73 182.883 309.73C183.438 309.73 183.945 309.858 184.403 310.114C184.873 310.37 185.214 310.711 185.427 311.138H185.459C185.459 310.754 185.475 310.338 185.507 309.89H186.755C186.713 310.509 186.691 311.181 186.691 311.906V321.762H185.331V316.786ZM183.123 317.01C183.785 317.01 184.318 316.786 184.723 316.338C185.129 315.879 185.331 315.282 185.331 314.546V313.09C185.331 312.429 185.123 311.885 184.707 311.458C184.291 311.031 183.758 310.818 183.107 310.818C182.403 310.818 181.859 311.079 181.475 311.602C181.102 312.125 180.915 312.871 180.915 313.842C180.915 314.813 181.113 315.586 181.507 316.162C181.902 316.727 182.441 317.01 183.123 317.01ZM191.474 318.05C190.557 318.05 189.858 317.751 189.378 317.154C188.909 316.557 188.674 315.677 188.674 314.514V309.89H190.034V314.53C190.034 316.151 190.61 316.962 191.762 316.962C192.21 316.962 192.615 316.85 192.978 316.626C193.341 316.391 193.623 316.071 193.826 315.666C194.029 315.25 194.13 314.786 194.13 314.274V309.89H195.49V316.194C195.49 316.727 195.538 317.293 195.634 317.89H194.386C194.29 317.421 194.237 316.946 194.226 316.466H194.178C193.943 316.957 193.581 317.346 193.09 317.634C192.61 317.911 192.071 318.05 191.474 318.05ZM204.238 314.418H198.478C198.553 315.229 198.793 315.847 199.198 316.274C199.604 316.69 200.164 316.898 200.878 316.898C201.838 316.898 202.601 316.519 203.166 315.762L203.934 316.498C203.625 316.989 203.193 317.373 202.638 317.65C202.094 317.917 201.492 318.05 200.83 318.05C199.646 318.05 198.729 317.687 198.078 316.962C197.428 316.237 197.102 315.218 197.102 313.906C197.102 312.605 197.428 311.586 198.078 310.85C198.74 310.103 199.646 309.73 200.798 309.73C201.876 309.73 202.718 310.098 203.326 310.834C203.934 311.559 204.238 312.578 204.238 313.89V314.418ZM202.99 313.298C202.99 312.53 202.788 311.927 202.382 311.49C201.988 311.053 201.438 310.834 200.734 310.834C200.073 310.834 199.545 311.058 199.15 311.506C198.766 311.954 198.542 312.589 198.478 313.41H202.99V313.298ZM209.706 311.906C209.706 311.223 209.685 310.551 209.642 309.89H210.89C210.922 310.285 210.938 310.706 210.938 311.154H210.97C211.194 310.727 211.541 310.386 212.01 310.13C212.479 309.863 212.986 309.73 213.53 309.73C214.565 309.73 215.375 310.098 215.962 310.834C216.549 311.57 216.842 312.589 216.842 313.89C216.842 314.733 216.703 315.469 216.426 316.098C216.149 316.717 215.754 317.197 215.242 317.538C214.741 317.879 214.154 318.05 213.482 318.05C212.927 318.05 212.442 317.943 212.026 317.73C211.61 317.517 211.306 317.218 211.114 316.834H211.066V321.762H209.706V311.906ZM213.274 317.01C213.957 317.01 214.495 316.727 214.89 316.162C215.285 315.586 215.482 314.813 215.482 313.842C215.482 312.871 215.29 312.125 214.906 311.602C214.522 311.079 213.983 310.818 213.29 310.818C212.639 310.818 212.106 311.031 211.69 311.458C211.274 311.885 211.066 312.429 211.066 313.09V314.546C211.066 315.282 211.269 315.879 211.674 316.338C212.079 316.786 212.613 317.01 213.274 317.01ZM218.489 311.842C218.489 310.935 218.473 310.285 218.441 309.89H219.705C219.748 310.317 219.769 310.786 219.769 311.298V311.458H219.817C220.02 310.903 220.345 310.477 220.793 310.178C221.241 309.879 221.769 309.73 222.377 309.73C222.548 309.73 222.702 309.746 222.841 309.778V310.898C222.702 310.866 222.516 310.85 222.281 310.85C221.833 310.85 221.422 310.989 221.049 311.266C220.676 311.533 220.382 311.901 220.169 312.37C219.956 312.839 219.849 313.351 219.849 313.906V317.89H218.489V311.842ZM230.723 314.418H224.963C225.037 315.229 225.277 315.847 225.683 316.274C226.088 316.69 226.648 316.898 227.363 316.898C228.323 316.898 229.085 316.519 229.651 315.762L230.419 316.498C230.109 316.989 229.677 317.373 229.123 317.65C228.579 317.917 227.976 318.05 227.315 318.05C226.131 318.05 225.213 317.687 224.563 316.962C223.912 316.237 223.587 315.218 223.587 313.906C223.587 312.605 223.912 311.586 224.563 310.85C225.224 310.103 226.131 309.73 227.283 309.73C228.36 309.73 229.203 310.098 229.811 310.834C230.419 311.559 230.723 312.578 230.723 313.89V314.418ZM229.475 313.298C229.475 312.53 229.272 311.927 228.867 311.49C228.472 311.053 227.923 310.834 227.219 310.834C226.557 310.834 226.029 311.058 225.635 311.506C225.251 311.954 225.027 312.589 224.963 313.41H229.475V313.298ZM235.58 318.05C234.396 318.05 233.473 317.687 232.812 316.962C232.161 316.226 231.836 315.202 231.836 313.89C231.836 312.578 232.161 311.559 232.812 310.834C233.473 310.098 234.396 309.73 235.58 309.73C236.252 309.73 236.844 309.863 237.356 310.13C237.879 310.386 238.289 310.759 238.588 311.25L237.772 311.986C237.537 311.623 237.228 311.341 236.844 311.138C236.471 310.925 236.065 310.818 235.628 310.818C234.871 310.818 234.273 311.09 233.836 311.634C233.409 312.167 233.196 312.919 233.196 313.89C233.196 314.85 233.409 315.602 233.836 316.146C234.273 316.69 234.871 316.962 235.628 316.962C236.065 316.962 236.471 316.861 236.844 316.658C237.228 316.445 237.537 316.157 237.772 315.794L238.588 316.53C238.289 317.021 237.879 317.399 237.356 317.666C236.844 317.922 236.252 318.05 235.58 318.05ZM240.806 308.498C240.508 308.498 240.273 308.418 240.102 308.258C239.932 308.098 239.846 307.879 239.846 307.602C239.846 307.325 239.932 307.106 240.102 306.946C240.273 306.775 240.508 306.69 240.806 306.69C241.105 306.69 241.34 306.775 241.51 306.946C241.692 307.106 241.782 307.325 241.782 307.602C241.782 307.879 241.692 308.098 241.51 308.258C241.34 308.418 241.105 308.498 240.806 308.498ZM240.134 309.89H241.494V317.89H240.134V309.89ZM245.976 318.05C245.379 318.05 244.835 317.927 244.344 317.682C243.864 317.437 243.523 317.111 243.32 316.706L244.2 316.098C244.382 316.386 244.632 316.61 244.952 316.77C245.272 316.93 245.619 317.01 245.992 317.01C246.44 317.01 246.808 316.882 247.096 316.626C247.395 316.359 247.544 316.029 247.544 315.634C247.544 315.314 247.427 315.047 247.192 314.834C246.958 314.621 246.542 314.402 245.944 314.178C245.038 313.847 244.398 313.501 244.024 313.138C243.662 312.775 243.48 312.327 243.48 311.794C243.48 311.175 243.726 310.679 244.216 310.306C244.707 309.922 245.358 309.73 246.168 309.73C246.691 309.73 247.166 309.842 247.592 310.066C248.03 310.29 248.366 310.599 248.6 310.994L247.768 311.602C247.395 311.047 246.862 310.77 246.168 310.77C245.774 310.77 245.448 310.861 245.192 311.042C244.947 311.223 244.824 311.458 244.824 311.746C244.824 312.034 244.952 312.279 245.208 312.482C245.464 312.674 245.939 312.903 246.632 313.17C247.454 313.479 248.035 313.821 248.376 314.194C248.718 314.557 248.888 315.021 248.888 315.586C248.888 316.333 248.622 316.93 248.088 317.378C247.555 317.826 246.851 318.05 245.976 318.05ZM252.76 318.05C251.971 318.05 251.326 317.821 250.824 317.362C250.323 316.903 250.072 316.311 250.072 315.586C250.072 314.786 250.371 314.167 250.968 313.73C251.576 313.293 252.435 313.074 253.544 313.074H255.192V312.658C255.192 312.061 255.032 311.607 254.712 311.298C254.403 310.978 253.95 310.818 253.352 310.818C252.872 310.818 252.43 310.919 252.024 311.122C251.63 311.314 251.299 311.597 251.032 311.97L250.344 311.138C250.707 310.679 251.15 310.333 251.672 310.098C252.195 309.853 252.776 309.73 253.416 309.73C254.419 309.73 255.192 309.975 255.736 310.466C256.28 310.957 256.552 311.661 256.552 312.578V316.338C256.552 316.754 256.616 317.271 256.744 317.89H255.56C255.464 317.645 255.395 317.271 255.352 316.77H255.32C255.022 317.186 254.654 317.506 254.216 317.73C253.779 317.943 253.294 318.05 252.76 318.05ZM252.968 316.978C253.374 316.978 253.747 316.903 254.088 316.754C254.43 316.594 254.696 316.381 254.888 316.114C255.091 315.847 255.192 315.554 255.192 315.234V314.05H253.496C252.824 314.05 252.307 314.183 251.944 314.45C251.582 314.717 251.4 315.095 251.4 315.586C251.4 316.013 251.539 316.354 251.816 316.61C252.104 316.855 252.488 316.978 252.968 316.978ZM258.627 311.906C258.627 311.095 258.601 310.423 258.547 309.89H259.763C259.806 310.317 259.827 310.791 259.827 311.314H259.875C260.089 310.823 260.425 310.439 260.883 310.162C261.342 309.874 261.854 309.73 262.419 309.73C262.985 309.73 263.47 309.874 263.875 310.162C264.281 310.45 264.553 310.85 264.691 311.362C264.915 310.861 265.257 310.466 265.715 310.178C266.174 309.879 266.691 309.73 267.267 309.73C268.142 309.73 268.825 310.013 269.315 310.578C269.817 311.143 270.067 311.933 270.067 312.946V317.89H268.723V313.058C268.723 312.333 268.569 311.778 268.259 311.394C267.961 311.01 267.523 310.818 266.947 310.818C266.382 310.818 265.918 311.031 265.555 311.458C265.193 311.874 265.011 312.413 265.011 313.074V317.89H263.667V313.122C263.667 312.343 263.529 311.767 263.251 311.394C262.974 311.01 262.553 310.818 261.987 310.818C261.635 310.818 261.305 310.925 260.995 311.138C260.686 311.351 260.435 311.634 260.243 311.986C260.062 312.338 259.971 312.717 259.971 313.122V317.89H258.627V311.906ZM278.868 318.05C277.833 318.05 277.012 317.666 276.404 316.898C275.806 316.13 275.508 315.079 275.508 313.746C275.508 312.935 275.646 312.231 275.924 311.634C276.201 311.026 276.596 310.557 277.108 310.226C277.62 309.895 278.217 309.73 278.9 309.73C279.881 309.73 280.67 310.141 281.268 310.962H281.3V306.018H282.644V315.874C282.644 316.866 282.66 317.538 282.692 317.89H281.444C281.422 317.634 281.412 317.213 281.412 316.626H281.38C281.134 317.053 280.782 317.399 280.324 317.666C279.865 317.922 279.38 318.05 278.868 318.05ZM279.06 316.962C279.742 316.962 280.281 316.759 280.676 316.354C281.081 315.938 281.284 315.383 281.284 314.69V313.234C281.284 312.487 281.081 311.89 280.676 311.442C280.27 310.994 279.732 310.77 279.06 310.77C278.377 310.77 277.838 311.037 277.444 311.57C277.06 312.093 276.868 312.829 276.868 313.778C276.868 314.77 277.06 315.549 277.444 316.114C277.838 316.679 278.377 316.962 279.06 316.962ZM291.348 314.418H285.588C285.662 315.229 285.902 315.847 286.308 316.274C286.713 316.69 287.273 316.898 287.988 316.898C288.948 316.898 289.71 316.519 290.276 315.762L291.044 316.498C290.734 316.989 290.302 317.373 289.748 317.65C289.204 317.917 288.601 318.05 287.94 318.05C286.756 318.05 285.838 317.687 285.188 316.962C284.537 316.237 284.212 315.218 284.212 313.906C284.212 312.605 284.537 311.586 285.188 310.85C285.849 310.103 286.756 309.73 287.908 309.73C288.985 309.73 289.828 310.098 290.436 310.834C291.044 311.559 291.348 312.578 291.348 313.89V314.418ZM290.1 313.298C290.1 312.53 289.897 311.927 289.492 311.49C289.097 311.053 288.548 310.834 287.844 310.834C287.182 310.834 286.654 311.058 286.26 311.506C285.876 311.954 285.652 312.589 285.588 313.41H290.1V313.298ZM299.135 318.05C298.346 318.05 297.701 317.821 297.199 317.362C296.698 316.903 296.447 316.311 296.447 315.586C296.447 314.786 296.746 314.167 297.343 313.73C297.951 313.293 298.81 313.074 299.919 313.074H301.567V312.658C301.567 312.061 301.407 311.607 301.087 311.298C300.778 310.978 300.325 310.818 299.727 310.818C299.247 310.818 298.805 310.919 298.399 311.122C298.005 311.314 297.674 311.597 297.407 311.97L296.719 311.138C297.082 310.679 297.525 310.333 298.047 310.098C298.57 309.853 299.151 309.73 299.791 309.73C300.794 309.73 301.567 309.975 302.111 310.466C302.655 310.957 302.927 311.661 302.927 312.578V316.338C302.927 316.754 302.991 317.271 303.119 317.89H301.935C301.839 317.645 301.77 317.271 301.727 316.77H301.695C301.397 317.186 301.029 317.506 300.591 317.73C300.154 317.943 299.669 318.05 299.135 318.05ZM299.343 316.978C299.749 316.978 300.122 316.903 300.463 316.754C300.805 316.594 301.071 316.381 301.263 316.114C301.466 315.847 301.567 315.554 301.567 315.234V314.05H299.871C299.199 314.05 298.682 314.183 298.319 314.45C297.957 314.717 297.775 315.095 297.775 315.586C297.775 316.013 297.914 316.354 298.191 316.61C298.479 316.855 298.863 316.978 299.343 316.978ZM307.898 318.05C307.194 318.05 306.64 317.826 306.234 317.378C305.829 316.919 305.626 316.29 305.626 315.49V310.946H304.186V309.89H305.626V307.762L306.922 307.362H306.986V309.89H309.258V310.946H306.986V315.362C306.986 315.906 307.088 316.311 307.29 316.578C307.493 316.834 307.808 316.962 308.234 316.962C308.693 316.962 309.066 316.903 309.354 316.786L309.45 317.794C309.098 317.965 308.581 318.05 307.898 318.05ZM317.769 314.418H312.009C312.084 315.229 312.324 315.847 312.729 316.274C313.135 316.69 313.695 316.898 314.409 316.898C315.369 316.898 316.132 316.519 316.697 315.762L317.465 316.498C317.156 316.989 316.724 317.373 316.169 317.65C315.625 317.917 315.023 318.05 314.361 318.05C313.177 318.05 312.26 317.687 311.609 316.962C310.959 316.237 310.633 315.218 310.633 313.906C310.633 312.605 310.959 311.586 311.609 310.85C312.271 310.103 313.177 309.73 314.329 309.73C315.407 309.73 316.249 310.098 316.857 310.834C317.465 311.559 317.769 312.578 317.769 313.89V314.418ZM316.521 313.298C316.521 312.53 316.319 311.927 315.913 311.49C315.519 311.053 314.969 310.834 314.265 310.834C313.604 310.834 313.076 311.058 312.681 311.506C312.297 311.954 312.073 312.589 312.009 313.41H316.521V313.298ZM319.299 311.906C319.299 310.893 319.277 310.221 319.235 309.89H320.499C320.541 310.242 320.563 310.717 320.563 311.314H320.611C320.845 310.823 321.203 310.439 321.683 310.162C322.173 309.874 322.717 309.73 323.315 309.73C324.253 309.73 324.957 310.034 325.427 310.642C325.896 311.25 326.131 312.157 326.131 313.362V317.89H324.771V313.346C324.771 312.493 324.627 311.858 324.339 311.442C324.051 311.026 323.613 310.818 323.027 310.818C322.579 310.818 322.173 310.935 321.811 311.17C321.448 311.394 321.165 311.714 320.963 312.13C320.76 312.535 320.659 312.994 320.659 313.506V317.89H319.299V311.906ZM331.456 316.962C331.893 316.962 332.299 316.861 332.672 316.658C333.056 316.445 333.365 316.157 333.6 315.794L334.416 316.53C333.872 317.415 333.019 317.917 331.856 318.034L331.408 318.882C331.845 318.882 332.197 318.978 332.464 319.17C332.731 319.373 332.864 319.655 332.864 320.018C332.864 320.445 332.715 320.786 332.416 321.042C332.128 321.298 331.728 321.426 331.216 321.426C331.003 321.426 330.779 321.405 330.544 321.362C330.309 321.33 330.128 321.282 330 321.218L330.128 320.594C330.373 320.669 330.672 320.706 331.024 320.706C331.28 320.706 331.488 320.647 331.648 320.53C331.819 320.423 331.904 320.263 331.904 320.05C331.904 319.858 331.797 319.709 331.584 319.602C331.371 319.495 331.067 319.447 330.672 319.458L330.352 319.106L330.96 318.034C329.915 317.938 329.104 317.533 328.528 316.818C327.952 316.093 327.664 315.117 327.664 313.89C327.664 312.578 327.989 311.559 328.64 310.834C329.301 310.098 330.224 309.73 331.408 309.73C332.08 309.73 332.672 309.863 333.184 310.13C333.707 310.386 334.117 310.759 334.416 311.25L333.6 311.986C333.365 311.623 333.056 311.341 332.672 311.138C332.299 310.925 331.893 310.818 331.456 310.818C330.699 310.818 330.101 311.09 329.664 311.634C329.237 312.167 329.024 312.919 329.024 313.89C329.024 314.85 329.237 315.602 329.664 316.146C330.101 316.69 330.699 316.962 331.456 316.962ZM338.01 318.05C337.221 318.05 336.576 317.821 336.074 317.362C335.573 316.903 335.322 316.311 335.322 315.586C335.322 314.786 335.621 314.167 336.218 313.73C336.826 313.293 337.685 313.074 338.794 313.074H340.442V312.658C340.442 312.061 340.282 311.607 339.962 311.298C339.653 310.978 339.2 310.818 338.602 310.818C338.122 310.818 337.68 310.919 337.274 311.122C336.88 311.314 336.549 311.597 336.282 311.97L335.594 311.138C335.957 310.679 336.4 310.333 336.922 310.098C337.445 309.853 338.026 309.73 338.666 309.73C339.669 309.73 340.442 309.975 340.986 310.466C341.53 310.957 341.802 311.661 341.802 312.578V316.338C341.802 316.754 341.866 317.271 341.994 317.89H340.81C340.714 317.645 340.645 317.271 340.602 316.77H340.57C340.272 317.186 339.904 317.506 339.466 317.73C339.029 317.943 338.544 318.05 338.01 318.05ZM338.218 316.978C338.624 316.978 338.997 316.903 339.338 316.754C339.68 316.594 339.946 316.381 340.138 316.114C340.341 315.847 340.442 315.554 340.442 315.234V314.05H338.746C338.074 314.05 337.557 314.183 337.194 314.45C336.832 314.717 336.65 315.095 336.65 315.586C336.65 316.013 336.789 316.354 337.066 316.61C337.354 316.855 337.738 316.978 338.218 316.978ZM336.41 309.026C336.41 308.546 336.528 308.157 336.762 307.858C337.008 307.559 337.322 307.41 337.706 307.41C337.898 307.41 338.069 307.442 338.218 307.506C338.378 307.57 338.602 307.682 338.89 307.842C339.221 308.055 339.472 308.162 339.642 308.162C339.792 308.162 339.904 308.098 339.978 307.97C340.064 307.842 340.117 307.634 340.138 307.346H340.97C340.96 307.858 340.832 308.269 340.586 308.578C340.341 308.877 340.021 309.026 339.626 309.026C339.424 309.026 339.232 308.989 339.05 308.914C338.869 308.829 338.65 308.711 338.394 308.562C338.085 308.37 337.866 308.274 337.738 308.274C337.6 308.274 337.482 308.343 337.386 308.482C337.301 308.61 337.253 308.791 337.242 309.026H336.41ZM347.349 318.05C346.56 318.05 345.872 317.885 345.285 317.554C344.709 317.213 344.261 316.727 343.941 316.098C343.632 315.469 343.477 314.733 343.477 313.89C343.477 313.047 343.632 312.311 343.941 311.682C344.261 311.053 344.709 310.573 345.285 310.242C345.872 309.901 346.56 309.73 347.349 309.73C348.544 309.73 349.488 310.103 350.181 310.85C350.885 311.597 351.237 312.61 351.237 313.89C351.237 315.17 350.885 316.183 350.181 316.93C349.488 317.677 348.544 318.05 347.349 318.05ZM347.349 317.01C348.139 317.01 348.757 316.733 349.205 316.178C349.653 315.623 349.877 314.861 349.877 313.89C349.877 312.919 349.653 312.157 349.205 311.602C348.757 311.047 348.139 310.77 347.349 310.77C346.571 310.77 345.957 311.047 345.509 311.602C345.061 312.157 344.837 312.919 344.837 313.89C344.837 314.861 345.061 315.623 345.509 316.178C345.957 316.733 346.571 317.01 347.349 317.01ZM353.339 318.05C353.04 318.05 352.8 317.954 352.619 317.762C352.438 317.559 352.347 317.303 352.347 316.994C352.347 316.685 352.438 316.434 352.619 316.242C352.8 316.05 353.04 315.954 353.339 315.954C353.638 315.954 353.878 316.05 354.059 316.242C354.24 316.434 354.331 316.685 354.331 316.994C354.331 317.303 354.24 317.559 354.059 317.762C353.878 317.954 353.638 318.05 353.339 318.05Z" fill="#D3D3D3"/>
<rect x="195" y="137.29" width="50" height="50" rx="25" fill="#FF3D24" fill-opacity="0.7"/>
<rect x="195" y="137.3" width="50" height="50" rx="25" fill="#FF3D24" fill-opacity="0.7"/>
<rect x="195" y="137.3" width="50" height="50" rx="25" fill="#FF3D24" fill-opacity="0.7"/>
<g clip-path="url(#clip0_1_136)">
<g clip-path="url(#clip1_1_136)">
<g clip-path="url(#clip2_1_136)">
<path d="M220 153.005C214.711 153.005 210.37 157.345 210.37 162.634C210.37 167.923 214.711 172.264 220 172.264C225.289 172.264 229.63 167.923 229.63 162.634C229.63 157.345 225.289 153.005 220 153.005ZM221.617 167.978C221.526 168.146 220.884 169.091 220.469 169.718C220.299 169.974 219.951 170.049 219.687 169.875C219.427 169.702 219.357 169.352 219.531 169.092L220.074 168.277H218.872C218.871 168.277 218.87 168.276 218.87 168.276C218.44 168.275 218.157 167.767 218.402 167.399L219.531 165.707C219.702 165.447 220.053 165.377 220.313 165.55C220.573 165.723 220.643 166.073 220.469 166.333L219.926 167.148H221.128C221.539 167.148 221.823 167.602 221.617 167.978ZM224.379 167.039C224.094 167.159 223.761 167.027 223.639 166.739C223.02 165.274 221.591 164.327 220 164.327C218.409 164.327 216.98 165.274 216.361 166.739C216.239 167.027 215.907 167.16 215.621 167.039C215.334 166.918 215.2 166.587 215.321 166.3C216.076 164.515 217.767 163.342 219.682 163.222L221.787 160.064C221.96 159.804 222.309 159.735 222.57 159.908C222.829 160.081 222.899 160.431 222.726 160.69L220.983 163.306C222.616 163.627 224.013 164.725 224.679 166.3C224.8 166.587 224.666 166.918 224.379 167.039ZM226.758 165.488C226.636 165.773 226.307 165.909 226.018 165.787C225.731 165.665 225.597 165.334 225.718 165.047C225.968 164.458 226.093 163.834 226.151 163.198H225.642C225.331 163.198 225.078 162.946 225.078 162.634C225.078 162.322 225.331 162.07 225.642 162.07H226.178C226.113 161.349 225.921 160.665 225.629 160.036L225.169 160.302C224.902 160.456 224.555 160.367 224.398 160.095C224.242 159.825 224.334 159.48 224.604 159.324L225.065 159.059C224.656 158.482 224.153 157.978 223.576 157.57L223.31 158.03C223.153 158.302 222.806 158.391 222.539 158.237C222.269 158.081 222.177 157.736 222.332 157.466L222.598 157.005C221.969 156.714 221.285 156.522 220.564 156.456V156.992C220.564 157.304 220.312 157.556 220 157.556C219.688 157.556 219.436 157.304 219.436 156.992V156.456C218.715 156.522 218.031 156.714 217.402 157.005L217.668 157.466C217.824 157.736 217.731 158.081 217.461 158.237C217.194 158.391 216.848 158.302 216.69 158.03L216.424 157.57C215.848 157.978 215.344 158.482 214.936 159.059L215.396 159.324C215.666 159.48 215.758 159.825 215.602 160.095C215.445 160.367 215.099 160.456 214.832 160.302L214.371 160.036C214.079 160.665 213.887 161.349 213.822 162.07H214.358C214.67 162.07 214.922 162.322 214.922 162.634C214.922 162.946 214.67 163.198 214.358 163.198H213.849C213.907 163.834 214.032 164.458 214.282 165.047C214.403 165.334 214.269 165.665 213.982 165.787C213.696 165.907 213.365 165.776 213.242 165.488C212.859 164.583 212.665 163.623 212.665 162.634C212.665 158.605 215.965 155.299 220 155.299C223.995 155.299 227.335 158.563 227.335 162.634C227.335 163.623 227.141 164.583 226.758 165.488Z" fill="white"/>
</g>
</g>
</g>
</g>
<defs>
<clipPath id="clip0_1_136">
<rect width="20" height="20" fill="white" transform="translate(210 152.3)"/>
</clipPath>
<clipPath id="clip1_1_136">
<rect width="20" height="20" fill="white" transform="translate(210 152.3)"/>
</clipPath>
<clipPath id="clip2_1_136">
<rect width="19.2593" height="20" fill="white" transform="translate(210.37 152.3)"/>
</clipPath>
</defs>
</svg>
