<svg width="440" height="368" viewBox="0 0 440 368" fill="none" xmlns="http://www.w3.org/2000/svg">
<g opacity="0.999989">
<mask id="path-1-outside-1_1_185" maskUnits="userSpaceOnUse" x="13.5" y="31.5" width="16" height="22" fill="black">
<rect fill="white" x="13.5" y="31.5" width="16" height="22"/>
<path d="M15.236 51.044V48.86H23.356C23.916 48.86 24.196 48.58 24.196 48.02V45.22C24.196 44.66 23.916 44.38 23.356 44.38H17.308V40.74H23.356C23.916 40.74 24.196 40.46 24.196 39.9V37.66C24.196 37.1 23.916 36.82 23.356 36.82H15.516V34.636L17.392 33.18H23.524C26.66 33.18 28.228 34.748 28.228 37.884V39.676C28.228 40.4227 27.9947 41.0293 27.528 41.496L26.548 42.476L27.528 43.456C27.9947 43.9227 28.228 44.5293 28.228 45.276V47.796C28.228 50.932 26.66 52.5 23.524 52.5H17.112L15.236 51.044Z"/>
</mask>
<path d="M15.236 51.044H14.236V51.5337L14.6229 51.834L15.236 51.044ZM15.236 48.86V47.86H14.236V48.86H15.236ZM17.308 44.38H16.308V45.38H17.308V44.38ZM17.308 40.74V39.74H16.308V40.74H17.308ZM15.516 36.82H14.516V37.82H15.516V36.82ZM15.516 34.636L14.9029 33.846L14.516 34.1463V34.636H15.516ZM17.392 33.18V32.18H17.0495L16.7789 32.39L17.392 33.18ZM27.528 41.496L28.2351 42.2031L28.2351 42.2031L27.528 41.496ZM26.548 42.476L25.8409 41.7689L25.1338 42.476L25.8409 43.1831L26.548 42.476ZM27.528 43.456L28.2351 42.7489H28.2351L27.528 43.456ZM17.112 52.5L16.4989 53.29L16.7695 53.5H17.112V52.5ZM16.236 51.044V48.86H14.236V51.044H16.236ZM15.236 49.86H23.356V47.86H15.236V49.86ZM23.356 49.86C23.7901 49.86 24.2994 49.7508 24.6931 49.3571C25.0868 48.9634 25.196 48.4541 25.196 48.02H23.196C23.196 48.0797 23.1882 48.0911 23.1948 48.0713C23.2031 48.0466 23.2267 47.9951 23.2789 47.9429C23.3311 47.8907 23.3826 47.8671 23.4073 47.8588C23.4271 47.8522 23.4157 47.86 23.356 47.86V49.86ZM25.196 48.02V45.22H23.196V48.02H25.196ZM25.196 45.22C25.196 44.7859 25.0868 44.2766 24.6931 43.8829C24.2994 43.4892 23.7901 43.38 23.356 43.38V45.38C23.4157 45.38 23.4271 45.3878 23.4073 45.3812C23.3826 45.3729 23.3311 45.3493 23.2789 45.2971C23.2267 45.2449 23.2031 45.1934 23.1948 45.1687C23.1882 45.1489 23.196 45.1603 23.196 45.22H25.196ZM23.356 43.38H17.308V45.38H23.356V43.38ZM18.308 44.38V40.74H16.308V44.38H18.308ZM17.308 41.74H23.356V39.74H17.308V41.74ZM23.356 41.74C23.7901 41.74 24.2994 41.6308 24.6931 41.2371C25.0868 40.8434 25.196 40.3341 25.196 39.9H23.196C23.196 39.9597 23.1882 39.9711 23.1948 39.9513C23.2031 39.9266 23.2267 39.8751 23.2789 39.8229C23.3311 39.7707 23.3826 39.7471 23.4073 39.7388C23.4271 39.7322 23.4157 39.74 23.356 39.74V41.74ZM25.196 39.9V37.66H23.196V39.9H25.196ZM25.196 37.66C25.196 37.2259 25.0868 36.7166 24.6931 36.3229C24.2994 35.9292 23.7901 35.82 23.356 35.82V37.82C23.4157 37.82 23.4271 37.8278 23.4073 37.8212C23.3826 37.8129 23.3311 37.7893 23.2789 37.7371C23.2267 37.6849 23.2031 37.6334 23.1948 37.6087C23.1882 37.5889 23.196 37.6003 23.196 37.66H25.196ZM23.356 35.82H15.516V37.82H23.356V35.82ZM16.516 36.82V34.636H14.516V36.82H16.516ZM16.1291 35.426L18.0051 33.97L16.7789 32.39L14.9029 33.846L16.1291 35.426ZM17.392 34.18H23.524V32.18H17.392V34.18ZM23.524 34.18C24.9379 34.18 25.8146 34.5328 26.3449 35.0631C26.8752 35.5934 27.228 36.4701 27.228 37.884H29.228C29.228 36.1619 28.7968 34.6866 27.7591 33.6489C26.7214 32.6112 25.2461 32.18 23.524 32.18V34.18ZM27.228 37.884V39.676H29.228V37.884H27.228ZM27.228 39.676C27.228 40.1954 27.0748 40.535 26.8209 40.7889L28.2351 42.2031C28.9146 41.5237 29.228 40.6499 29.228 39.676H27.228ZM26.8209 40.7889L25.8409 41.7689L27.2551 43.1831L28.2351 42.2031L26.8209 40.7889ZM25.8409 43.1831L26.8209 44.1631L28.2351 42.7489L27.2551 41.7689L25.8409 43.1831ZM26.8209 44.1631C27.0748 44.417 27.228 44.7566 27.228 45.276H29.228C29.228 44.3021 28.9146 43.4283 28.2351 42.7489L26.8209 44.1631ZM27.228 45.276V47.796H29.228V45.276H27.228ZM27.228 47.796C27.228 49.2099 26.8752 50.0866 26.3449 50.6169C25.8146 51.1472 24.9379 51.5 23.524 51.5V53.5C25.2461 53.5 26.7214 53.0688 27.7591 52.0311C28.7968 50.9934 29.228 49.5181 29.228 47.796H27.228ZM23.524 51.5H17.112V53.5H23.524V51.5ZM17.7251 51.71L15.8491 50.254L14.6229 51.834L16.4989 53.29L17.7251 51.71Z" fill="white" mask="url(#path-1-outside-1_1_185)"/>
<rect x="30.5" y="44.395" width="396" height="1" fill="white"/>
<rect width="413" height="280.6" transform="translate(13.5 87.29)" fill="black"/>
<path d="M83.2033 228.89V209.57H92.6113C95.7473 209.57 97.3153 211.138 97.3153 214.274V217.466C97.3153 219.799 96.4473 221.255 94.7113 221.834L97.8753 228.05L97.3993 228.89H93.9273L90.5113 222.17H87.2353V228.89H83.2033ZM87.2353 218.53H92.4433C93.0033 218.53 93.2833 218.25 93.2833 217.69V214.05C93.2833 213.49 93.0033 213.21 92.4433 213.21H87.2353V218.53ZM100.856 224.354V218.642C100.856 215.618 102.368 214.106 105.392 214.106H109.032C112.056 214.106 113.568 215.618 113.568 218.642V222.926H104.72V224.634C104.72 225.231 105.018 225.53 105.616 225.53H113.008V227.63L111.328 228.89H105.392C102.368 228.89 100.856 227.378 100.856 224.354ZM104.72 219.958H109.704V218.362C109.704 217.765 109.405 217.466 108.808 217.466H105.616C105.018 217.466 104.72 217.765 104.72 218.362V219.958ZM116.872 227.63V225.53H123.312C123.947 225.53 124.264 225.175 124.264 224.466C124.264 223.738 124.003 223.327 123.48 223.234L120.456 222.73C118.067 222.319 116.872 220.938 116.872 218.586C116.872 215.599 118.384 214.106 121.408 214.106H125.748L127.428 215.366V217.466H121.632C120.998 217.466 120.68 217.821 120.68 218.53C120.68 219.277 120.97 219.697 121.548 219.79L124.544 220.294C126.915 220.686 128.1 222.049 128.1 224.382C128.1 227.387 126.579 228.89 123.536 228.89H118.552L116.872 227.63ZM131.483 224.354V214.106H135.347V224.634C135.347 225.231 135.646 225.53 136.243 225.53H140.331V214.106H144.195V228.89H136.019C132.995 228.89 131.483 227.378 131.483 224.354ZM148.108 223.514V208.17H151.972V223.906C151.972 225.063 152.57 225.707 153.764 225.838V229.17C149.994 229.17 148.108 227.285 148.108 223.514ZM156.776 224.354V209.57H160.64V214.106H165.456V217.466H160.64V224.634C160.64 225.231 160.939 225.53 161.536 225.53H165.736V227.63L164.056 228.89H161.312C158.288 228.89 156.776 227.378 156.776 224.354ZM172.507 228.89C169.483 228.89 167.971 227.406 167.971 224.438C167.971 221.47 169.483 219.986 172.507 219.986H176.371V218.362C176.371 217.765 176.073 217.466 175.475 217.466H169.539V215.366L171.219 214.106H175.699C178.723 214.106 180.235 215.618 180.235 218.642V228.89H172.507ZM171.835 224.634C171.835 225.231 172.134 225.53 172.731 225.53H176.371V222.954H172.731C172.134 222.954 171.835 223.253 171.835 223.85V224.634ZM183.926 224.354V218.642C183.926 215.618 185.438 214.106 188.462 214.106H192.774V208.17H196.638V228.89H188.462C185.438 228.89 183.926 227.378 183.926 224.354ZM187.79 224.634C187.79 225.231 188.089 225.53 188.686 225.53H192.774V217.466H188.686C188.089 217.466 187.79 217.765 187.79 218.362V224.634ZM200.442 224.354V218.642C200.442 215.618 201.954 214.106 204.978 214.106H208.898C211.922 214.106 213.434 215.618 213.434 218.642V224.354C213.434 227.378 211.922 228.89 208.898 228.89H204.978C201.954 228.89 200.442 227.378 200.442 224.354ZM204.306 224.634C204.306 225.231 204.604 225.53 205.202 225.53H208.674C209.271 225.53 209.57 225.231 209.57 224.634V218.362C209.57 217.765 209.271 217.466 208.674 217.466H205.202C204.604 217.466 204.306 217.765 204.306 218.362V224.634ZM224.242 228.89V209.57H228.274V228.89H224.242ZM232.576 228.89V214.106H249.432C252.456 214.106 253.968 215.618 253.968 218.642V228.89H250.104V218.362C250.104 217.765 249.805 217.466 249.208 217.466H245.204V228.89H241.34V217.466H236.44V228.89H232.576ZM257.896 234.49V214.106H266.072C269.096 214.106 270.608 215.618 270.608 218.642V224.354C270.608 227.378 269.096 228.89 266.072 228.89H261.76V234.49H257.896ZM261.76 225.53H265.848C266.445 225.53 266.744 225.231 266.744 224.634V218.362C266.744 217.765 266.445 217.466 265.848 217.466H261.76V225.53ZM274.188 224.354V218.642C274.188 215.618 275.7 214.106 278.724 214.106H282.364C285.388 214.106 286.9 215.618 286.9 218.642V222.926H278.052V224.634C278.052 225.231 278.35 225.53 278.948 225.53H286.34V227.63L284.66 228.89H278.724C275.7 228.89 274.188 227.378 274.188 224.354ZM278.052 219.958H283.036V218.362C283.036 217.765 282.737 217.466 282.14 217.466H278.948C278.35 217.466 278.052 217.765 278.052 218.362V219.958ZM290.485 224.354V218.642C290.485 215.618 291.997 214.106 295.021 214.106H300.229L301.909 215.366V217.466H295.245C294.647 217.466 294.349 217.765 294.349 218.362V224.634C294.349 225.231 294.647 225.53 295.245 225.53H301.909V227.63L300.229 228.89H295.021C291.997 228.89 290.485 227.378 290.485 224.354ZM308.953 228.89C305.929 228.89 304.417 227.406 304.417 224.438C304.417 221.47 305.929 219.986 308.953 219.986H312.817V218.362C312.817 217.765 312.518 217.466 311.921 217.466H305.985V215.366L307.665 214.106H312.145C315.169 214.106 316.681 215.618 316.681 218.642V228.89H308.953ZM308.281 224.634C308.281 225.231 308.579 225.53 309.177 225.53H312.817V222.954H309.177C308.579 222.954 308.281 223.253 308.281 223.85V224.634ZM308.533 210.998L312.397 206.602L314.497 208.59L310.353 212.762L308.533 210.998ZM319.083 214.694L319.475 214.106H322.807L326.223 225.53H326.503L329.919 214.106H333.251L333.643 214.694L329.191 228.89H323.535L319.083 214.694ZM335.93 224.354V218.642C335.93 215.618 337.442 214.106 340.466 214.106H344.106C347.13 214.106 348.642 215.618 348.642 218.642V222.926H339.794V224.634C339.794 225.231 340.092 225.53 340.69 225.53H348.082V227.63L346.402 228.89H340.466C337.442 228.89 335.93 227.378 335.93 224.354ZM339.794 219.958H344.778V218.362C344.778 217.765 344.479 217.466 343.882 217.466H340.69C340.092 217.466 339.794 217.765 339.794 218.362V219.958ZM352.339 223.514V208.17H356.203V223.906C356.203 225.063 356.8 225.707 357.995 225.838V229.17C354.224 229.17 352.339 227.285 352.339 223.514Z" fill="white"/>
<path d="M61.4941 258.69H68.2141V259.906H62.9661V263.394H67.6541V264.61H62.9661V268.674H68.2141V269.89H61.4941V258.69ZM72.0022 265.826L69.4102 261.89H70.9302L72.7062 264.866L74.4822 261.89H76.0022L73.4102 265.826L76.2102 269.89H74.6742L72.7062 266.69L70.7382 269.89H69.2022L72.0022 265.826ZM84.0976 266.418H78.3376C78.4123 267.229 78.6523 267.847 79.0576 268.274C79.463 268.69 80.023 268.898 80.7376 268.898C81.6976 268.898 82.4603 268.519 83.0256 267.762L83.7936 268.498C83.4843 268.989 83.0523 269.373 82.4976 269.65C81.9536 269.917 81.351 270.05 80.6896 270.05C79.5056 270.05 78.5883 269.687 77.9376 268.962C77.287 268.237 76.9616 267.218 76.9616 265.906C76.9616 264.605 77.287 263.586 77.9376 262.85C78.599 262.103 79.5056 261.73 80.6576 261.73C81.735 261.73 82.5776 262.098 83.1856 262.834C83.7936 263.559 84.0976 264.578 84.0976 265.89V266.418ZM82.8496 265.298C82.8496 264.53 82.647 263.927 82.2416 263.49C81.847 263.053 81.2976 262.834 80.5936 262.834C79.9323 262.834 79.4043 263.058 79.0096 263.506C78.6256 263.954 78.4016 264.589 78.3376 265.41H82.8496V265.298ZM88.9549 270.05C87.7709 270.05 86.8482 269.687 86.1869 268.962C85.5362 268.226 85.2109 267.202 85.2109 265.89C85.2109 264.578 85.5362 263.559 86.1869 262.834C86.8482 262.098 87.7709 261.73 88.9549 261.73C89.6269 261.73 90.2189 261.863 90.7309 262.13C91.2535 262.386 91.6642 262.759 91.9629 263.25L91.1469 263.986C90.9122 263.623 90.6029 263.341 90.2189 263.138C89.8455 262.925 89.4402 262.818 89.0029 262.818C88.2455 262.818 87.6482 263.09 87.2109 263.634C86.7842 264.167 86.5709 264.919 86.5709 265.89C86.5709 266.85 86.7842 267.602 87.2109 268.146C87.6482 268.69 88.2455 268.962 89.0029 268.962C89.4402 268.962 89.8455 268.861 90.2189 268.658C90.6029 268.445 90.9122 268.157 91.1469 267.794L91.9629 268.53C91.6642 269.021 91.2535 269.399 90.7309 269.666C90.2189 269.922 89.6269 270.05 88.9549 270.05ZM96.0054 270.05C95.088 270.05 94.3894 269.751 93.9094 269.154C93.44 268.557 93.2054 267.677 93.2054 266.514V261.89H94.5654V266.53C94.5654 268.151 95.1414 268.962 96.2934 268.962C96.7414 268.962 97.1467 268.85 97.5094 268.626C97.872 268.391 98.1547 268.071 98.3574 267.666C98.56 267.25 98.6614 266.786 98.6614 266.274V261.89H100.021V268.194C100.021 268.727 100.069 269.293 100.165 269.89H98.9174C98.8214 269.421 98.768 268.946 98.7574 268.466H98.7094C98.4747 268.957 98.112 269.346 97.6214 269.634C97.1414 269.911 96.6027 270.05 96.0054 270.05ZM104.929 270.05C104.225 270.05 103.671 269.826 103.265 269.378C102.86 268.919 102.657 268.29 102.657 267.49V262.946H101.217V261.89H102.657V259.762L103.953 259.362H104.017V261.89H106.289V262.946H104.017V267.362C104.017 267.906 104.119 268.311 104.321 268.578C104.524 268.834 104.839 268.962 105.265 268.962C105.724 268.962 106.097 268.903 106.385 268.786L106.481 269.794C106.129 269.965 105.612 270.05 104.929 270.05ZM110.417 270.05C109.627 270.05 108.982 269.821 108.481 269.362C107.979 268.903 107.729 268.311 107.729 267.586C107.729 266.786 108.027 266.167 108.625 265.73C109.233 265.293 110.091 265.074 111.201 265.074H112.849V264.658C112.849 264.061 112.689 263.607 112.369 263.298C112.059 262.978 111.606 262.818 111.009 262.818C110.529 262.818 110.086 262.919 109.681 263.122C109.286 263.314 108.955 263.597 108.689 263.97L108.001 263.138C108.363 262.679 108.806 262.333 109.329 262.098C109.851 261.853 110.433 261.73 111.073 261.73C112.075 261.73 112.849 261.975 113.393 262.466C113.937 262.957 114.209 263.661 114.209 264.578V268.338C114.209 268.754 114.273 269.271 114.401 269.89H113.217C113.121 269.645 113.051 269.271 113.009 268.77H112.977C112.678 269.186 112.31 269.506 111.873 269.73C111.435 269.943 110.95 270.05 110.417 270.05ZM110.625 268.978C111.03 268.978 111.403 268.903 111.745 268.754C112.086 268.594 112.353 268.381 112.545 268.114C112.747 267.847 112.849 267.554 112.849 267.234V266.05H111.153C110.481 266.05 109.963 266.183 109.601 266.45C109.238 266.717 109.057 267.095 109.057 267.586C109.057 268.013 109.195 268.354 109.473 268.61C109.761 268.855 110.145 268.978 110.625 268.978ZM116.283 263.906C116.283 263.095 116.257 262.423 116.203 261.89H117.419C117.462 262.317 117.483 262.791 117.483 263.314H117.531C117.745 262.823 118.081 262.439 118.539 262.162C118.998 261.874 119.51 261.73 120.075 261.73C120.641 261.73 121.126 261.874 121.531 262.162C121.937 262.45 122.209 262.85 122.347 263.362C122.571 262.861 122.913 262.466 123.371 262.178C123.83 261.879 124.347 261.73 124.923 261.73C125.798 261.73 126.481 262.013 126.971 262.578C127.473 263.143 127.723 263.933 127.723 264.946V269.89H126.379V265.058C126.379 264.333 126.225 263.778 125.915 263.394C125.617 263.01 125.179 262.818 124.603 262.818C124.038 262.818 123.574 263.031 123.211 263.458C122.849 263.874 122.667 264.413 122.667 265.074V269.89H121.323V265.122C121.323 264.343 121.185 263.767 120.907 263.394C120.63 263.01 120.209 262.818 119.643 262.818C119.291 262.818 118.961 262.925 118.651 263.138C118.342 263.351 118.091 263.634 117.899 263.986C117.718 264.338 117.627 264.717 117.627 265.122V269.89H116.283V263.906ZM133.177 270.05C132.388 270.05 131.7 269.885 131.113 269.554C130.537 269.213 130.089 268.727 129.769 268.098C129.46 267.469 129.305 266.733 129.305 265.89C129.305 265.047 129.46 264.311 129.769 263.682C130.089 263.053 130.537 262.573 131.113 262.242C131.7 261.901 132.388 261.73 133.177 261.73C134.372 261.73 135.316 262.103 136.009 262.85C136.713 263.597 137.065 264.61 137.065 265.89C137.065 267.17 136.713 268.183 136.009 268.93C135.316 269.677 134.372 270.05 133.177 270.05ZM133.177 269.01C133.967 269.01 134.585 268.733 135.033 268.178C135.481 267.623 135.705 266.861 135.705 265.89C135.705 264.919 135.481 264.157 135.033 263.602C134.585 263.047 133.967 262.77 133.177 262.77C132.399 262.77 131.785 263.047 131.337 263.602C130.889 264.157 130.665 264.919 130.665 265.89C130.665 266.861 130.889 267.623 131.337 268.178C131.785 268.733 132.399 269.01 133.177 269.01ZM140.836 270.05C140.238 270.05 139.694 269.927 139.204 269.682C138.724 269.437 138.382 269.111 138.18 268.706L139.06 268.098C139.241 268.386 139.492 268.61 139.812 268.77C140.132 268.93 140.478 269.01 140.852 269.01C141.3 269.01 141.668 268.882 141.956 268.626C142.254 268.359 142.404 268.029 142.404 267.634C142.404 267.314 142.286 267.047 142.052 266.834C141.817 266.621 141.401 266.402 140.804 266.178C139.897 265.847 139.257 265.501 138.884 265.138C138.521 264.775 138.34 264.327 138.34 263.794C138.34 263.175 138.585 262.679 139.076 262.306C139.566 261.922 140.217 261.73 141.028 261.73C141.55 261.73 142.025 261.842 142.452 262.066C142.889 262.29 143.225 262.599 143.46 262.994L142.628 263.602C142.254 263.047 141.721 262.77 141.028 262.77C140.633 262.77 140.308 262.861 140.052 263.042C139.806 263.223 139.684 263.458 139.684 263.746C139.684 264.034 139.812 264.279 140.068 264.482C140.324 264.674 140.798 264.903 141.492 265.17C142.313 265.479 142.894 265.821 143.236 266.194C143.577 266.557 143.748 267.021 143.748 267.586C143.748 268.333 143.481 268.93 142.948 269.378C142.414 269.826 141.71 270.05 140.836 270.05ZM152.63 270.05C151.841 270.05 151.153 269.885 150.566 269.554C149.99 269.213 149.542 268.727 149.222 268.098C148.913 267.469 148.758 266.733 148.758 265.89C148.758 265.047 148.913 264.311 149.222 263.682C149.542 263.053 149.99 262.573 150.566 262.242C151.153 261.901 151.841 261.73 152.63 261.73C153.825 261.73 154.769 262.103 155.462 262.85C156.166 263.597 156.518 264.61 156.518 265.89C156.518 267.17 156.166 268.183 155.462 268.93C154.769 269.677 153.825 270.05 152.63 270.05ZM152.63 269.01C153.42 269.01 154.038 268.733 154.486 268.178C154.934 267.623 155.158 266.861 155.158 265.89C155.158 264.919 154.934 264.157 154.486 263.602C154.038 263.047 153.42 262.77 152.63 262.77C151.852 262.77 151.238 263.047 150.79 263.602C150.342 264.157 150.118 264.919 150.118 265.89C150.118 266.861 150.342 267.623 150.79 268.178C151.238 268.733 151.852 269.01 152.63 269.01ZM164.179 270.05C163.582 270.05 163.038 269.927 162.547 269.682C162.067 269.437 161.726 269.111 161.523 268.706L162.403 268.098C162.585 268.386 162.835 268.61 163.155 268.77C163.475 268.93 163.822 269.01 164.195 269.01C164.643 269.01 165.011 268.882 165.299 268.626C165.598 268.359 165.747 268.029 165.747 267.634C165.747 267.314 165.63 267.047 165.395 266.834C165.161 266.621 164.745 266.402 164.147 266.178C163.241 265.847 162.601 265.501 162.227 265.138C161.865 264.775 161.683 264.327 161.683 263.794C161.683 263.175 161.929 262.679 162.419 262.306C162.91 261.922 163.561 261.73 164.371 261.73C164.894 261.73 165.369 261.842 165.795 262.066C166.233 262.29 166.569 262.599 166.803 262.994L165.971 263.602C165.598 263.047 165.065 262.77 164.371 262.77C163.977 262.77 163.651 262.861 163.395 263.042C163.15 263.223 163.027 263.458 163.027 263.746C163.027 264.034 163.155 264.279 163.411 264.482C163.667 264.674 164.142 264.903 164.835 265.17C165.657 265.479 166.238 265.821 166.579 266.194C166.921 266.557 167.091 267.021 167.091 267.586C167.091 268.333 166.825 268.93 166.291 269.378C165.758 269.826 165.054 270.05 164.179 270.05ZM175.66 266.418H169.9C169.975 267.229 170.215 267.847 170.62 268.274C171.025 268.69 171.585 268.898 172.3 268.898C173.26 268.898 174.023 268.519 174.588 267.762L175.356 268.498C175.047 268.989 174.615 269.373 174.06 269.65C173.516 269.917 172.913 270.05 172.252 270.05C171.068 270.05 170.151 269.687 169.5 268.962C168.849 268.237 168.524 267.218 168.524 265.906C168.524 264.605 168.849 263.586 169.5 262.85C170.161 262.103 171.068 261.73 172.22 261.73C173.297 261.73 174.14 262.098 174.748 262.834C175.356 263.559 175.66 264.578 175.66 265.89V266.418ZM174.412 265.298C174.412 264.53 174.209 263.927 173.804 263.49C173.409 263.053 172.86 262.834 172.156 262.834C171.495 262.834 170.967 263.058 170.572 263.506C170.188 263.954 169.964 264.589 169.9 265.41H174.412V265.298ZM177.301 263.842C177.301 262.935 177.285 262.285 177.253 261.89H178.517C178.56 262.317 178.581 262.786 178.581 263.298V263.458H178.629C178.832 262.903 179.157 262.477 179.605 262.178C180.053 261.879 180.581 261.73 181.189 261.73C181.36 261.73 181.515 261.746 181.653 261.778V262.898C181.515 262.866 181.328 262.85 181.093 262.85C180.645 262.85 180.235 262.989 179.861 263.266C179.488 263.533 179.195 263.901 178.981 264.37C178.768 264.839 178.661 265.351 178.661 265.906V269.89H177.301V263.842ZM189.311 261.89L186.271 269.89H185.039L181.999 261.89H183.407L185.663 268.29L187.903 261.89H189.311ZM191.431 260.498C191.133 260.498 190.898 260.418 190.727 260.258C190.557 260.098 190.471 259.879 190.471 259.602C190.471 259.325 190.557 259.106 190.727 258.946C190.898 258.775 191.133 258.69 191.431 258.69C191.73 258.69 191.965 258.775 192.135 258.946C192.317 259.106 192.407 259.325 192.407 259.602C192.407 259.879 192.317 260.098 192.135 260.258C191.965 260.418 191.73 260.498 191.431 260.498ZM190.759 261.89H192.119V269.89H190.759V261.89ZM197.737 268.962C198.175 268.962 198.58 268.861 198.953 268.658C199.337 268.445 199.647 268.157 199.881 267.794L200.697 268.53C200.153 269.415 199.3 269.917 198.137 270.034L197.689 270.882C198.127 270.882 198.479 270.978 198.745 271.17C199.012 271.373 199.145 271.655 199.145 272.018C199.145 272.445 198.996 272.786 198.697 273.042C198.409 273.298 198.009 273.426 197.497 273.426C197.284 273.426 197.06 273.405 196.825 273.362C196.591 273.33 196.409 273.282 196.281 273.218L196.409 272.594C196.655 272.669 196.953 272.706 197.305 272.706C197.561 272.706 197.769 272.647 197.929 272.53C198.1 272.423 198.185 272.263 198.185 272.05C198.185 271.858 198.079 271.709 197.865 271.602C197.652 271.495 197.348 271.447 196.953 271.458L196.633 271.106L197.241 270.034C196.196 269.938 195.385 269.533 194.809 268.818C194.233 268.093 193.945 267.117 193.945 265.89C193.945 264.578 194.271 263.559 194.921 262.834C195.583 262.098 196.505 261.73 197.689 261.73C198.361 261.73 198.953 261.863 199.465 262.13C199.988 262.386 200.399 262.759 200.697 263.25L199.881 263.986C199.647 263.623 199.337 263.341 198.953 263.138C198.58 262.925 198.175 262.818 197.737 262.818C196.98 262.818 196.383 263.09 195.945 263.634C195.519 264.167 195.305 264.919 195.305 265.89C195.305 266.85 195.519 267.602 195.945 268.146C196.383 268.69 196.98 268.962 197.737 268.962ZM205.412 270.05C204.622 270.05 203.934 269.885 203.348 269.554C202.772 269.213 202.324 268.727 202.004 268.098C201.694 267.469 201.54 266.733 201.54 265.89C201.54 265.047 201.694 264.311 202.004 263.682C202.324 263.053 202.772 262.573 203.348 262.242C203.934 261.901 204.622 261.73 205.412 261.73C206.606 261.73 207.55 262.103 208.244 262.85C208.948 263.597 209.3 264.61 209.3 265.89C209.3 267.17 208.948 268.183 208.244 268.93C207.55 269.677 206.606 270.05 205.412 270.05ZM205.412 269.01C206.201 269.01 206.82 268.733 207.268 268.178C207.716 267.623 207.94 266.861 207.94 265.89C207.94 264.919 207.716 264.157 207.268 263.602C206.82 263.047 206.201 262.77 205.412 262.77C204.633 262.77 204.02 263.047 203.572 263.602C203.124 264.157 202.9 264.919 202.9 265.89C202.9 266.861 203.124 267.623 203.572 268.178C204.02 268.733 204.633 269.01 205.412 269.01ZM218.049 270.05C216.865 270.05 215.942 269.687 215.281 268.962C214.63 268.226 214.305 267.202 214.305 265.89C214.305 264.578 214.63 263.559 215.281 262.834C215.942 262.098 216.865 261.73 218.049 261.73C218.721 261.73 219.313 261.863 219.825 262.13C220.347 262.386 220.758 262.759 221.057 263.25L220.241 263.986C220.006 263.623 219.697 263.341 219.313 263.138C218.939 262.925 218.534 262.818 218.097 262.818C217.339 262.818 216.742 263.09 216.305 263.634C215.878 264.167 215.665 264.919 215.665 265.89C215.665 266.85 215.878 267.602 216.305 268.146C216.742 268.69 217.339 268.962 218.097 268.962C218.534 268.962 218.939 268.861 219.313 268.658C219.697 268.445 220.006 268.157 220.241 267.794L221.057 268.53C220.758 269.021 220.347 269.399 219.825 269.666C219.313 269.922 218.721 270.05 218.049 270.05ZM225.771 270.05C224.982 270.05 224.294 269.885 223.707 269.554C223.131 269.213 222.683 268.727 222.363 268.098C222.054 267.469 221.899 266.733 221.899 265.89C221.899 265.047 222.054 264.311 222.363 263.682C222.683 263.053 223.131 262.573 223.707 262.242C224.294 261.901 224.982 261.73 225.771 261.73C226.966 261.73 227.91 262.103 228.603 262.85C229.307 263.597 229.659 264.61 229.659 265.89C229.659 267.17 229.307 268.183 228.603 268.93C227.91 269.677 226.966 270.05 225.771 270.05ZM225.771 269.01C226.56 269.01 227.179 268.733 227.627 268.178C228.075 267.623 228.299 266.861 228.299 265.89C228.299 264.919 228.075 264.157 227.627 263.602C227.179 263.047 226.56 262.77 225.771 262.77C224.992 262.77 224.379 263.047 223.931 263.602C223.483 264.157 223.259 264.919 223.259 265.89C223.259 266.861 223.483 267.623 223.931 268.178C224.379 268.733 224.992 269.01 225.771 269.01ZM231.205 263.906C231.205 263.095 231.179 262.423 231.125 261.89H232.341C232.384 262.317 232.405 262.791 232.405 263.314H232.453C232.667 262.823 233.003 262.439 233.461 262.162C233.92 261.874 234.432 261.73 234.997 261.73C235.563 261.73 236.048 261.874 236.453 262.162C236.859 262.45 237.131 262.85 237.269 263.362C237.493 262.861 237.835 262.466 238.293 262.178C238.752 261.879 239.269 261.73 239.845 261.73C240.72 261.73 241.403 262.013 241.893 262.578C242.395 263.143 242.645 263.933 242.645 264.946V269.89H241.301V265.058C241.301 264.333 241.147 263.778 240.837 263.394C240.539 263.01 240.101 262.818 239.525 262.818C238.96 262.818 238.496 263.031 238.133 263.458C237.771 263.874 237.589 264.413 237.589 265.074V269.89H236.245V265.122C236.245 264.343 236.107 263.767 235.829 263.394C235.552 263.01 235.131 262.818 234.565 262.818C234.213 262.818 233.883 262.925 233.573 263.138C233.264 263.351 233.013 263.634 232.821 263.986C232.64 264.338 232.549 264.717 232.549 265.122V269.89H231.205V263.906ZM248.55 263.906C248.55 263.223 248.529 262.551 248.486 261.89H249.734C249.766 262.285 249.782 262.706 249.782 263.154H249.814C250.038 262.727 250.385 262.386 250.854 262.13C251.323 261.863 251.83 261.73 252.374 261.73C253.409 261.73 254.219 262.098 254.806 262.834C255.393 263.57 255.686 264.589 255.686 265.89C255.686 266.733 255.547 267.469 255.27 268.098C254.993 268.717 254.598 269.197 254.086 269.538C253.585 269.879 252.998 270.05 252.326 270.05C251.771 270.05 251.286 269.943 250.87 269.73C250.454 269.517 250.15 269.218 249.958 268.834H249.91V273.762H248.55V263.906ZM252.118 269.01C252.801 269.01 253.339 268.727 253.734 268.162C254.129 267.586 254.326 266.813 254.326 265.842C254.326 264.871 254.134 264.125 253.75 263.602C253.366 263.079 252.827 262.818 252.134 262.818C251.483 262.818 250.95 263.031 250.534 263.458C250.118 263.885 249.91 264.429 249.91 265.09V266.546C249.91 267.282 250.113 267.879 250.518 268.338C250.923 268.786 251.457 269.01 252.118 269.01ZM257.333 263.842C257.333 262.935 257.317 262.285 257.285 261.89H258.549C258.591 262.317 258.613 262.786 258.613 263.298V263.458H258.661C258.863 262.903 259.189 262.477 259.637 262.178C260.085 261.879 260.613 261.73 261.221 261.73C261.391 261.73 261.546 261.746 261.685 261.778V262.898C261.546 262.866 261.359 262.85 261.125 262.85C260.677 262.85 260.266 262.989 259.893 263.266C259.519 263.533 259.226 263.901 259.013 264.37C258.799 264.839 258.693 265.351 258.693 265.906V269.89H257.333V263.842ZM269.566 266.418H263.806C263.881 267.229 264.121 267.847 264.526 268.274C264.932 268.69 265.492 268.898 266.206 268.898C267.166 268.898 267.929 268.519 268.494 267.762L269.262 268.498C268.953 268.989 268.521 269.373 267.966 269.65C267.422 269.917 266.82 270.05 266.158 270.05C264.974 270.05 264.057 269.687 263.406 268.962C262.756 268.237 262.43 267.218 262.43 265.906C262.43 264.605 262.756 263.586 263.406 262.85C264.068 262.103 264.974 261.73 266.126 261.73C267.204 261.73 268.046 262.098 268.654 262.834C269.262 263.559 269.566 264.578 269.566 265.89V266.418ZM268.318 265.298C268.318 264.53 268.116 263.927 267.71 263.49C267.316 263.053 266.766 262.834 266.062 262.834C265.401 262.834 264.873 263.058 264.478 263.506C264.094 263.954 263.87 264.589 263.806 265.41H268.318V265.298ZM274.424 270.05C273.24 270.05 272.317 269.687 271.656 268.962C271.005 268.226 270.68 267.202 270.68 265.89C270.68 264.578 271.005 263.559 271.656 262.834C272.317 262.098 273.24 261.73 274.424 261.73C275.096 261.73 275.688 261.863 276.2 262.13C276.722 262.386 277.133 262.759 277.432 263.25L276.616 263.986C276.381 263.623 276.072 263.341 275.688 263.138C275.314 262.925 274.909 262.818 274.472 262.818C273.714 262.818 273.117 263.09 272.68 263.634C272.253 264.167 272.04 264.919 272.04 265.89C272.04 266.85 272.253 267.602 272.68 268.146C273.117 268.69 273.714 268.962 274.472 268.962C274.909 268.962 275.314 268.861 275.688 268.658C276.072 268.445 276.381 268.157 276.616 267.794L277.432 268.53C277.133 269.021 276.722 269.399 276.2 269.666C275.688 269.922 275.096 270.05 274.424 270.05ZM279.65 260.498C279.351 260.498 279.117 260.418 278.946 260.258C278.775 260.098 278.69 259.879 278.69 259.602C278.69 259.325 278.775 259.106 278.946 258.946C279.117 258.775 279.351 258.69 279.65 258.69C279.949 258.69 280.183 258.775 280.354 258.946C280.535 259.106 280.626 259.325 280.626 259.602C280.626 259.879 280.535 260.098 280.354 260.258C280.183 260.418 279.949 260.498 279.65 260.498ZM278.978 261.89H280.338V269.89H278.978V261.89ZM284.82 270.05C284.223 270.05 283.679 269.927 283.188 269.682C282.708 269.437 282.367 269.111 282.164 268.706L283.044 268.098C283.225 268.386 283.476 268.61 283.796 268.77C284.116 268.93 284.463 269.01 284.836 269.01C285.284 269.01 285.652 268.882 285.94 268.626C286.239 268.359 286.388 268.029 286.388 267.634C286.388 267.314 286.271 267.047 286.036 266.834C285.801 266.621 285.385 266.402 284.788 266.178C283.881 265.847 283.241 265.501 282.868 265.138C282.505 264.775 282.324 264.327 282.324 263.794C282.324 263.175 282.569 262.679 283.06 262.306C283.551 261.922 284.201 261.73 285.012 261.73C285.535 261.73 286.009 261.842 286.436 262.066C286.873 262.29 287.209 262.599 287.444 262.994L286.612 263.602C286.239 263.047 285.705 262.77 285.012 262.77C284.617 262.77 284.292 262.861 284.036 263.042C283.791 263.223 283.668 263.458 283.668 263.746C283.668 264.034 283.796 264.279 284.052 264.482C284.308 264.674 284.783 264.903 285.476 265.17C286.297 265.479 286.879 265.821 287.22 266.194C287.561 266.557 287.732 267.021 287.732 267.586C287.732 268.333 287.465 268.93 286.932 269.378C286.399 269.826 285.695 270.05 284.82 270.05ZM291.604 270.05C290.815 270.05 290.17 269.821 289.668 269.362C289.167 268.903 288.916 268.311 288.916 267.586C288.916 266.786 289.215 266.167 289.812 265.73C290.42 265.293 291.279 265.074 292.388 265.074H294.036V264.658C294.036 264.061 293.876 263.607 293.556 263.298C293.247 262.978 292.794 262.818 292.196 262.818C291.716 262.818 291.274 262.919 290.868 263.122C290.474 263.314 290.143 263.597 289.876 263.97L289.188 263.138C289.551 262.679 289.994 262.333 290.516 262.098C291.039 261.853 291.62 261.73 292.26 261.73C293.263 261.73 294.036 261.975 294.58 262.466C295.124 262.957 295.396 263.661 295.396 264.578V268.338C295.396 268.754 295.46 269.271 295.588 269.89H294.404C294.308 269.645 294.239 269.271 294.196 268.77H294.164C293.866 269.186 293.498 269.506 293.06 269.73C292.623 269.943 292.138 270.05 291.604 270.05ZM291.812 268.978C292.218 268.978 292.591 268.903 292.932 268.754C293.274 268.594 293.54 268.381 293.732 268.114C293.935 267.847 294.036 267.554 294.036 267.234V266.05H292.34C291.668 266.05 291.151 266.183 290.788 266.45C290.426 266.717 290.244 267.095 290.244 267.586C290.244 268.013 290.383 268.354 290.66 268.61C290.948 268.855 291.332 268.978 291.812 268.978ZM290.004 261.026C290.004 260.546 290.122 260.157 290.356 259.858C290.602 259.559 290.916 259.41 291.3 259.41C291.492 259.41 291.663 259.442 291.812 259.506C291.972 259.57 292.196 259.682 292.484 259.842C292.815 260.055 293.066 260.162 293.236 260.162C293.386 260.162 293.498 260.098 293.572 259.97C293.658 259.842 293.711 259.634 293.732 259.346H294.564C294.554 259.858 294.426 260.269 294.18 260.578C293.935 260.877 293.615 261.026 293.22 261.026C293.018 261.026 292.826 260.989 292.644 260.914C292.463 260.829 292.244 260.711 291.988 260.562C291.679 260.37 291.46 260.274 291.332 260.274C291.194 260.274 291.076 260.343 290.98 260.482C290.895 260.61 290.847 260.791 290.836 261.026H290.004ZM300.943 270.05C300.154 270.05 299.466 269.885 298.879 269.554C298.303 269.213 297.855 268.727 297.535 268.098C297.226 267.469 297.071 266.733 297.071 265.89C297.071 265.047 297.226 264.311 297.535 263.682C297.855 263.053 298.303 262.573 298.879 262.242C299.466 261.901 300.154 261.73 300.943 261.73C302.138 261.73 303.082 262.103 303.775 262.85C304.479 263.597 304.831 264.61 304.831 265.89C304.831 267.17 304.479 268.183 303.775 268.93C303.082 269.677 302.138 270.05 300.943 270.05ZM300.943 269.01C301.732 269.01 302.351 268.733 302.799 268.178C303.247 267.623 303.471 266.861 303.471 265.89C303.471 264.919 303.247 264.157 302.799 263.602C302.351 263.047 301.732 262.77 300.943 262.77C300.164 262.77 299.551 263.047 299.103 263.602C298.655 264.157 298.431 264.919 298.431 265.89C298.431 266.861 298.655 267.623 299.103 268.178C299.551 268.733 300.164 269.01 300.943 269.01ZM317.004 266.418H311.244C311.319 267.229 311.559 267.847 311.964 268.274C312.369 268.69 312.929 268.898 313.644 268.898C314.604 268.898 315.367 268.519 315.932 267.762L316.7 268.498C316.391 268.989 315.959 269.373 315.404 269.65C314.86 269.917 314.257 270.05 313.596 270.05C312.412 270.05 311.495 269.687 310.844 268.962C310.193 268.237 309.868 267.218 309.868 265.906C309.868 264.605 310.193 263.586 310.844 262.85C311.505 262.103 312.412 261.73 313.564 261.73C314.641 261.73 315.484 262.098 316.092 262.834C316.7 263.559 317.004 264.578 317.004 265.89V266.418ZM315.756 265.298C315.756 264.53 315.553 263.927 315.148 263.49C314.753 263.053 314.204 262.834 313.5 262.834C312.839 262.834 312.311 263.058 311.916 263.506C311.532 263.954 311.308 264.589 311.244 265.41H315.756V265.298ZM325.752 270.05C324.568 270.05 323.645 269.687 322.984 268.962C322.333 268.226 322.008 267.202 322.008 265.89C322.008 264.578 322.333 263.559 322.984 262.834C323.645 262.098 324.568 261.73 325.752 261.73C326.424 261.73 327.016 261.863 327.528 262.13C328.05 262.386 328.461 262.759 328.76 263.25L327.944 263.986C327.709 263.623 327.4 263.341 327.016 263.138C326.642 262.925 326.237 262.818 325.8 262.818C325.042 262.818 324.445 263.09 324.008 263.634C323.581 264.167 323.368 264.919 323.368 265.89C323.368 266.85 323.581 267.602 324.008 268.146C324.445 268.69 325.042 268.962 325.8 268.962C326.237 268.962 326.642 268.861 327.016 268.658C327.4 268.445 327.709 268.157 327.944 267.794L328.76 268.53C328.461 269.021 328.05 269.399 327.528 269.666C327.016 269.922 326.424 270.05 325.752 270.05ZM332.802 270.05C331.885 270.05 331.186 269.751 330.706 269.154C330.237 268.557 330.002 267.677 330.002 266.514V261.89H331.362V266.53C331.362 268.151 331.938 268.962 333.09 268.962C333.538 268.962 333.944 268.85 334.306 268.626C334.669 268.391 334.952 268.071 335.154 267.666C335.357 267.25 335.458 266.786 335.458 266.274V261.89H336.818V268.194C336.818 268.727 336.866 269.293 336.962 269.89H335.714C335.618 269.421 335.565 268.946 335.554 268.466H335.506C335.272 268.957 334.909 269.346 334.418 269.634C333.938 269.911 333.4 270.05 332.802 270.05ZM339.806 260.498C339.508 260.498 339.273 260.418 339.102 260.258C338.932 260.098 338.846 259.879 338.846 259.602C338.846 259.325 338.932 259.106 339.102 258.946C339.273 258.775 339.508 258.69 339.806 258.69C340.105 258.69 340.34 258.775 340.51 258.946C340.692 259.106 340.782 259.325 340.782 259.602C340.782 259.879 340.692 260.098 340.51 260.258C340.34 260.418 340.105 260.498 339.806 260.498ZM339.134 261.89H340.494V269.89H339.134V261.89ZM345.68 270.05C344.646 270.05 343.824 269.666 343.216 268.898C342.619 268.13 342.32 267.079 342.32 265.746C342.32 264.935 342.459 264.231 342.736 263.634C343.014 263.026 343.408 262.557 343.92 262.226C344.432 261.895 345.03 261.73 345.712 261.73C346.694 261.73 347.483 262.141 348.08 262.962H348.112V258.018H349.456V267.874C349.456 268.866 349.472 269.538 349.504 269.89H348.256C348.235 269.634 348.224 269.213 348.224 268.626H348.192C347.947 269.053 347.595 269.399 347.136 269.666C346.678 269.922 346.192 270.05 345.68 270.05ZM345.872 268.962C346.555 268.962 347.094 268.759 347.488 268.354C347.894 267.938 348.096 267.383 348.096 266.69V265.234C348.096 264.487 347.894 263.89 347.488 263.442C347.083 262.994 346.544 262.77 345.872 262.77C345.19 262.77 344.651 263.037 344.256 263.57C343.872 264.093 343.68 264.829 343.68 265.778C343.68 266.77 343.872 267.549 344.256 268.114C344.651 268.679 345.19 268.962 345.872 268.962ZM353.776 270.05C352.987 270.05 352.341 269.821 351.84 269.362C351.339 268.903 351.088 268.311 351.088 267.586C351.088 266.786 351.387 266.167 351.984 265.73C352.592 265.293 353.451 265.074 354.56 265.074H356.208V264.658C356.208 264.061 356.048 263.607 355.728 263.298C355.419 262.978 354.965 262.818 354.368 262.818C353.888 262.818 353.445 262.919 353.04 263.122C352.645 263.314 352.315 263.597 352.048 263.97L351.36 263.138C351.723 262.679 352.165 262.333 352.688 262.098C353.211 261.853 353.792 261.73 354.432 261.73C355.435 261.73 356.208 261.975 356.752 262.466C357.296 262.957 357.568 263.661 357.568 264.578V268.338C357.568 268.754 357.632 269.271 357.76 269.89H356.576C356.48 269.645 356.411 269.271 356.368 268.77H356.336C356.037 269.186 355.669 269.506 355.232 269.73C354.795 269.943 354.309 270.05 353.776 270.05ZM353.984 268.978C354.389 268.978 354.763 268.903 355.104 268.754C355.445 268.594 355.712 268.381 355.904 268.114C356.107 267.847 356.208 267.554 356.208 267.234V266.05H354.512C353.84 266.05 353.323 266.183 352.96 266.45C352.597 266.717 352.416 267.095 352.416 267.586C352.416 268.013 352.555 268.354 352.832 268.61C353.12 268.855 353.504 268.978 353.984 268.978ZM362.571 270.05C361.536 270.05 360.715 269.666 360.107 268.898C359.51 268.13 359.211 267.079 359.211 265.746C359.211 264.935 359.35 264.231 359.627 263.634C359.904 263.026 360.299 262.557 360.811 262.226C361.323 261.895 361.92 261.73 362.603 261.73C363.584 261.73 364.374 262.141 364.971 262.962H365.003V258.018H366.347V267.874C366.347 268.866 366.363 269.538 366.395 269.89H365.147C365.126 269.634 365.115 269.213 365.115 268.626H365.083C364.838 269.053 364.486 269.399 364.027 269.666C363.568 269.922 363.083 270.05 362.571 270.05ZM362.763 268.962C363.446 268.962 363.984 268.759 364.379 268.354C364.784 267.938 364.987 267.383 364.987 266.69V265.234C364.987 264.487 364.784 263.89 364.379 263.442C363.974 262.994 363.435 262.77 362.763 262.77C362.08 262.77 361.542 263.037 361.147 263.57C360.763 264.093 360.571 264.829 360.571 265.778C360.571 266.77 360.763 267.549 361.147 268.114C361.542 268.679 362.08 268.962 362.763 268.962ZM371.787 270.05C370.997 270.05 370.309 269.885 369.723 269.554C369.147 269.213 368.699 268.727 368.379 268.098C368.069 267.469 367.915 266.733 367.915 265.89C367.915 265.047 368.069 264.311 368.379 263.682C368.699 263.053 369.147 262.573 369.723 262.242C370.309 261.901 370.997 261.73 371.787 261.73C372.981 261.73 373.925 262.103 374.619 262.85C375.323 263.597 375.675 264.61 375.675 265.89C375.675 267.17 375.323 268.183 374.619 268.93C373.925 269.677 372.981 270.05 371.787 270.05ZM371.787 269.01C372.576 269.01 373.195 268.733 373.643 268.178C374.091 267.623 374.315 266.861 374.315 265.89C374.315 264.919 374.091 264.157 373.643 263.602C373.195 263.047 372.576 262.77 371.787 262.77C371.008 262.77 370.395 263.047 369.947 263.602C369.499 264.157 369.275 264.919 369.275 265.89C369.275 266.861 369.499 267.623 369.947 268.178C370.395 268.733 371.008 269.01 371.787 269.01ZM377.809 267.906C378.15 267.906 378.422 268.029 378.625 268.274C378.827 268.519 378.929 268.866 378.929 269.314C378.929 269.879 378.774 270.477 378.465 271.106C378.166 271.735 377.766 272.258 377.265 272.674L376.689 272.018C376.945 271.762 377.169 271.453 377.361 271.09C377.563 270.738 377.702 270.375 377.777 270.002C377.734 270.013 377.665 270.018 377.569 270.018C377.323 270.018 377.115 269.927 376.945 269.746C376.785 269.554 376.705 269.314 376.705 269.026C376.705 268.695 376.806 268.429 377.009 268.226C377.211 268.013 377.478 267.906 377.809 267.906ZM75.2766 285.89V293.634C75.2766 294.914 74.9619 295.885 74.3326 296.546C73.7032 297.207 72.7806 297.538 71.5646 297.538C71.0312 297.538 70.5086 297.474 69.9966 297.346C69.4952 297.218 69.0419 297.037 68.6366 296.802L69.0846 295.81C69.8846 296.194 70.6952 296.386 71.5166 296.386C73.1806 296.386 74.0126 295.399 74.0126 293.426V292.69C73.7992 293.095 73.4739 293.415 73.0366 293.65C72.5992 293.885 72.1032 294.002 71.5486 294.002C70.4926 294.002 69.6606 293.623 69.0526 292.866C68.4446 292.109 68.1406 291.074 68.1406 289.762C68.1406 288.503 68.4392 287.517 69.0366 286.802C69.6339 286.087 70.4552 285.73 71.5006 285.73C72.0552 285.73 72.5406 285.842 72.9566 286.066C73.3832 286.29 73.7192 286.615 73.9646 287.042H73.9966L74.1566 285.89H75.2766ZM73.9166 289.362C73.9166 288.551 73.7246 287.917 73.3406 287.458C72.9566 286.999 72.4232 286.77 71.7406 286.77C71.0472 286.77 70.4979 287.042 70.0926 287.586C69.6979 288.119 69.5006 288.855 69.5006 289.794C69.5006 290.775 69.6979 291.543 70.0926 292.098C70.4872 292.642 71.0366 292.914 71.7406 292.914C72.4232 292.914 72.9566 292.711 73.3406 292.306C73.7246 291.89 73.9166 291.314 73.9166 290.578V289.362ZM79.5808 294.05C78.7915 294.05 78.1461 293.821 77.6448 293.362C77.1435 292.903 76.8928 292.311 76.8928 291.586C76.8928 290.786 77.1915 290.167 77.7888 289.73C78.3968 289.293 79.2555 289.074 80.3648 289.074H82.0128V288.658C82.0128 288.061 81.8528 287.607 81.5328 287.298C81.2235 286.978 80.7701 286.818 80.1728 286.818C79.6928 286.818 79.2501 286.919 78.8448 287.122C78.4501 287.314 78.1195 287.597 77.8528 287.97L77.1648 287.138C77.5275 286.679 77.9701 286.333 78.4928 286.098C79.0155 285.853 79.5968 285.73 80.2368 285.73C81.2395 285.73 82.0128 285.975 82.5568 286.466C83.1008 286.957 83.3728 287.661 83.3728 288.578V292.338C83.3728 292.754 83.4368 293.271 83.5648 293.89H82.3808C82.2848 293.645 82.2155 293.271 82.1728 292.77H82.1408C81.8421 293.186 81.4741 293.506 81.0368 293.73C80.5995 293.943 80.1141 294.05 79.5808 294.05ZM79.7888 292.978C80.1941 292.978 80.5675 292.903 80.9088 292.754C81.2501 292.594 81.5168 292.381 81.7088 292.114C81.9115 291.847 82.0128 291.554 82.0128 291.234V290.05H80.3168C79.6448 290.05 79.1275 290.183 78.7648 290.45C78.4021 290.717 78.2208 291.095 78.2208 291.586C78.2208 292.013 78.3595 292.354 78.6368 292.61C78.9248 292.855 79.3088 292.978 79.7888 292.978ZM85.5436 287.842C85.5436 286.935 85.5276 286.285 85.4956 285.89H86.7596C86.8022 286.317 86.8236 286.786 86.8236 287.298V287.458H86.8716C87.0742 286.903 87.3996 286.477 87.8476 286.178C88.2956 285.879 88.8236 285.73 89.4316 285.73C89.6022 285.73 89.7569 285.746 89.8956 285.778V286.898C89.7569 286.866 89.5702 286.85 89.3356 286.85C88.8876 286.85 88.4769 286.989 88.1036 287.266C87.7302 287.533 87.4369 287.901 87.2236 288.37C87.0102 288.839 86.9036 289.351 86.9036 289.906V293.89H85.5436V287.842ZM93.3933 294.05C92.604 294.05 91.9586 293.821 91.4573 293.362C90.956 292.903 90.7053 292.311 90.7053 291.586C90.7053 290.786 91.004 290.167 91.6013 289.73C92.2093 289.293 93.068 289.074 94.1773 289.074H95.8253V288.658C95.8253 288.061 95.6653 287.607 95.3453 287.298C95.036 286.978 94.5826 286.818 93.9853 286.818C93.5053 286.818 93.0626 286.919 92.6573 287.122C92.2626 287.314 91.932 287.597 91.6653 287.97L90.9773 287.138C91.34 286.679 91.7826 286.333 92.3053 286.098C92.828 285.853 93.4093 285.73 94.0493 285.73C95.052 285.73 95.8253 285.975 96.3693 286.466C96.9133 286.957 97.1853 287.661 97.1853 288.578V292.338C97.1853 292.754 97.2493 293.271 97.3773 293.89H96.1933C96.0973 293.645 96.028 293.271 95.9853 292.77H95.9533C95.6546 293.186 95.2866 293.506 94.8493 293.73C94.412 293.943 93.9266 294.05 93.3933 294.05ZM93.6013 292.978C94.0066 292.978 94.38 292.903 94.7213 292.754C95.0626 292.594 95.3293 292.381 95.5213 292.114C95.724 291.847 95.8253 291.554 95.8253 291.234V290.05H94.1293C93.4573 290.05 92.94 290.183 92.5773 290.45C92.2146 290.717 92.0333 291.095 92.0333 291.586C92.0333 292.013 92.172 292.354 92.4493 292.61C92.7373 292.855 93.1213 292.978 93.6013 292.978ZM99.2441 287.906C99.2441 286.893 99.2227 286.221 99.1801 285.89H100.444C100.487 286.242 100.508 286.717 100.508 287.314H100.556C100.791 286.823 101.148 286.439 101.628 286.162C102.119 285.874 102.663 285.73 103.26 285.73C104.199 285.73 104.903 286.034 105.372 286.642C105.841 287.25 106.076 288.157 106.076 289.362V293.89H104.716V289.346C104.716 288.493 104.572 287.858 104.284 287.442C103.996 287.026 103.559 286.818 102.972 286.818C102.524 286.818 102.119 286.935 101.756 287.17C101.393 287.394 101.111 287.714 100.908 288.13C100.705 288.535 100.604 288.994 100.604 289.506V293.89H99.2441V287.906ZM110.937 294.05C110.233 294.05 109.679 293.826 109.273 293.378C108.868 292.919 108.665 292.29 108.665 291.49V286.946H107.225V285.89H108.665V283.762L109.961 283.362H110.025V285.89H112.297V286.946H110.025V291.362C110.025 291.906 110.127 292.311 110.329 292.578C110.532 292.834 110.847 292.962 111.273 292.962C111.732 292.962 112.105 292.903 112.393 292.786L112.489 293.794C112.137 293.965 111.62 294.05 110.937 294.05ZM115.049 284.498C114.75 284.498 114.515 284.418 114.345 284.258C114.174 284.098 114.089 283.879 114.089 283.602C114.089 283.325 114.174 283.106 114.345 282.946C114.515 282.775 114.75 282.69 115.049 282.69C115.347 282.69 115.582 282.775 115.753 282.946C115.934 283.106 116.025 283.325 116.025 283.602C116.025 283.879 115.934 284.098 115.753 284.258C115.582 284.418 115.347 284.498 115.049 284.498ZM114.377 285.89H115.737V293.89H114.377V285.89ZM117.978 287.906C117.978 286.893 117.957 286.221 117.914 285.89H119.178C119.221 286.242 119.242 286.717 119.242 287.314H119.29C119.525 286.823 119.882 286.439 120.362 286.162C120.853 285.874 121.397 285.73 121.994 285.73C122.933 285.73 123.637 286.034 124.106 286.642C124.576 287.25 124.81 288.157 124.81 289.362V293.89H123.45V289.346C123.45 288.493 123.306 287.858 123.018 287.442C122.73 287.026 122.293 286.818 121.706 286.818C121.258 286.818 120.853 286.935 120.49 287.17C120.128 287.394 119.845 287.714 119.642 288.13C119.44 288.535 119.338 288.994 119.338 289.506V293.89H117.978V287.906ZM129.704 294.05C128.669 294.05 127.848 293.666 127.24 292.898C126.642 292.13 126.344 291.079 126.344 289.746C126.344 288.935 126.482 288.231 126.76 287.634C127.037 287.026 127.432 286.557 127.944 286.226C128.456 285.895 129.053 285.73 129.736 285.73C130.717 285.73 131.506 286.141 132.104 286.962H132.136V282.018H133.48V291.874C133.48 292.866 133.496 293.538 133.528 293.89H132.28C132.258 293.634 132.248 293.213 132.248 292.626H132.216C131.97 293.053 131.618 293.399 131.16 293.666C130.701 293.922 130.216 294.05 129.704 294.05ZM129.896 292.962C130.578 292.962 131.117 292.759 131.512 292.354C131.917 291.938 132.12 291.383 132.12 290.69V289.234C132.12 288.487 131.917 287.89 131.512 287.442C131.106 286.994 130.568 286.77 129.896 286.77C129.213 286.77 128.674 287.037 128.28 287.57C127.896 288.093 127.704 288.829 127.704 289.778C127.704 290.77 127.896 291.549 128.28 292.114C128.674 292.679 129.213 292.962 129.896 292.962ZM138.92 294.05C138.13 294.05 137.442 293.885 136.856 293.554C136.28 293.213 135.832 292.727 135.512 292.098C135.202 291.469 135.048 290.733 135.048 289.89C135.048 289.047 135.202 288.311 135.512 287.682C135.832 287.053 136.28 286.573 136.856 286.242C137.442 285.901 138.13 285.73 138.92 285.73C140.114 285.73 141.058 286.103 141.752 286.85C142.456 287.597 142.808 288.61 142.808 289.89C142.808 291.17 142.456 292.183 141.752 292.93C141.058 293.677 140.114 294.05 138.92 294.05ZM138.92 293.01C139.709 293.01 140.328 292.733 140.776 292.178C141.224 291.623 141.448 290.861 141.448 289.89C141.448 288.919 141.224 288.157 140.776 287.602C140.328 287.047 139.709 286.77 138.92 286.77C138.141 286.77 137.528 287.047 137.08 287.602C136.632 288.157 136.408 288.919 136.408 289.89C136.408 290.861 136.632 291.623 137.08 292.178C137.528 292.733 138.141 293.01 138.92 293.01ZM153.62 292.786H153.572C153.348 293.181 153.023 293.49 152.596 293.714C152.18 293.938 151.711 294.05 151.188 294.05C150.516 294.05 149.924 293.879 149.412 293.538C148.911 293.197 148.522 292.711 148.244 292.082C147.978 291.453 147.844 290.717 147.844 289.874C147.844 288.583 148.138 287.57 148.724 286.834C149.322 286.098 150.138 285.73 151.172 285.73C151.727 285.73 152.234 285.858 152.692 286.114C153.162 286.37 153.503 286.711 153.716 287.138H153.748C153.748 286.754 153.764 286.338 153.796 285.89H155.044C155.002 286.509 154.98 287.181 154.98 287.906V297.762H153.62V292.786ZM151.412 293.01C152.074 293.01 152.607 292.786 153.012 292.338C153.418 291.879 153.62 291.282 153.62 290.546V289.09C153.62 288.429 153.412 287.885 152.996 287.458C152.58 287.031 152.047 286.818 151.396 286.818C150.692 286.818 150.148 287.079 149.764 287.602C149.391 288.125 149.204 288.871 149.204 289.842C149.204 290.813 149.402 291.586 149.796 292.162C150.191 292.727 150.73 293.01 151.412 293.01ZM159.763 294.05C158.846 294.05 158.147 293.751 157.667 293.154C157.198 292.557 156.963 291.677 156.963 290.514V285.89H158.323V290.53C158.323 292.151 158.899 292.962 160.051 292.962C160.499 292.962 160.905 292.85 161.267 292.626C161.63 292.391 161.913 292.071 162.115 291.666C162.318 291.25 162.419 290.786 162.419 290.274V285.89H163.779V292.194C163.779 292.727 163.827 293.293 163.923 293.89H162.675C162.579 293.421 162.526 292.946 162.515 292.466H162.467C162.233 292.957 161.87 293.346 161.379 293.634C160.899 293.911 160.361 294.05 159.763 294.05ZM172.527 290.418H166.767C166.842 291.229 167.082 291.847 167.487 292.274C167.893 292.69 168.453 292.898 169.167 292.898C170.127 292.898 170.89 292.519 171.455 291.762L172.223 292.498C171.914 292.989 171.482 293.373 170.927 293.65C170.383 293.917 169.781 294.05 169.119 294.05C167.935 294.05 167.018 293.687 166.367 292.962C165.717 292.237 165.391 291.218 165.391 289.906C165.391 288.605 165.717 287.586 166.367 286.85C167.029 286.103 167.935 285.73 169.087 285.73C170.165 285.73 171.007 286.098 171.615 286.834C172.223 287.559 172.527 288.578 172.527 289.89V290.418ZM171.279 289.298C171.279 288.53 171.077 287.927 170.671 287.49C170.277 287.053 169.727 286.834 169.023 286.834C168.362 286.834 167.834 287.058 167.439 287.506C167.055 287.954 166.831 288.589 166.767 289.41H171.279V289.298ZM180.187 294.05C179.59 294.05 179.046 293.927 178.555 293.682C178.075 293.437 177.734 293.111 177.531 292.706L178.411 292.098C178.593 292.386 178.843 292.61 179.163 292.77C179.483 292.93 179.83 293.01 180.203 293.01C180.651 293.01 181.019 292.882 181.307 292.626C181.606 292.359 181.755 292.029 181.755 291.634C181.755 291.314 181.638 291.047 181.403 290.834C181.169 290.621 180.753 290.402 180.155 290.178C179.249 289.847 178.609 289.501 178.235 289.138C177.873 288.775 177.691 288.327 177.691 287.794C177.691 287.175 177.937 286.679 178.427 286.306C178.918 285.922 179.569 285.73 180.379 285.73C180.902 285.73 181.377 285.842 181.803 286.066C182.241 286.29 182.577 286.599 182.811 286.994L181.979 287.602C181.606 287.047 181.073 286.77 180.379 286.77C179.985 286.77 179.659 286.861 179.403 287.042C179.158 287.223 179.035 287.458 179.035 287.746C179.035 288.034 179.163 288.279 179.419 288.482C179.675 288.674 180.15 288.903 180.843 289.17C181.665 289.479 182.246 289.821 182.587 290.194C182.929 290.557 183.099 291.021 183.099 291.586C183.099 292.333 182.833 292.93 182.299 293.378C181.766 293.826 181.062 294.05 180.187 294.05ZM191.668 290.418H185.908C185.983 291.229 186.223 291.847 186.628 292.274C187.033 292.69 187.593 292.898 188.308 292.898C189.268 292.898 190.031 292.519 190.596 291.762L191.364 292.498C191.055 292.989 190.623 293.373 190.068 293.65C189.524 293.917 188.921 294.05 188.26 294.05C187.076 294.05 186.159 293.687 185.508 292.962C184.857 292.237 184.532 291.218 184.532 289.906C184.532 288.605 184.857 287.586 185.508 286.85C186.169 286.103 187.076 285.73 188.228 285.73C189.305 285.73 190.148 286.098 190.756 286.834C191.364 287.559 191.668 288.578 191.668 289.89V290.418ZM190.42 289.298C190.42 288.53 190.217 287.927 189.812 287.49C189.417 287.053 188.868 286.834 188.164 286.834C187.503 286.834 186.975 287.058 186.58 287.506C186.196 287.954 185.972 288.589 185.908 289.41H190.42V289.298ZM196.013 294.05C195.096 294.05 194.397 293.751 193.917 293.154C193.448 292.557 193.213 291.677 193.213 290.514V285.89H194.573V290.53C194.573 292.151 195.149 292.962 196.301 292.962C196.749 292.962 197.155 292.85 197.517 292.626C197.88 292.391 198.163 292.071 198.365 291.666C198.568 291.25 198.669 290.786 198.669 290.274V285.89H200.029V292.194C200.029 292.727 200.077 293.293 200.173 293.89H198.925C198.829 293.421 198.776 292.946 198.765 292.466H198.717C198.483 292.957 198.12 293.346 197.629 293.634C197.149 293.911 196.611 294.05 196.013 294.05ZM209.244 294.05C208.06 294.05 207.137 293.687 206.476 292.962C205.825 292.226 205.5 291.202 205.5 289.89C205.5 288.578 205.825 287.559 206.476 286.834C207.137 286.098 208.06 285.73 209.244 285.73C209.916 285.73 210.508 285.863 211.02 286.13C211.543 286.386 211.953 286.759 212.252 287.25L211.436 287.986C211.201 287.623 210.892 287.341 210.508 287.138C210.135 286.925 209.729 286.818 209.292 286.818C208.535 286.818 207.937 287.09 207.5 287.634C207.073 288.167 206.86 288.919 206.86 289.89C206.86 290.85 207.073 291.602 207.5 292.146C207.937 292.69 208.535 292.962 209.292 292.962C209.729 292.962 210.135 292.861 210.508 292.658C210.892 292.445 211.201 292.157 211.436 291.794L212.252 292.53C211.953 293.021 211.543 293.399 211.02 293.666C210.508 293.922 209.916 294.05 209.244 294.05ZM215.846 294.05C215.057 294.05 214.412 293.821 213.91 293.362C213.409 292.903 213.158 292.311 213.158 291.586C213.158 290.786 213.457 290.167 214.054 289.73C214.662 289.293 215.521 289.074 216.63 289.074H218.278V288.658C218.278 288.061 218.118 287.607 217.798 287.298C217.489 286.978 217.036 286.818 216.438 286.818C215.958 286.818 215.516 286.919 215.11 287.122C214.716 287.314 214.385 287.597 214.118 287.97L213.43 287.138C213.793 286.679 214.236 286.333 214.758 286.098C215.281 285.853 215.862 285.73 216.502 285.73C217.505 285.73 218.278 285.975 218.822 286.466C219.366 286.957 219.638 287.661 219.638 288.578V292.338C219.638 292.754 219.702 293.271 219.83 293.89H218.646C218.55 293.645 218.481 293.271 218.438 292.77H218.406C218.108 293.186 217.74 293.506 217.302 293.73C216.865 293.943 216.38 294.05 215.846 294.05ZM216.054 292.978C216.46 292.978 216.833 292.903 217.174 292.754C217.516 292.594 217.782 292.381 217.974 292.114C218.177 291.847 218.278 291.554 218.278 291.234V290.05H216.582C215.91 290.05 215.393 290.183 215.03 290.45C214.668 290.717 214.486 291.095 214.486 291.586C214.486 292.013 214.625 292.354 214.902 292.61C215.19 292.855 215.574 292.978 216.054 292.978ZM221.809 287.842C221.809 286.935 221.793 286.285 221.761 285.89H223.025C223.068 286.317 223.089 286.786 223.089 287.298V287.458H223.137C223.34 286.903 223.665 286.477 224.113 286.178C224.561 285.879 225.089 285.73 225.697 285.73C225.868 285.73 226.023 285.746 226.161 285.778V286.898C226.023 286.866 225.836 286.85 225.601 286.85C225.153 286.85 224.743 286.989 224.369 287.266C223.996 287.533 223.703 287.901 223.489 288.37C223.276 288.839 223.169 289.351 223.169 289.906V293.89H221.809V287.842ZM227.403 287.842C227.403 286.935 227.387 286.285 227.355 285.89H228.619C228.662 286.317 228.683 286.786 228.683 287.298V287.458H228.731C228.934 286.903 229.259 286.477 229.707 286.178C230.155 285.879 230.683 285.73 231.291 285.73C231.462 285.73 231.616 285.746 231.755 285.778V286.898C231.616 286.866 231.43 286.85 231.195 286.85C230.747 286.85 230.336 286.989 229.963 287.266C229.59 287.533 229.296 287.901 229.083 288.37C228.87 288.839 228.763 289.351 228.763 289.906V293.89H227.403V287.842ZM236.216 294.05C235.427 294.05 234.739 293.885 234.152 293.554C233.576 293.213 233.128 292.727 232.808 292.098C232.499 291.469 232.344 290.733 232.344 289.89C232.344 289.047 232.499 288.311 232.808 287.682C233.128 287.053 233.576 286.573 234.152 286.242C234.739 285.901 235.427 285.73 236.216 285.73C237.411 285.73 238.355 286.103 239.048 286.85C239.752 287.597 240.104 288.61 240.104 289.89C240.104 291.17 239.752 292.183 239.048 292.93C238.355 293.677 237.411 294.05 236.216 294.05ZM236.216 293.01C237.006 293.01 237.624 292.733 238.072 292.178C238.52 291.623 238.744 290.861 238.744 289.89C238.744 288.919 238.52 288.157 238.072 287.602C237.624 287.047 237.006 286.77 236.216 286.77C235.438 286.77 234.824 287.047 234.376 287.602C233.928 288.157 233.704 288.919 233.704 289.89C233.704 290.861 233.928 291.623 234.376 292.178C234.824 292.733 235.438 293.01 236.216 293.01ZM247.765 294.05C247.168 294.05 246.624 293.927 246.133 293.682C245.653 293.437 245.312 293.111 245.109 292.706L245.989 292.098C246.171 292.386 246.421 292.61 246.741 292.77C247.061 292.93 247.408 293.01 247.781 293.01C248.229 293.01 248.597 292.882 248.885 292.626C249.184 292.359 249.333 292.029 249.333 291.634C249.333 291.314 249.216 291.047 248.981 290.834C248.747 290.621 248.331 290.402 247.733 290.178C246.827 289.847 246.187 289.501 245.813 289.138C245.451 288.775 245.269 288.327 245.269 287.794C245.269 287.175 245.515 286.679 246.005 286.306C246.496 285.922 247.147 285.73 247.957 285.73C248.48 285.73 248.955 285.842 249.381 286.066C249.819 286.29 250.155 286.599 250.389 286.994L249.557 287.602C249.184 287.047 248.651 286.77 247.957 286.77C247.563 286.77 247.237 286.861 246.981 287.042C246.736 287.223 246.613 287.458 246.613 287.746C246.613 288.034 246.741 288.279 246.997 288.482C247.253 288.674 247.728 288.903 248.421 289.17C249.243 289.479 249.824 289.821 250.165 290.194C250.507 290.557 250.677 291.021 250.677 291.586C250.677 292.333 250.411 292.93 249.877 293.378C249.344 293.826 248.64 294.05 247.765 294.05ZM259.246 290.418H253.486C253.561 291.229 253.801 291.847 254.206 292.274C254.611 292.69 255.171 292.898 255.886 292.898C256.846 292.898 257.609 292.519 258.174 291.762L258.942 292.498C258.633 292.989 258.201 293.373 257.646 293.65C257.102 293.917 256.499 294.05 255.838 294.05C254.654 294.05 253.737 293.687 253.086 292.962C252.435 292.237 252.11 291.218 252.11 289.906C252.11 288.605 252.435 287.586 253.086 286.85C253.747 286.103 254.654 285.73 255.806 285.73C256.883 285.73 257.726 286.098 258.334 286.834C258.942 287.559 259.246 288.578 259.246 289.89V290.418ZM257.998 289.298C257.998 288.53 257.795 287.927 257.39 287.49C256.995 287.053 256.446 286.834 255.742 286.834C255.081 286.834 254.553 287.058 254.158 287.506C253.774 287.954 253.55 288.589 253.486 289.41H257.998V289.298ZM261.927 284.498C261.629 284.498 261.389 284.418 261.207 284.258C261.037 284.087 260.951 283.869 260.951 283.602C260.951 283.325 261.037 283.106 261.207 282.946C261.389 282.775 261.629 282.69 261.927 282.69C262.215 282.69 262.445 282.775 262.615 282.946C262.797 283.106 262.887 283.325 262.887 283.602C262.887 283.869 262.797 284.087 262.615 284.258C262.445 284.418 262.215 284.498 261.927 284.498ZM260.071 296.93C259.73 296.93 259.389 296.893 259.047 296.818L259.095 295.81C259.266 295.831 259.479 295.842 259.735 295.842C260.301 295.842 260.701 295.682 260.935 295.362C261.17 295.042 261.287 294.541 261.287 293.858V285.89H262.647V293.906C262.647 294.898 262.439 295.65 262.023 296.162C261.607 296.674 260.957 296.93 260.071 296.93ZM267.096 294.05C266.307 294.05 265.662 293.821 265.16 293.362C264.659 292.903 264.408 292.311 264.408 291.586C264.408 290.786 264.707 290.167 265.304 289.73C265.912 289.293 266.771 289.074 267.88 289.074H269.528V288.658C269.528 288.061 269.368 287.607 269.048 287.298C268.739 286.978 268.286 286.818 267.688 286.818C267.208 286.818 266.766 286.919 266.36 287.122C265.966 287.314 265.635 287.597 265.368 287.97L264.68 287.138C265.043 286.679 265.486 286.333 266.008 286.098C266.531 285.853 267.112 285.73 267.752 285.73C268.755 285.73 269.528 285.975 270.072 286.466C270.616 286.957 270.888 287.661 270.888 288.578V292.338C270.888 292.754 270.952 293.271 271.08 293.89H269.896C269.8 293.645 269.731 293.271 269.688 292.77H269.656C269.358 293.186 268.99 293.506 268.552 293.73C268.115 293.943 267.63 294.05 267.096 294.05ZM267.304 292.978C267.71 292.978 268.083 292.903 268.424 292.754C268.766 292.594 269.032 292.381 269.224 292.114C269.427 291.847 269.528 291.554 269.528 291.234V290.05H267.832C267.16 290.05 266.643 290.183 266.28 290.45C265.918 290.717 265.736 291.095 265.736 291.586C265.736 292.013 265.875 292.354 266.152 292.61C266.44 292.855 266.824 292.978 267.304 292.978ZM283.59 290.418H277.83C277.904 291.229 278.144 291.847 278.55 292.274C278.955 292.69 279.515 292.898 280.23 292.898C281.19 292.898 281.952 292.519 282.518 291.762L283.286 292.498C282.976 292.989 282.544 293.373 281.99 293.65C281.446 293.917 280.843 294.05 280.182 294.05C278.998 294.05 278.08 293.687 277.43 292.962C276.779 292.237 276.454 291.218 276.454 289.906C276.454 288.605 276.779 287.586 277.43 286.85C278.091 286.103 278.998 285.73 280.15 285.73C281.227 285.73 282.07 286.098 282.678 286.834C283.286 287.559 283.59 288.578 283.59 289.89V290.418ZM282.342 289.298C282.342 288.53 282.139 287.927 281.734 287.49C281.339 287.053 280.79 286.834 280.086 286.834C279.424 286.834 278.896 287.058 278.502 287.506C278.118 287.954 277.894 288.589 277.83 289.41H282.342V289.298ZM285.119 287.906C285.119 286.893 285.098 286.221 285.055 285.89H286.319C286.362 286.242 286.383 286.717 286.383 287.314H286.431C286.666 286.823 287.023 286.439 287.503 286.162C287.994 285.874 288.538 285.73 289.135 285.73C290.074 285.73 290.778 286.034 291.247 286.642C291.716 287.25 291.951 288.157 291.951 289.362V293.89H290.591V289.346C290.591 288.493 290.447 287.858 290.159 287.442C289.871 287.026 289.434 286.818 288.847 286.818C288.399 286.818 287.994 286.935 287.631 287.17C287.268 287.394 286.986 287.714 286.783 288.13C286.58 288.535 286.479 288.994 286.479 289.506V293.89H285.119V287.906ZM296.812 294.05C296.108 294.05 295.554 293.826 295.148 293.378C294.743 292.919 294.54 292.29 294.54 291.49V286.946H293.1V285.89H294.54V283.762L295.836 283.362H295.9V285.89H298.172V286.946H295.9V291.362C295.9 291.906 296.002 292.311 296.204 292.578C296.407 292.834 296.722 292.962 297.148 292.962C297.607 292.962 297.98 292.903 298.268 292.786L298.364 293.794C298.012 293.965 297.495 294.05 296.812 294.05ZM300.044 287.842C300.044 286.935 300.028 286.285 299.996 285.89H301.26C301.302 286.317 301.324 286.786 301.324 287.298V287.458H301.372C301.574 286.903 301.9 286.477 302.348 286.178C302.796 285.879 303.324 285.73 303.932 285.73C304.102 285.73 304.257 285.746 304.396 285.778V286.898C304.257 286.866 304.07 286.85 303.836 286.85C303.388 286.85 302.977 286.989 302.604 287.266C302.23 287.533 301.937 287.901 301.724 288.37C301.51 288.839 301.404 289.351 301.404 289.906V293.89H300.044V287.842ZM312.277 290.418H306.517C306.592 291.229 306.832 291.847 307.237 292.274C307.643 292.69 308.203 292.898 308.917 292.898C309.877 292.898 310.64 292.519 311.205 291.762L311.973 292.498C311.664 292.989 311.232 293.373 310.677 293.65C310.133 293.917 309.531 294.05 308.869 294.05C307.685 294.05 306.768 293.687 306.117 292.962C305.467 292.237 305.141 291.218 305.141 289.906C305.141 288.605 305.467 287.586 306.117 286.85C306.779 286.103 307.685 285.73 308.837 285.73C309.915 285.73 310.757 286.098 311.365 286.834C311.973 287.559 312.277 288.578 312.277 289.89V290.418ZM311.029 289.298C311.029 288.53 310.827 287.927 310.421 287.49C310.027 287.053 309.477 286.834 308.773 286.834C308.112 286.834 307.584 287.058 307.189 287.506C306.805 287.954 306.581 288.589 306.517 289.41H311.029V289.298ZM320.527 285.89V293.634C320.527 294.914 320.212 295.885 319.583 296.546C318.953 297.207 318.031 297.538 316.815 297.538C316.281 297.538 315.759 297.474 315.247 297.346C314.745 297.218 314.292 297.037 313.887 296.802L314.335 295.81C315.135 296.194 315.945 296.386 316.767 296.386C318.431 296.386 319.263 295.399 319.263 293.426V292.69C319.049 293.095 318.724 293.415 318.287 293.65C317.849 293.885 317.353 294.002 316.799 294.002C315.743 294.002 314.911 293.623 314.303 292.866C313.695 292.109 313.391 291.074 313.391 289.762C313.391 288.503 313.689 287.517 314.287 286.802C314.884 286.087 315.705 285.73 316.751 285.73C317.305 285.73 317.791 285.842 318.207 286.066C318.633 286.29 318.969 286.615 319.215 287.042H319.247L319.407 285.89H320.527ZM319.167 289.362C319.167 288.551 318.975 287.917 318.591 287.458C318.207 286.999 317.673 286.77 316.991 286.77C316.297 286.77 315.748 287.042 315.343 287.586C314.948 288.119 314.751 288.855 314.751 289.794C314.751 290.775 314.948 291.543 315.343 292.098C315.737 292.642 316.287 292.914 316.991 292.914C317.673 292.914 318.207 292.711 318.591 292.306C318.975 291.89 319.167 291.314 319.167 290.578V289.362ZM325.279 294.05C324.361 294.05 323.663 293.751 323.183 293.154C322.713 292.557 322.479 291.677 322.479 290.514V285.89H323.839V290.53C323.839 292.151 324.415 292.962 325.567 292.962C326.015 292.962 326.42 292.85 326.783 292.626C327.145 292.391 327.428 292.071 327.631 291.666C327.833 291.25 327.935 290.786 327.935 290.274V285.89H329.295V292.194C329.295 292.727 329.343 293.293 329.439 293.89H328.191C328.095 293.421 328.041 292.946 328.031 292.466H327.983C327.748 292.957 327.385 293.346 326.895 293.634C326.415 293.911 325.876 294.05 325.279 294.05ZM338.043 290.418H332.283C332.358 291.229 332.598 291.847 333.003 292.274C333.408 292.69 333.968 292.898 334.683 292.898C335.643 292.898 336.406 292.519 336.971 291.762L337.739 292.498C337.43 292.989 336.998 293.373 336.443 293.65C335.899 293.917 335.296 294.05 334.635 294.05C333.451 294.05 332.534 293.687 331.883 292.962C331.232 292.237 330.907 291.218 330.907 289.906C330.907 288.605 331.232 287.586 331.883 286.85C332.544 286.103 333.451 285.73 334.603 285.73C335.68 285.73 336.523 286.098 337.131 286.834C337.739 287.559 338.043 288.578 338.043 289.89V290.418ZM336.795 289.298C336.795 288.53 336.592 287.927 336.187 287.49C335.792 287.053 335.243 286.834 334.539 286.834C333.878 286.834 333.35 287.058 332.955 287.506C332.571 287.954 332.347 288.589 332.283 289.41H336.795V289.298ZM346.791 294.05C345.607 294.05 344.684 293.687 344.023 292.962C343.372 292.226 343.047 291.202 343.047 289.89C343.047 288.578 343.372 287.559 344.023 286.834C344.684 286.098 345.607 285.73 346.791 285.73C347.463 285.73 348.055 285.863 348.567 286.13C349.089 286.386 349.5 286.759 349.799 287.25L348.983 287.986C348.748 287.623 348.439 287.341 348.055 287.138C347.681 286.925 347.276 286.818 346.839 286.818C346.081 286.818 345.484 287.09 345.047 287.634C344.62 288.167 344.407 288.919 344.407 289.89C344.407 290.85 344.62 291.602 345.047 292.146C345.484 292.69 346.081 292.962 346.839 292.962C347.276 292.962 347.681 292.861 348.055 292.658C348.439 292.445 348.748 292.157 348.983 291.794L349.799 292.53C349.5 293.021 349.089 293.399 348.567 293.666C348.055 293.922 347.463 294.05 346.791 294.05ZM354.513 294.05C353.724 294.05 353.036 293.885 352.449 293.554C351.873 293.213 351.425 292.727 351.105 292.098C350.796 291.469 350.641 290.733 350.641 289.89C350.641 289.047 350.796 288.311 351.105 287.682C351.425 287.053 351.873 286.573 352.449 286.242C353.036 285.901 353.724 285.73 354.513 285.73C355.708 285.73 356.652 286.103 357.345 286.85C358.049 287.597 358.401 288.61 358.401 289.89C358.401 291.17 358.049 292.183 357.345 292.93C356.652 293.677 355.708 294.05 354.513 294.05ZM354.513 293.01C355.303 293.01 355.921 292.733 356.369 292.178C356.817 291.623 357.041 290.861 357.041 289.89C357.041 288.919 356.817 288.157 356.369 287.602C355.921 287.047 355.303 286.77 354.513 286.77C353.735 286.77 353.121 287.047 352.673 287.602C352.225 288.157 352.001 288.919 352.001 289.89C352.001 290.861 352.225 291.623 352.673 292.178C353.121 292.733 353.735 293.01 354.513 293.01ZM359.948 287.906C359.948 287.095 359.921 286.423 359.868 285.89H361.084C361.126 286.317 361.148 286.791 361.148 287.314H361.196C361.409 286.823 361.745 286.439 362.204 286.162C362.662 285.874 363.174 285.73 363.74 285.73C364.305 285.73 364.79 285.874 365.196 286.162C365.601 286.45 365.873 286.85 366.012 287.362C366.236 286.861 366.577 286.466 367.036 286.178C367.494 285.879 368.012 285.73 368.588 285.73C369.462 285.73 370.145 286.013 370.636 286.578C371.137 287.143 371.388 287.933 371.388 288.946V293.89H370.044V289.058C370.044 288.333 369.889 287.778 369.58 287.394C369.281 287.01 368.844 286.818 368.268 286.818C367.702 286.818 367.238 287.031 366.876 287.458C366.513 287.874 366.332 288.413 366.332 289.074V293.89H364.988V289.122C364.988 288.343 364.849 287.767 364.572 287.394C364.294 287.01 363.873 286.818 363.308 286.818C362.956 286.818 362.625 286.925 362.316 287.138C362.006 287.351 361.756 287.634 361.564 287.986C361.382 288.338 361.292 288.717 361.292 289.122V293.89H359.948V287.906ZM95.0054 318.05C94.088 318.05 93.3894 317.751 92.9094 317.154C92.44 316.557 92.2054 315.677 92.2054 314.514V309.89H93.5654V314.53C93.5654 316.151 94.1414 316.962 95.2934 316.962C95.7414 316.962 96.1467 316.85 96.5094 316.626C96.872 316.391 97.1547 316.071 97.3574 315.666C97.56 315.25 97.6614 314.786 97.6614 314.274V309.89H99.0214V316.194C99.0214 316.727 99.0694 317.293 99.1654 317.89H97.9174C97.8214 317.421 97.768 316.946 97.7574 316.466H97.7094C97.4747 316.957 97.112 317.346 96.6214 317.634C96.1414 317.911 95.6027 318.05 95.0054 318.05ZM101.033 311.906C101.033 311.095 101.007 310.423 100.953 309.89H102.169C102.212 310.317 102.233 310.791 102.233 311.314H102.281C102.495 310.823 102.831 310.439 103.289 310.162C103.748 309.874 104.26 309.73 104.825 309.73C105.391 309.73 105.876 309.874 106.281 310.162C106.687 310.45 106.959 310.85 107.097 311.362C107.321 310.861 107.663 310.466 108.121 310.178C108.58 309.879 109.097 309.73 109.673 309.73C110.548 309.73 111.231 310.013 111.721 310.578C112.223 311.143 112.473 311.933 112.473 312.946V317.89H111.129V313.058C111.129 312.333 110.975 311.778 110.665 311.394C110.367 311.01 109.929 310.818 109.353 310.818C108.788 310.818 108.324 311.031 107.961 311.458C107.599 311.874 107.417 312.413 107.417 313.074V317.89H106.073V313.122C106.073 312.343 105.935 311.767 105.657 311.394C105.38 311.01 104.959 310.818 104.393 310.818C104.041 310.818 103.711 310.925 103.401 311.138C103.092 311.351 102.841 311.634 102.649 311.986C102.468 312.338 102.377 312.717 102.377 313.122V317.89H101.033V311.906ZM120.698 318.05C119.909 318.05 119.263 317.821 118.762 317.362C118.261 316.903 118.01 316.311 118.01 315.586C118.01 314.786 118.309 314.167 118.906 313.73C119.514 313.293 120.373 313.074 121.482 313.074H123.13V312.658C123.13 312.061 122.97 311.607 122.65 311.298C122.341 310.978 121.887 310.818 121.29 310.818C120.81 310.818 120.367 310.919 119.962 311.122C119.567 311.314 119.237 311.597 118.97 311.97L118.282 311.138C118.645 310.679 119.087 310.333 119.61 310.098C120.133 309.853 120.714 309.73 121.354 309.73C122.357 309.73 123.13 309.975 123.674 310.466C124.218 310.957 124.49 311.661 124.49 312.578V316.338C124.49 316.754 124.554 317.271 124.682 317.89H123.498C123.402 317.645 123.333 317.271 123.29 316.77H123.258C122.959 317.186 122.591 317.506 122.154 317.73C121.717 317.943 121.231 318.05 120.698 318.05ZM120.906 316.978C121.311 316.978 121.685 316.903 122.026 316.754C122.367 316.594 122.634 316.381 122.826 316.114C123.029 315.847 123.13 315.554 123.13 315.234V314.05H121.434C120.762 314.05 120.245 314.183 119.882 314.45C119.519 314.717 119.338 315.095 119.338 315.586C119.338 316.013 119.477 316.354 119.754 316.61C120.042 316.855 120.426 316.978 120.906 316.978ZM129.877 318.05C128.693 318.05 127.77 317.687 127.109 316.962C126.458 316.226 126.133 315.202 126.133 313.89C126.133 312.578 126.458 311.559 127.109 310.834C127.77 310.098 128.693 309.73 129.877 309.73C130.549 309.73 131.141 309.863 131.653 310.13C132.175 310.386 132.586 310.759 132.885 311.25L132.069 311.986C131.834 311.623 131.525 311.341 131.141 311.138C130.767 310.925 130.362 310.818 129.925 310.818C129.167 310.818 128.57 311.09 128.133 311.634C127.706 312.167 127.493 312.919 127.493 313.89C127.493 314.85 127.706 315.602 128.133 316.146C128.57 316.69 129.167 316.962 129.925 316.962C130.362 316.962 130.767 316.861 131.141 316.658C131.525 316.445 131.834 316.157 132.069 315.794L132.885 316.53C132.586 317.021 132.175 317.399 131.653 317.666C131.141 317.922 130.549 318.05 129.877 318.05ZM136.479 318.05C135.69 318.05 135.045 317.821 134.543 317.362C134.042 316.903 133.791 316.311 133.791 315.586C133.791 314.786 134.09 314.167 134.687 313.73C135.295 313.293 136.154 313.074 137.263 313.074H138.911V312.658C138.911 312.061 138.751 311.607 138.431 311.298C138.122 310.978 137.669 310.818 137.071 310.818C136.591 310.818 136.149 310.919 135.743 311.122C135.349 311.314 135.018 311.597 134.751 311.97L134.063 311.138C134.426 310.679 134.869 310.333 135.391 310.098C135.914 309.853 136.495 309.73 137.135 309.73C138.138 309.73 138.911 309.975 139.455 310.466C139.999 310.957 140.271 311.661 140.271 312.578V316.338C140.271 316.754 140.335 317.271 140.463 317.89H139.279C139.183 317.645 139.114 317.271 139.071 316.77H139.039C138.741 317.186 138.373 317.506 137.935 317.73C137.498 317.943 137.013 318.05 136.479 318.05ZM136.687 316.978C137.093 316.978 137.466 316.903 137.807 316.754C138.149 316.594 138.415 316.381 138.607 316.114C138.81 315.847 138.911 315.554 138.911 315.234V314.05H137.215C136.543 314.05 136.026 314.183 135.663 314.45C135.301 314.717 135.119 315.095 135.119 315.586C135.119 316.013 135.258 316.354 135.535 316.61C135.823 316.855 136.207 316.978 136.687 316.978ZM146.138 318.05C145.637 318.05 145.151 317.922 144.682 317.666C144.213 317.399 143.861 317.053 143.626 316.626H143.594C143.605 316.967 143.594 317.389 143.562 317.89H142.314C142.346 317.538 142.362 316.866 142.362 315.874V306.018H143.722V310.962H143.754C144.287 310.141 145.093 309.73 146.17 309.73C147.194 309.73 148.005 310.093 148.602 310.818C149.199 311.533 149.498 312.509 149.498 313.746C149.498 315.079 149.194 316.13 148.586 316.898C147.989 317.666 147.173 318.05 146.138 318.05ZM145.946 316.962C146.629 316.962 147.162 316.679 147.546 316.114C147.941 315.549 148.138 314.77 148.138 313.778C148.138 312.829 147.941 312.093 147.546 311.57C147.162 311.037 146.629 310.77 145.946 310.77C145.285 310.77 144.746 310.999 144.33 311.458C143.925 311.906 143.722 312.498 143.722 313.234V314.69C143.722 315.383 143.919 315.938 144.314 316.354C144.719 316.759 145.263 316.962 145.946 316.962ZM153.37 318.05C152.581 318.05 151.935 317.821 151.434 317.362C150.933 316.903 150.682 316.311 150.682 315.586C150.682 314.786 150.981 314.167 151.578 313.73C152.186 313.293 153.045 313.074 154.154 313.074H155.802V312.658C155.802 312.061 155.642 311.607 155.322 311.298C155.013 310.978 154.559 310.818 153.962 310.818C153.482 310.818 153.039 310.919 152.634 311.122C152.239 311.314 151.909 311.597 151.642 311.97L150.954 311.138C151.317 310.679 151.759 310.333 152.282 310.098C152.805 309.853 153.386 309.73 154.026 309.73C155.029 309.73 155.802 309.975 156.346 310.466C156.89 310.957 157.162 311.661 157.162 312.578V316.338C157.162 316.754 157.226 317.271 157.354 317.89H156.17C156.074 317.645 156.005 317.271 155.962 316.77H155.93C155.631 317.186 155.263 317.506 154.826 317.73C154.389 317.943 153.903 318.05 153.37 318.05ZM153.578 316.978C153.983 316.978 154.357 316.903 154.698 316.754C155.039 316.594 155.306 316.381 155.498 316.114C155.701 315.847 155.802 315.554 155.802 315.234V314.05H154.106C153.434 314.05 152.917 314.183 152.554 314.45C152.191 314.717 152.01 315.095 152.01 315.586C152.01 316.013 152.149 316.354 152.426 316.61C152.714 316.855 153.098 316.978 153.578 316.978ZM159.237 311.906C159.237 311.095 159.21 310.423 159.157 309.89H160.373C160.415 310.317 160.437 310.791 160.437 311.314H160.485C160.698 310.823 161.034 310.439 161.493 310.162C161.951 309.874 162.463 309.73 163.029 309.73C163.594 309.73 164.079 309.874 164.485 310.162C164.89 310.45 165.162 310.85 165.301 311.362C165.525 310.861 165.866 310.466 166.325 310.178C166.783 309.879 167.301 309.73 167.877 309.73C168.751 309.73 169.434 310.013 169.925 310.578C170.426 311.143 170.677 311.933 170.677 312.946V317.89H169.333V313.058C169.333 312.333 169.178 311.778 168.869 311.394C168.57 311.01 168.133 310.818 167.557 310.818C166.991 310.818 166.527 311.031 166.165 311.458C165.802 311.874 165.621 312.413 165.621 313.074V317.89H164.277V313.122C164.277 312.343 164.138 311.767 163.861 311.394C163.583 311.01 163.162 310.818 162.597 310.818C162.245 310.818 161.914 310.925 161.605 311.138C161.295 311.351 161.045 311.634 160.853 311.986C160.671 312.338 160.581 312.717 160.581 313.122V317.89H159.237V311.906ZM179.394 314.418H173.634C173.709 315.229 173.949 315.847 174.354 316.274C174.76 316.69 175.32 316.898 176.034 316.898C176.994 316.898 177.757 316.519 178.322 315.762L179.09 316.498C178.781 316.989 178.349 317.373 177.794 317.65C177.25 317.917 176.648 318.05 175.986 318.05C174.802 318.05 173.885 317.687 173.234 316.962C172.584 316.237 172.258 315.218 172.258 313.906C172.258 312.605 172.584 311.586 173.234 310.85C173.896 310.103 174.802 309.73 175.954 309.73C177.032 309.73 177.874 310.098 178.482 310.834C179.09 311.559 179.394 312.578 179.394 313.89V314.418ZM178.146 313.298C178.146 312.53 177.944 311.927 177.538 311.49C177.144 311.053 176.594 310.834 175.89 310.834C175.229 310.834 174.701 311.058 174.306 311.506C173.922 311.954 173.698 312.589 173.634 313.41H178.146V313.298ZM180.924 311.906C180.924 310.893 180.902 310.221 180.86 309.89H182.124C182.166 310.242 182.188 310.717 182.188 311.314H182.236C182.47 310.823 182.828 310.439 183.308 310.162C183.798 309.874 184.342 309.73 184.94 309.73C185.878 309.73 186.582 310.034 187.052 310.642C187.521 311.25 187.756 312.157 187.756 313.362V317.89H186.396V313.346C186.396 312.493 186.252 311.858 185.964 311.442C185.676 311.026 185.238 310.818 184.652 310.818C184.204 310.818 183.798 310.935 183.436 311.17C183.073 311.394 182.79 311.714 182.588 312.13C182.385 312.535 182.284 312.994 182.284 313.506V317.89H180.924V311.906ZM192.617 318.05C191.913 318.05 191.358 317.826 190.953 317.378C190.548 316.919 190.345 316.29 190.345 315.49V310.946H188.905V309.89H190.345V307.762L191.641 307.362H191.705V309.89H193.977V310.946H191.705V315.362C191.705 315.906 191.806 316.311 192.009 316.578C192.212 316.834 192.526 316.962 192.953 316.962C193.412 316.962 193.785 316.903 194.073 316.786L194.169 317.794C193.817 317.965 193.3 318.05 192.617 318.05ZM198.74 318.05C197.951 318.05 197.263 317.885 196.676 317.554C196.1 317.213 195.652 316.727 195.332 316.098C195.023 315.469 194.868 314.733 194.868 313.89C194.868 313.047 195.023 312.311 195.332 311.682C195.652 311.053 196.1 310.573 196.676 310.242C197.263 309.901 197.951 309.73 198.74 309.73C199.935 309.73 200.879 310.103 201.572 310.85C202.276 311.597 202.628 312.61 202.628 313.89C202.628 315.17 202.276 316.183 201.572 316.93C200.879 317.677 199.935 318.05 198.74 318.05ZM198.74 317.01C199.529 317.01 200.148 316.733 200.596 316.178C201.044 315.623 201.268 314.861 201.268 313.89C201.268 312.919 201.044 312.157 200.596 311.602C200.148 311.047 199.529 310.77 198.74 310.77C197.961 310.77 197.348 311.047 196.9 311.602C196.452 312.157 196.228 312.919 196.228 313.89C196.228 314.861 196.452 315.623 196.9 316.178C197.348 316.733 197.961 317.01 198.74 317.01ZM208.097 311.906C208.097 311.223 208.075 310.551 208.033 309.89H209.281C209.313 310.285 209.329 310.706 209.329 311.154H209.361C209.585 310.727 209.931 310.386 210.401 310.13C210.87 309.863 211.377 309.73 211.921 309.73C212.955 309.73 213.766 310.098 214.353 310.834C214.939 311.57 215.233 312.589 215.233 313.89C215.233 314.733 215.094 315.469 214.817 316.098C214.539 316.717 214.145 317.197 213.633 317.538C213.131 317.879 212.545 318.05 211.873 318.05C211.318 318.05 210.833 317.943 210.417 317.73C210.001 317.517 209.697 317.218 209.505 316.834H209.457V321.762H208.097V311.906ZM211.665 317.01C212.347 317.01 212.886 316.727 213.281 316.162C213.675 315.586 213.873 314.813 213.873 313.842C213.873 312.871 213.681 312.125 213.297 311.602C212.913 311.079 212.374 310.818 211.681 310.818C211.03 310.818 210.497 311.031 210.081 311.458C209.665 311.885 209.457 312.429 209.457 313.09V314.546C209.457 315.282 209.659 315.879 210.065 316.338C210.47 316.786 211.003 317.01 211.665 317.01ZM223.519 314.418H217.759C217.834 315.229 218.074 315.847 218.479 316.274C218.885 316.69 219.445 316.898 220.159 316.898C221.119 316.898 221.882 316.519 222.447 315.762L223.215 316.498C222.906 316.989 222.474 317.373 221.919 317.65C221.375 317.917 220.773 318.05 220.111 318.05C218.927 318.05 218.01 317.687 217.359 316.962C216.709 316.237 216.383 315.218 216.383 313.906C216.383 312.605 216.709 311.586 217.359 310.85C218.021 310.103 218.927 309.73 220.079 309.73C221.157 309.73 221.999 310.098 222.607 310.834C223.215 311.559 223.519 312.578 223.519 313.89V314.418ZM222.271 313.298C222.271 312.53 222.069 311.927 221.663 311.49C221.269 311.053 220.719 310.834 220.015 310.834C219.354 310.834 218.826 311.058 218.431 311.506C218.047 311.954 217.823 312.589 217.759 313.41H222.271V313.298ZM225.161 311.842C225.161 310.935 225.145 310.285 225.113 309.89H226.377C226.419 310.317 226.441 310.786 226.441 311.298V311.458H226.489C226.691 310.903 227.017 310.477 227.465 310.178C227.913 309.879 228.441 309.73 229.049 309.73C229.219 309.73 229.374 309.746 229.513 309.778V310.898C229.374 310.866 229.187 310.85 228.953 310.85C228.505 310.85 228.094 310.989 227.721 311.266C227.347 311.533 227.054 311.901 226.841 312.37C226.627 312.839 226.521 313.351 226.521 313.906V317.89H225.161V311.842ZM231.138 310.882H229.81V309.89H231.138V308.882C231.138 308.125 231.362 307.527 231.81 307.09C232.269 306.642 232.888 306.418 233.666 306.418C233.986 306.418 234.285 306.471 234.562 306.578C234.85 306.674 235.08 306.807 235.25 306.978L234.754 307.826C234.488 307.591 234.152 307.474 233.746 307.474C233.362 307.474 233.058 307.602 232.834 307.858C232.61 308.114 232.498 308.466 232.498 308.914V309.89H234.786V310.882H232.498V317.89H231.138V310.882ZM242.207 314.418H236.447C236.522 315.229 236.762 315.847 237.167 316.274C237.572 316.69 238.132 316.898 238.847 316.898C239.807 316.898 240.57 316.519 241.135 315.762L241.903 316.498C241.594 316.989 241.162 317.373 240.607 317.65C240.063 317.917 239.46 318.05 238.799 318.05C237.615 318.05 236.698 317.687 236.047 316.962C235.396 316.237 235.071 315.218 235.071 313.906C235.071 312.605 235.396 311.586 236.047 310.85C236.708 310.103 237.615 309.73 238.767 309.73C239.844 309.73 240.687 310.098 241.295 310.834C241.903 311.559 242.207 312.578 242.207 313.89V314.418ZM240.959 313.298C240.959 312.53 240.756 311.927 240.351 311.49C239.956 311.053 239.407 310.834 238.703 310.834C238.042 310.834 237.514 311.058 237.119 311.506C236.735 311.954 236.511 312.589 236.447 313.41H240.959V313.298ZM244.728 308.498C244.43 308.498 244.195 308.418 244.024 308.258C243.854 308.098 243.768 307.879 243.768 307.602C243.768 307.325 243.854 307.106 244.024 306.946C244.195 306.775 244.43 306.69 244.728 306.69C245.027 306.69 245.262 306.775 245.432 306.946C245.614 307.106 245.704 307.325 245.704 307.602C245.704 307.879 245.614 308.098 245.432 308.258C245.262 308.418 245.027 308.498 244.728 308.498ZM244.056 309.89H245.416V317.89H244.056V309.89ZM250.57 318.05C249.866 318.05 249.311 317.826 248.906 317.378C248.501 316.919 248.298 316.29 248.298 315.49V310.946H246.858V309.89H248.298V307.762L249.594 307.362H249.658V309.89H251.93V310.946H249.658V315.362C249.658 315.906 249.759 316.311 249.962 316.578C250.165 316.834 250.479 316.962 250.906 316.962C251.365 316.962 251.738 316.903 252.026 316.786L252.122 317.794C251.77 317.965 251.253 318.05 250.57 318.05ZM256.693 318.05C255.904 318.05 255.216 317.885 254.629 317.554C254.053 317.213 253.605 316.727 253.285 316.098C252.976 315.469 252.821 314.733 252.821 313.89C252.821 313.047 252.976 312.311 253.285 311.682C253.605 311.053 254.053 310.573 254.629 310.242C255.216 309.901 255.904 309.73 256.693 309.73C257.888 309.73 258.832 310.103 259.525 310.85C260.229 311.597 260.581 312.61 260.581 313.89C260.581 315.17 260.229 316.183 259.525 316.93C258.832 317.677 257.888 318.05 256.693 318.05ZM256.693 317.01C257.482 317.01 258.101 316.733 258.549 316.178C258.997 315.623 259.221 314.861 259.221 313.89C259.221 312.919 258.997 312.157 258.549 311.602C258.101 311.047 257.482 310.77 256.693 310.77C255.914 310.77 255.301 311.047 254.853 311.602C254.405 312.157 254.181 312.919 254.181 313.89C254.181 314.861 254.405 315.623 254.853 316.178C255.301 316.733 255.914 317.01 256.693 317.01ZM262.715 315.906C263.056 315.906 263.328 316.029 263.531 316.274C263.734 316.519 263.835 316.866 263.835 317.314C263.835 317.879 263.68 318.477 263.371 319.106C263.072 319.735 262.672 320.258 262.171 320.674L261.595 320.018C261.851 319.762 262.075 319.453 262.267 319.09C262.47 318.738 262.608 318.375 262.683 318.002C262.64 318.013 262.571 318.018 262.475 318.018C262.23 318.018 262.022 317.927 261.851 317.746C261.691 317.554 261.611 317.314 261.611 317.026C261.611 316.695 261.712 316.429 261.915 316.226C262.118 316.013 262.384 315.906 262.715 315.906ZM272.877 318.05C271.693 318.05 270.77 317.687 270.109 316.962C269.458 316.226 269.133 315.202 269.133 313.89C269.133 312.578 269.458 311.559 270.109 310.834C270.77 310.098 271.693 309.73 272.877 309.73C273.549 309.73 274.141 309.863 274.653 310.13C275.175 310.386 275.586 310.759 275.885 311.25L275.069 311.986C274.834 311.623 274.525 311.341 274.141 311.138C273.767 310.925 273.362 310.818 272.925 310.818C272.167 310.818 271.57 311.09 271.133 311.634C270.706 312.167 270.493 312.919 270.493 313.89C270.493 314.85 270.706 315.602 271.133 316.146C271.57 316.69 272.167 316.962 272.925 316.962C273.362 316.962 273.767 316.861 274.141 316.658C274.525 316.445 274.834 316.157 275.069 315.794L275.885 316.53C275.586 317.021 275.175 317.399 274.653 317.666C274.141 317.922 273.549 318.05 272.877 318.05ZM280.599 318.05C279.81 318.05 279.122 317.885 278.535 317.554C277.959 317.213 277.511 316.727 277.191 316.098C276.882 315.469 276.727 314.733 276.727 313.89C276.727 313.047 276.882 312.311 277.191 311.682C277.511 311.053 277.959 310.573 278.535 310.242C279.122 309.901 279.81 309.73 280.599 309.73C281.794 309.73 282.738 310.103 283.431 310.85C284.135 311.597 284.487 312.61 284.487 313.89C284.487 315.17 284.135 316.183 283.431 316.93C282.738 317.677 281.794 318.05 280.599 318.05ZM280.599 317.01C281.389 317.01 282.007 316.733 282.455 316.178C282.903 315.623 283.127 314.861 283.127 313.89C283.127 312.919 282.903 312.157 282.455 311.602C282.007 311.047 281.389 310.77 280.599 310.77C279.821 310.77 279.207 311.047 278.759 311.602C278.311 312.157 278.087 312.919 278.087 313.89C278.087 314.861 278.311 315.623 278.759 316.178C279.207 316.733 279.821 317.01 280.599 317.01ZM286.033 311.906C286.033 311.095 286.007 310.423 285.953 309.89H287.169C287.212 310.317 287.233 310.791 287.233 311.314H287.281C287.495 310.823 287.831 310.439 288.289 310.162C288.748 309.874 289.26 309.73 289.825 309.73C290.391 309.73 290.876 309.874 291.281 310.162C291.687 310.45 291.959 310.85 292.097 311.362C292.321 310.861 292.663 310.466 293.121 310.178C293.58 309.879 294.097 309.73 294.673 309.73C295.548 309.73 296.231 310.013 296.721 310.578C297.223 311.143 297.473 311.933 297.473 312.946V317.89H296.129V313.058C296.129 312.333 295.975 311.778 295.665 311.394C295.367 311.01 294.929 310.818 294.353 310.818C293.788 310.818 293.324 311.031 292.961 311.458C292.599 311.874 292.417 312.413 292.417 313.074V317.89H291.073V313.122C291.073 312.343 290.935 311.767 290.657 311.394C290.38 311.01 289.959 310.818 289.393 310.818C289.041 310.818 288.711 310.925 288.401 311.138C288.092 311.351 287.841 311.634 287.649 311.986C287.468 312.338 287.377 312.717 287.377 313.122V317.89H286.033V311.906ZM302.927 318.05C302.138 318.05 301.45 317.885 300.863 317.554C300.287 317.213 299.839 316.727 299.519 316.098C299.21 315.469 299.055 314.733 299.055 313.89C299.055 313.047 299.21 312.311 299.519 311.682C299.839 311.053 300.287 310.573 300.863 310.242C301.45 309.901 302.138 309.73 302.927 309.73C304.122 309.73 305.066 310.103 305.759 310.85C306.463 311.597 306.815 312.61 306.815 313.89C306.815 315.17 306.463 316.183 305.759 316.93C305.066 317.677 304.122 318.05 302.927 318.05ZM302.927 317.01C303.717 317.01 304.335 316.733 304.783 316.178C305.231 315.623 305.455 314.861 305.455 313.89C305.455 312.919 305.231 312.157 304.783 311.602C304.335 311.047 303.717 310.77 302.927 310.77C302.149 310.77 301.535 311.047 301.087 311.602C300.639 312.157 300.415 312.919 300.415 313.89C300.415 314.861 300.639 315.623 301.087 316.178C301.535 316.733 302.149 317.01 302.927 317.01ZM312.236 311.906C312.236 310.893 312.215 310.221 312.172 309.89H313.436C313.479 310.242 313.5 310.717 313.5 311.314H313.548C313.783 310.823 314.14 310.439 314.62 310.162C315.111 309.874 315.655 309.73 316.252 309.73C317.191 309.73 317.895 310.034 318.364 310.642C318.834 311.25 319.068 312.157 319.068 313.362V317.89H317.708V313.346C317.708 312.493 317.564 311.858 317.276 311.442C316.988 311.026 316.551 310.818 315.964 310.818C315.516 310.818 315.111 310.935 314.748 311.17C314.386 311.394 314.103 311.714 313.9 312.13C313.698 312.535 313.596 312.994 313.596 313.506V317.89H312.236V311.906ZM324.505 318.05C323.716 318.05 323.028 317.885 322.441 317.554C321.865 317.213 321.417 316.727 321.097 316.098C320.788 315.469 320.633 314.733 320.633 313.89C320.633 313.047 320.788 312.311 321.097 311.682C321.417 311.053 321.865 310.573 322.441 310.242C323.028 309.901 323.716 309.73 324.505 309.73C325.7 309.73 326.644 310.103 327.337 310.85C328.041 311.597 328.393 312.61 328.393 313.89C328.393 315.17 328.041 316.183 327.337 316.93C326.644 317.677 325.7 318.05 324.505 318.05ZM324.505 317.01C325.295 317.01 325.913 316.733 326.361 316.178C326.809 315.623 327.033 314.861 327.033 313.89C327.033 312.919 326.809 312.157 326.361 311.602C325.913 311.047 325.295 310.77 324.505 310.77C323.727 310.77 323.113 311.047 322.665 311.602C322.217 312.157 321.993 312.919 321.993 313.89C321.993 314.861 322.217 315.623 322.665 316.178C323.113 316.733 323.727 317.01 324.505 317.01ZM336.295 309.89L333.255 317.89H332.023L328.983 309.89H330.391L332.647 316.29L334.887 309.89H336.295ZM340.755 318.05C339.966 318.05 339.278 317.885 338.691 317.554C338.115 317.213 337.667 316.727 337.347 316.098C337.038 315.469 336.883 314.733 336.883 313.89C336.883 313.047 337.038 312.311 337.347 311.682C337.667 311.053 338.115 310.573 338.691 310.242C339.278 309.901 339.966 309.73 340.755 309.73C341.95 309.73 342.894 310.103 343.587 310.85C344.291 311.597 344.643 312.61 344.643 313.89C344.643 315.17 344.291 316.183 343.587 316.93C342.894 317.677 341.95 318.05 340.755 318.05ZM340.755 317.01C341.545 317.01 342.163 316.733 342.611 316.178C343.059 315.623 343.283 314.861 343.283 313.89C343.283 312.919 343.059 312.157 342.611 311.602C342.163 311.047 341.545 310.77 340.755 310.77C339.977 310.77 339.363 311.047 338.915 311.602C338.467 312.157 338.243 312.919 338.243 313.89C338.243 314.861 338.467 315.623 338.915 316.178C339.363 316.733 339.977 317.01 340.755 317.01ZM346.745 318.05C346.447 318.05 346.207 317.954 346.025 317.762C345.844 317.559 345.753 317.303 345.753 316.994C345.753 316.685 345.844 316.434 346.025 316.242C346.207 316.05 346.447 315.954 346.745 315.954C347.044 315.954 347.284 316.05 347.465 316.242C347.647 316.434 347.737 316.685 347.737 316.994C347.737 317.303 347.647 317.559 347.465 317.762C347.284 317.954 347.044 318.05 346.745 318.05Z" fill="#D3D3D3"/>
<rect x="195" y="137.29" width="50" height="50" rx="25" fill="#FF3D24" fill-opacity="0.7"/>
<rect x="195" y="137.3" width="50" height="50" rx="25" fill="#FF3D24" fill-opacity="0.7"/>
<rect x="195" y="137.3" width="50" height="50" rx="25" fill="#FF3D24" fill-opacity="0.7"/>
<g clip-path="url(#clip0_1_185)">
<g clip-path="url(#clip1_1_185)">
<g clip-path="url(#clip2_1_185)">
<path fill-rule="evenodd" clip-rule="evenodd" d="M211.442 164.84C211.318 164.84 211.216 164.738 211.216 164.614C211.216 164.4 211.216 164.129 211.205 163.858C211.171 162.708 211.115 161.196 211.555 160.282C213.36 160.733 215.639 160.812 217.286 160.835H217.614L217.14 161.839C217.004 162.008 216.88 162.222 216.79 162.448L216.801 162.426H215.831C215.549 162.426 215.312 162.651 215.312 162.933V163.407C215.312 163.689 215.549 163.915 215.831 163.915H216.485C216.463 164.219 216.452 164.535 216.44 164.84H211.442ZM216.655 162.866C216.609 163.057 216.564 163.26 216.531 163.464H215.831C215.786 163.464 215.763 163.441 215.763 163.407V162.933C215.763 162.899 215.786 162.877 215.831 162.877H216.655V162.866ZM213.574 163.802C212.931 163.802 212.424 163.283 212.424 162.651C212.424 162.019 212.931 161.5 213.574 161.5C214.206 161.5 214.714 162.019 214.714 162.651C214.714 163.283 214.206 163.802 213.574 163.802ZM213.574 161.952C213.18 161.952 212.864 162.256 212.864 162.651C212.864 163.035 213.18 163.351 213.574 163.351C213.958 163.351 214.274 163.035 214.274 162.651C214.274 162.256 213.958 161.952 213.574 161.952ZM211.814 159.887L212.943 157.518V157.506C213.574 156.423 214.703 156.513 214.872 156.536H219.487C219.645 156.513 220.784 156.423 221.405 157.506C221.416 157.506 221.416 157.518 221.416 157.518L221.766 158.262H220.592C220.525 158.262 220.457 158.251 220.389 158.251C219.509 158.251 218.719 158.68 218.268 159.458C218.257 159.481 218.257 159.481 218.245 159.503L217.828 160.383C217.625 160.383 217.388 160.383 217.286 160.383C215.718 160.372 213.541 160.293 211.814 159.887Z" fill="white"/>
<path fill-rule="evenodd" clip-rule="evenodd" d="M213.518 166.566H212.085C211.611 166.566 211.216 166.171 211.216 165.698V165.246C211.284 165.269 211.363 165.291 211.442 165.291L211.453 165.28H214.376V165.698C214.376 166.171 213.992 166.566 213.518 166.566Z" fill="white"/>
<path fill-rule="evenodd" clip-rule="evenodd" d="M211.374 159.774L210.822 159.616C210.494 159.526 210.303 159.108 210.393 158.691C210.472 158.341 210.731 158.093 211.036 158.093C211.081 158.093 211.137 158.093 211.194 158.116L211.905 158.341C211.95 158.353 211.984 158.386 212.018 158.42L211.374 159.774Z" fill="white"/>
<path fill-rule="evenodd" clip-rule="evenodd" d="M228.625 167.017H217.151C217.027 167.017 216.937 166.916 216.937 166.792C216.937 166.577 216.925 166.307 216.914 166.036C216.88 164.795 216.824 163.136 217.388 162.256C219.193 162.73 221.326 162.99 222.995 163.012H223.007C224.631 162.99 226.696 162.617 228.355 162.2C228.953 163.046 228.907 164.761 228.862 166.036C228.851 166.307 228.851 166.577 228.851 166.792C228.851 166.916 228.749 167.017 228.625 167.017ZM219.283 165.98C218.652 165.98 218.133 165.46 218.133 164.829C218.133 164.197 218.652 163.678 219.283 163.678C219.915 163.678 220.434 164.197 220.434 164.829C220.434 165.46 219.915 165.98 219.283 165.98ZM224.259 166.092H221.54C221.258 166.092 221.032 165.867 221.032 165.585V165.111C221.032 164.829 221.258 164.603 221.54 164.603H224.259C224.53 164.603 224.767 164.829 224.767 165.111V165.585C224.767 165.867 224.53 166.092 224.259 166.092ZM221.54 165.054C221.506 165.054 221.472 165.077 221.472 165.111V165.585C221.472 165.618 221.506 165.652 221.54 165.652H224.259C224.293 165.652 224.315 165.618 224.315 165.585V165.111C224.315 165.077 224.293 165.054 224.259 165.054H221.54ZM226.504 165.98C225.872 165.98 225.365 165.46 225.365 164.829C225.365 164.197 225.872 163.678 226.504 163.678C227.147 163.678 227.655 164.197 227.655 164.829C227.655 165.46 227.147 165.98 226.504 165.98ZM226.504 164.129C226.121 164.129 225.805 164.445 225.805 164.829C225.805 165.212 226.121 165.528 226.504 165.528C226.899 165.528 227.215 165.212 227.215 164.829C227.215 164.445 226.899 164.129 226.504 164.129ZM219.283 164.129C218.9 164.129 218.584 164.445 218.584 164.829C218.584 165.212 218.9 165.528 219.283 165.528C219.667 165.528 219.983 165.212 219.983 164.829C219.983 164.445 219.667 164.129 219.283 164.129ZM217.625 161.861L218.652 159.695C218.652 159.695 218.652 159.684 218.663 159.684C219.171 158.793 220.039 158.702 220.389 158.702C220.479 158.702 220.547 158.714 220.581 158.714H225.195C225.229 158.714 225.297 158.702 225.387 158.702C225.737 158.702 226.606 158.793 227.125 159.684V159.695L228.118 161.794C226.527 162.2 224.552 162.55 222.995 162.561C221.405 162.55 219.351 162.301 217.625 161.861Z" fill="white"/>
<path fill-rule="evenodd" clip-rule="evenodd" d="M227.982 168.744H226.549C226.076 168.744 225.681 168.349 225.681 167.875V167.469H228.625C228.704 167.469 228.772 167.446 228.851 167.424V167.875C228.851 168.349 228.456 168.744 227.982 168.744Z" fill="white"/>
<path fill-rule="evenodd" clip-rule="evenodd" d="M219.227 168.744H217.794C217.32 168.744 216.937 168.349 216.937 167.875V167.424C217.004 167.446 217.072 167.469 217.151 167.469H220.096V167.875C220.096 168.349 219.701 168.744 219.227 168.744Z" fill="white"/>
<path fill-rule="evenodd" clip-rule="evenodd" d="M227.949 160.383C227.971 160.316 228.027 160.259 228.095 160.237L228.806 160.011C228.862 160 228.907 159.989 228.964 159.989C229.257 159.989 229.517 160.237 229.607 160.587C229.697 161.004 229.505 161.421 229.178 161.512L228.558 161.681L227.949 160.383Z" fill="white"/>
</g>
</g>
</g>
</g>
<defs>
<clipPath id="clip0_1_185">
<rect width="20" height="20" fill="white" transform="translate(210 152.3)"/>
</clipPath>
<clipPath id="clip1_1_185">
<rect width="20" height="20" fill="white" transform="translate(210 152.3)"/>
</clipPath>
<clipPath id="clip2_1_185">
<rect width="19.2593" height="20" fill="white" transform="translate(210.37 152.3)"/>
</clipPath>
</defs>
</svg>
